font.ufo
<glyph name="exclam" format="1">
  <advance width="320"/>
  <unicode hex="0021"/>
  <outline>
    <contour>
      <point x="160" y="-5" type="curve" smooth="yes"/>
      <point x="188" y="-5"/>
      <point x="211" y="17"/>
      <point x="211" y="46" type="curve" smooth="yes"/>
      <point x="211" y="74"/>
      <point x="188" y="97"/>
      <point x="160" y="97" type="curve" smooth="yes"/>
      <point x="132" y="97"/>
      <point x="109" y="74"/>
      <point x="109" y="46" type="curve" smooth="yes"/>
      <point x="109" y="17"/>
      <point x="132" y="-5"/>
    </contour>
    <contour>
      <point x="115" y="703" type="line"/>
      <point x="137" y="157" type="line"/>
      <point x="185" y="157" type="line"/>
      <point x="198" y="703" type="line"/>
    </contour>
  </outline>
</glyph>
<glyph name="quotedbl" format="1">
  <advance width="273"/>
  <unicode hex="0022"/>
  <outline>
    <contour>
      <point x="51" y="755" type="line"/>
      <point x="71" y="553" type="line"/>
      <point x="98" y="553" type="line"/>
      <point x="118" y="755" type="line"/>
    </contour>
    <contour>
      <point x="156" y="755" type="line"/>
      <point x="176" y="553" type="line"/>
      <point x="203" y="553" type="line"/>
      <point x="223" y="755" type="line"/>
    </contour>
  </outline>
</glyph>
<glyph name="numbersign" format="1">
  <advance width="752"/>
  <unicode hex="0023"/>
  <outline>
    <contour>
      <point x="708" y="437" type="line"/>
      <point x="708" y="490" type="line"/>
      <point x="114" y="490" type="line"/>
      <point x="114" y="437" type="line"/>
    </contour>
    <contour>
      <point x="654" y="190" type="line"/>
      <point x="654" y="243" type="line"/>
      <point x="60" y="243" type="line"/>
      <point x="60" y="190" type="line"/>
    </contour>
    <contour>
      <point x="221" y="0" type="line"/>
      <point x="352" y="678" type="line"/>
      <point x="297" y="678" type="line"/>
      <point x="165" y="0" type="line"/>
    </contour>
    <contour>
      <point x="463" y="0" type="line"/>
      <point x="594" y="678" type="line"/>
      <point x="539" y="678" type="line"/>
      <point x="407" y="0" type="line"/>
    </contour>
  </outline>
</glyph>
<glyph name="dollar" format="1">
  <advance width="475"/>
  <unicode hex="0024"/>
  <outline>
    <contour>
      <point x="267" y="696" type="line"/>
      <point x="267" y="-83" type="line"/>
      <point x="227" y="-83" type="line"/>
      <point x="227" y="696" type="line"/>
    </contour>
    <contour>
      <point x="410" y="591" type="curve"/>
      <point x="409" y="549"/>
      <point x="406" y="509"/>
      <point x="399" y="473" type="curve"/>
      <point x="392" y="473"/>
      <point x="383" y="473"/>
      <point x="377" y="475" type="curve"/>
      <point x="363" y="551"/>
      <point x="316" y="582"/>
      <point x="247" y="582" type="curve" smooth="yes"/>
      <point x="176" y="582"/>
      <point x="133" y="545"/>
      <point x="133" y="484" type="curve" smooth="yes"/>
      <point x="133" y="331"/>
      <point x="431" y="360"/>
      <point x="431" y="162" type="curve" smooth="yes"/>
      <point x="431" y="58"/>
      <point x="344" y="-8"/>
      <point x="226" y="-8" type="curve" smooth="yes"/>
      <point x="166" y="-8"/>
      <point x="114" y="6"/>
      <point x="58" y="33" type="curve"/>
      <point x="56" y="85"/>
      <point x="60" y="140"/>
      <point x="66" y="180" type="curve"/>
      <point x="75" y="180"/>
      <point x="82" y="180"/>
      <point x="92" y="177" type="curve"/>
      <point x="90" y="64"/>
      <point x="151" y="30"/>
      <point x="234" y="30" type="curve" smooth="yes"/>
      <point x="308" y="30"/>
      <point x="362" y="77"/>
      <point x="362" y="142" type="curve" smooth="yes"/>
      <point x="362" y="304"/>
      <point x="68" y="276"/>
      <point x="68" y="469" type="curve" smooth="yes"/>
      <point x="68" y="564"/>
      <point x="149" y="621"/>
      <point x="253" y="621" type="curve" smooth="yes"/>
      <point x="315" y="621"/>
      <point x="365" y="608"/>
    </contour>
  </outline>
</glyph>
<glyph name="ampersand" format="1">
  <advance width="660"/>
  <unicode hex="0026"/>
  <outline>
    <contour>
      <point x="155" y="485" type="curve" smooth="yes"/>
      <point x="155" y="441"/>
      <point x="175" y="409"/>
      <point x="212" y="362" type="curve" smooth="yes"/>
      <point x="508" y="0" type="line"/>
      <point x="636" y="0" type="line"/>
      <point x="639" y="9"/>
      <point x="640" y="20"/>
      <point x="640" y="30" type="curve"/>
      <point x="597" y="32"/>
      <point x="566" y="42"/>
      <point x="531" y="87" type="curve" smooth="yes"/>
      <point x="272" y="402" type="line" smooth="yes"/>
      <point x="241" y="440"/>
      <point x="232" y="461"/>
      <point x="232" y="496" type="curve" smooth="yes"/>
      <point x="232" y="549"/>
      <point x="272" y="587"/>
      <point x="322" y="587" type="curve" smooth="yes"/>
      <point x="372" y="587"/>
      <point x="412" y="549"/>
      <point x="412" y="494" type="curve" smooth="yes"/>
      <point x="412" y="433"/>
      <point x="372" y="394"/>
      <point x="285" y="361" type="curve"/>
      <point x="307" y="339" type="line"/>
      <point x="411" y="374"/>
      <point x="487" y="411"/>
      <point x="487" y="496" type="curve" smooth="yes"/>
      <point x="487" y="570"/>
      <point x="413" y="624"/>
      <point x="322" y="624" type="curve" smooth="yes"/>
      <point x="234" y="624"/>
      <point x="155" y="568"/>
    </contour>
    <contour>
      <point x="49" y="141" type="curve" smooth="yes"/>
      <point x="49" y="46"/>
      <point x="121" y="-13"/>
      <point x="212" y="-13" type="curve" smooth="yes"/>
      <point x="302" y="-13"/>
      <point x="361" y="31"/>
      <point x="447" y="132" type="curve"/>
      <point x="422" y="156" type="line"/>
      <point x="352" y="76"/>
      <point x="306" y="48"/>
      <point x="233" y="48" type="curve" smooth="yes"/>
      <point x="165" y="48"/>
      <point x="125" y="92"/>
      <point x="125" y="151" type="curve" smooth="yes"/>
      <point x="125" y="210"/>
      <point x="157" y="270"/>
      <point x="279" y="322" type="curve"/>
      <point x="259" y="343" type="line"/>
      <point x="123" y="302"/>
      <point x="49" y="236"/>
    </contour>
    <contour>
      <point x="471" y="286" type="curve"/>
      <point x="499" y="284"/>
      <point x="521" y="280"/>
      <point x="550" y="267" type="curve"/>
      <point x="543" y="287" type="line"/>
      <point x="435" y="168" type="line"/>
      <point x="461" y="145" type="line"/>
      <point x="544" y="238" type="line" smooth="yes"/>
      <point x="570" y="266"/>
      <point x="598" y="281"/>
      <point x="639" y="286" type="curve"/>
      <point x="641" y="294"/>
      <point x="642" y="307"/>
      <point x="641" y="316" type="curve"/>
      <point x="474" y="316" type="line"/>
      <point x="472" y="308"/>
      <point x="471" y="296"/>
    </contour>
  </outline>
</glyph>
<glyph name="quotesingle" format="1">
  <advance width="168"/>
  <unicode hex="0027"/>
  <outline>
    <contour>
      <point x="51" y="755" type="line"/>
      <point x="71" y="553" type="line"/>
      <point x="98" y="553" type="line"/>
      <point x="118" y="755" type="line"/>
    </contour>
  </outline>
</glyph>
<glyph name="parenleft" format="1">
  <advance width="402"/>
  <unicode hex="0028"/>
  <outline>
    <contour>
      <point x="374" y="771" type="line"/>
      <point x="236" y="645"/>
      <point x="190" y="488"/>
      <point x="190" y="335" type="curve" smooth="yes"/>
      <point x="190" y="183"/>
      <point x="236" y="12"/>
      <point x="374" y="-112" type="curve"/>
      <point x="338" y="-140" type="line"/>
      <point x="197" y="-21"/>
      <point x="120" y="143"/>
      <point x="120" y="335" type="curve" smooth="yes"/>
      <point x="120" y="528"/>
      <point x="197" y="678"/>
      <point x="338" y="798" type="curve"/>
    </contour>
  </outline>
</glyph>
<glyph name="parenright" format="1">
  <advance width="402"/>
  <unicode hex="0029"/>
  <outline>
    <contour>
      <point x="282" y="335" type="curve" smooth="yes"/>
      <point x="282" y="143"/>
      <point x="205" y="-21"/>
      <point x="63" y="-140" type="curve"/>
      <point x="28" y="-112" type="line"/>
      <point x="165" y="12"/>
      <point x="211" y="183"/>
      <point x="211" y="335" type="curve" smooth="yes"/>
      <point x="211" y="488"/>
      <point x="165" y="645"/>
      <point x="28" y="771" type="curve"/>
      <point x="63" y="798" type="line"/>
      <point x="205" y="678"/>
      <point x="282" y="528"/>
    </contour>
  </outline>
</glyph>
<glyph name="asterisk" format="1">
  <advance width="466"/>
  <unicode hex="002A"/>
  <outline>
    <contour>
      <point x="227" y="546" type="line"/>
      <point x="334" y="591" type="line"/>
      <point x="344" y="581"/>
      <point x="353" y="545"/>
      <point x="352" y="528" type="curve"/>
      <point x="236" y="510" type="line"/>
      <point x="325" y="422" type="line"/>
      <point x="319" y="409"/>
      <point x="295" y="388"/>
      <point x="274" y="380" type="curve"/>
      <point x="207" y="487" type="line"/>
      <point x="148" y="378" type="line"/>
      <point x="133" y="381"/>
      <point x="105" y="398"/>
      <point x="93" y="416" type="curve"/>
      <point x="178" y="510" type="line"/>
      <point x="58" y="528" type="line"/>
      <point x="58" y="547"/>
      <point x="67" y="582"/>
      <point x="78" y="591" type="curve"/>
      <point x="189" y="547" type="line"/>
      <point x="171" y="671" type="line"/>
      <point x="183" y="677"/>
      <point x="216" y="681"/>
      <point x="237" y="675" type="curve"/>
    </contour>
  </outline>
</glyph>
<glyph name="plus" format="1">
  <advance width="561"/>
  <unicode hex="002B"/>
  <outline>
    <contour>
      <point x="306" y="569" type="line"/>
      <point x="306" y="362" type="line"/>
      <point x="508" y="362" type="line"/>
      <point x="508" y="311" type="line"/>
      <point x="306" y="311" type="line"/>
      <point x="306" y="104" type="line"/>
      <point x="255" y="104" type="line"/>
      <point x="255" y="311" type="line"/>
      <point x="53" y="311" type="line"/>
      <point x="53" y="362" type="line"/>
      <point x="255" y="362" type="line"/>
      <point x="255" y="569" type="line"/>
    </contour>
  </outline>
</glyph>
<glyph name="comma" format="1">
  <advance width="172"/>
  <unicode hex="002C"/>
  <outline>
    <contour>
      <point x="130" y="15" type="curve" smooth="yes"/>
      <point x="130" y="-35"/>
      <point x="102" y="-73"/>
      <point x="62" y="-101" type="curve"/>
      <point x="44" y="-86" type="line"/>
      <point x="68" y="-67"/>
      <point x="79" y="-50"/>
      <point x="79" y="-26" type="curve" smooth="yes"/>
      <point x="79" y="8"/>
      <point x="42" y="18"/>
      <point x="42" y="52" type="curve" smooth="yes"/>
      <point x="42" y="73"/>
      <point x="58" y="86"/>
      <point x="78" y="86" type="curve" smooth="yes"/>
      <point x="100" y="86"/>
      <point x="130" y="64"/>
    </contour>
  </outline>
</glyph>
<glyph name="hyphen" format="1">
  <advance width="410"/>
  <unicode hex="002D"/>
  <outline>
    <contour>
      <point x="363" y="281" type="line"/>
      <point x="363" y="333" type="line"/>
      <point x="47" y="333" type="line"/>
      <point x="47" y="281" type="line"/>
    </contour>
  </outline>
</glyph>
<glyph name="period" format="1">
  <advance width="174"/>
  <unicode hex="002E"/>
  <outline>
    <contour>
      <point x="86" y="-5" type="curve" smooth="yes"/>
      <point x="112" y="-5"/>
      <point x="132" y="15"/>
      <point x="132" y="40" type="curve" smooth="yes"/>
      <point x="132" y="65"/>
      <point x="112" y="85"/>
      <point x="86" y="85" type="curve" smooth="yes"/>
      <point x="61" y="85"/>
      <point x="42" y="65"/>
      <point x="42" y="40" type="curve" smooth="yes"/>
      <point x="42" y="15"/>
      <point x="61" y="-5"/>
    </contour>
  </outline>
</glyph>
<glyph name="slash" format="1">
  <advance width="467"/>
  <unicode hex="002F"/>
  <outline>
    <contour>
      <point x="289" y="693" type="line"/>
      <point x="108" y="-26" type="line"/>
      <point x="169" y="-26" type="line"/>
      <point x="351" y="693" type="line"/>
    </contour>
  </outline>
</glyph>
<glyph name="zero" format="1">
  <advance width="508"/>
  <unicode hex="0030"/>
  <outline>
    <contour>
      <point x="310" y="611" type="move" name="top"/>
    </contour>
    <contour>
      <point x="460" y="305" type="curve" smooth="yes"/>
      <point x="460" y="116"/>
      <point x="391" y="-12"/>
      <point x="253" y="-12" type="curve" smooth="yes"/>
      <point x="117" y="-12"/>
      <point x="48" y="116"/>
      <point x="48" y="305" type="curve" smooth="yes"/>
      <point x="48" y="494"/>
      <point x="117" y="625"/>
      <point x="253" y="625" type="curve" smooth="yes"/>
      <point x="391" y="625"/>
      <point x="460" y="494"/>
    </contour>
    <contour>
      <point x="125" y="305" type="curve" smooth="yes"/>
      <point x="128" y="134"/>
      <point x="166" y="30"/>
      <point x="258" y="30" type="curve" smooth="yes"/>
      <point x="350" y="30"/>
      <point x="386" y="135"/>
      <point x="383" y="306" type="curve" smooth="yes"/>
      <point x="380" y="478"/>
      <point x="341" y="583"/>
      <point x="249" y="583" type="curve" smooth="yes"/>
      <point x="157" y="583"/>
      <point x="122" y="477"/>
    </contour>
  </outline>
</glyph>
<glyph name="one" format="1">
  <advance width="316"/>
  <unicode hex="0031"/>
  <outline>
    <contour>
      <point x="195" y="15" type="line"/>
      <point x="172" y="61" type="line"/>
      <point x="208" y="42"/>
      <point x="236" y="31"/>
      <point x="282" y="29" type="curve"/>
      <point x="282" y="19"/>
      <point x="281" y="8"/>
      <point x="279" y="0" type="curve"/>
      <point x="35" y="0" type="line"/>
      <point x="34" y="9"/>
      <point x="35" y="21"/>
      <point x="38" y="29" type="curve"/>
      <point x="98" y="35"/>
      <point x="124" y="44"/>
      <point x="124" y="77" type="curve" smooth="yes"/>
      <point x="124" y="560" type="line"/>
      <point x="151" y="544" type="line"/>
      <point x="37" y="528" type="line"/>
      <point x="37" y="536"/>
      <point x="37" y="543"/>
      <point x="38" y="548" type="curve"/>
      <point x="87" y="576"/>
      <point x="131" y="601"/>
      <point x="179" y="623" type="curve"/>
      <point x="195" y="617" type="line"/>
    </contour>
  </outline>
</glyph>
<glyph name="two" format="1">
  <advance width="452"/>
  <unicode hex="0032"/>
  <outline>
    <contour>
      <point x="69" y="577" type="curve"/>
      <point x="65" y="543"/>
      <point x="64" y="499"/>
      <point x="64" y="464" type="curve"/>
      <point x="71" y="463"/>
      <point x="81" y="462"/>
      <point x="87" y="463" type="curve"/>
      <point x="105" y="529"/>
      <point x="150" y="557"/>
      <point x="204" y="557" type="curve" smooth="yes"/>
      <point x="262" y="557"/>
      <point x="307" y="515"/>
      <point x="307" y="448" type="curve" smooth="yes"/>
      <point x="307" y="378"/>
      <point x="277" y="318"/>
      <point x="34" y="52" type="curve"/>
      <point x="34" y="38"/>
      <point x="37" y="18"/>
      <point x="42" y="0" type="curve"/>
      <point x="381" y="0" type="line"/>
      <point x="392" y="48"/>
      <point x="396" y="109"/>
      <point x="396" y="154" type="curve"/>
      <point x="389" y="157"/>
      <point x="382" y="159"/>
      <point x="375" y="159" type="curve"/>
      <point x="364" y="86"/>
      <point x="342" y="61"/>
      <point x="275" y="61" type="curve" smooth="yes"/>
      <point x="71" y="61" type="line"/>
      <point x="73" y="40" type="line"/>
      <point x="320" y="299"/>
      <point x="387" y="350"/>
      <point x="387" y="458" type="curve" smooth="yes"/>
      <point x="387" y="552"/>
      <point x="316" y="624"/>
      <point x="221" y="624" type="curve" smooth="yes"/>
      <point x="164" y="624"/>
      <point x="112" y="605"/>
    </contour>
  </outline>
</glyph>
<glyph name="three" format="1">
  <advance width="452"/>
  <unicode hex="0033"/>
  <outline>
    <contour>
      <point x="378" y="481" type="curve" smooth="yes"/>
      <point x="378" y="401"/>
      <point x="310" y="330"/>
      <point x="222" y="311" type="curve"/>
      <point x="222" y="324" type="line"/>
      <point x="344" y="304"/>
      <point x="397" y="239"/>
      <point x="397" y="153" type="curve" smooth="yes"/>
      <point x="397" y="53"/>
      <point x="307" y="-13"/>
      <point x="201" y="-13" type="curve" smooth="yes"/>
      <point x="135" y="-13"/>
      <point x="88" y="9"/>
      <point x="39" y="51" type="curve"/>
      <point x="43" y="64"/>
      <point x="50" y="74"/>
      <point x="58" y="79" type="curve"/>
      <point x="91" y="54"/>
      <point x="132" y="38"/>
      <point x="183" y="38" type="curve" smooth="yes"/>
      <point x="267" y="38"/>
      <point x="323" y="82"/>
      <point x="323" y="156" type="curve" smooth="yes"/>
      <point x="323" y="241"/>
      <point x="263" y="285"/>
      <point x="156" y="293" type="curve"/>
      <point x="156" y="326" type="line"/>
      <point x="242" y="329"/>
      <point x="301" y="388"/>
      <point x="301" y="461" type="curve" smooth="yes"/>
      <point x="301" y="525"/>
      <point x="258" y="565"/>
      <point x="205" y="565" type="curve" smooth="yes"/>
      <point x="148" y="565"/>
      <point x="107" y="536"/>
      <point x="89" y="469" type="curve"/>
      <point x="82" y="469"/>
      <point x="72" y="469"/>
      <point x="66" y="471" type="curve"/>
      <point x="65" y="505"/>
      <point x="66" y="547"/>
      <point x="70" y="580" type="curve"/>
      <point x="116" y="607"/>
      <point x="165" y="624"/>
      <point x="225" y="624" type="curve" smooth="yes"/>
      <point x="311" y="624"/>
      <point x="378" y="566"/>
    </contour>
  </outline>
</glyph>
<glyph name="four" format="1">
  <advance width="477"/>
  <unicode hex="0034"/>
  <outline>
    <contour>
      <point x="309" y="525" type="line"/>
      <point x="72" y="193" type="line"/>
      <point x="64" y="212" type="line"/>
      <point x="288" y="212" type="line"/>
      <point x="288" y="528" type="line"/>
    </contour>
    <contour>
      <point x="355" y="212" type="line"/>
      <point x="444" y="212" type="line"/>
      <point x="449" y="195"/>
      <point x="450" y="185"/>
      <point x="448" y="168" type="curve"/>
      <point x="355" y="168" type="line"/>
      <point x="355" y="23" type="line"/>
      <point x="332" y="55" type="line"/>
      <point x="366" y="36"/>
      <point x="390" y="30"/>
      <point x="421" y="28" type="curve"/>
      <point x="421" y="19"/>
      <point x="420" y="8"/>
      <point x="417" y="0" type="curve"/>
      <point x="222" y="0" type="line"/>
      <point x="221" y="9"/>
      <point x="222" y="21"/>
      <point x="225" y="28" type="curve"/>
      <point x="271" y="34"/>
      <point x="288" y="44"/>
      <point x="288" y="77" type="curve"/>
      <point x="288" y="168" type="line"/>
      <point x="50" y="168" type="line"/>
      <point x="40" y="179"/>
      <point x="33" y="191"/>
      <point x="29" y="207" type="curve"/>
      <point x="316" y="618" type="line"/>
      <point x="355" y="618" type="line"/>
    </contour>
  </outline>
</glyph>
<glyph name="five" format="1">
  <advance width="482"/>
  <unicode hex="0035"/>
  <outline>
    <contour>
      <point x="259" y="389" type="curve" smooth="yes"/>
      <point x="211" y="389"/>
      <point x="167" y="372"/>
      <point x="126" y="337" type="curve"/>
      <point x="150" y="540" type="line"/>
      <point x="390" y="540" type="line"/>
      <point x="401" y="572"/>
      <point x="409" y="605"/>
      <point x="412" y="638" type="curve"/>
      <point x="405" y="640"/>
      <point x="397" y="641"/>
      <point x="391" y="641" type="curve"/>
      <point x="381" y="618"/>
      <point x="360" y="601"/>
      <point x="306" y="601" type="curve" smooth="yes"/>
      <point x="110" y="601" type="line"/>
      <point x="78" y="289" type="line"/>
      <point x="96" y="281" type="line"/>
      <point x="142" y="313"/>
      <point x="188" y="336"/>
      <point x="234" y="336" type="curve" smooth="yes"/>
      <point x="302" y="336"/>
      <point x="351" y="288"/>
      <point x="351" y="203" type="curve" smooth="yes"/>
      <point x="351" y="110"/>
      <point x="286" y="39"/>
      <point x="193" y="39" type="curve" smooth="yes"/>
      <point x="138" y="39"/>
      <point x="102" y="52"/>
      <point x="64" y="81" type="curve"/>
      <point x="54" y="73"/>
      <point x="48" y="63"/>
      <point x="44" y="51" type="curve"/>
      <point x="89" y="11"/>
      <point x="141" y="-12"/>
      <point x="203" y="-12" type="curve" smooth="yes"/>
      <point x="329" y="-12"/>
      <point x="426" y="97"/>
      <point x="426" y="212" type="curve" smooth="yes"/>
      <point x="426" y="330"/>
      <point x="336" y="389"/>
    </contour>
  </outline>
</glyph>
<glyph name="six" format="1">
  <advance width="473"/>
  <unicode hex="0036"/>
  <outline>
    <contour>
      <point x="428" y="205" type="curve" smooth="yes"/>
      <point x="431" y="78"/>
      <point x="328" y="-11"/>
      <point x="235" y="-11" type="curve" smooth="yes"/>
      <point x="132" y="-11"/>
      <point x="59" y="74"/>
      <point x="57" y="220" type="curve" smooth="yes"/>
      <point x="54" y="374"/>
      <point x="144" y="534"/>
      <point x="339" y="622" type="curve"/>
      <point x="356" y="610"/>
      <point x="360" y="601"/>
      <point x="361" y="592" type="curve"/>
      <point x="199" y="509"/>
      <point x="129" y="360"/>
      <point x="131" y="208" type="curve" smooth="yes"/>
      <point x="132" y="111"/>
      <point x="171" y="35"/>
      <point x="236" y="35" type="curve" smooth="yes"/>
      <point x="307" y="35"/>
      <point x="359" y="90"/>
      <point x="358" y="196" type="curve" smooth="yes"/>
      <point x="356" y="274"/>
      <point x="309" y="329"/>
      <point x="247" y="329" type="curve" smooth="yes"/>
      <point x="201" y="329"/>
      <point x="156" y="308"/>
      <point x="113" y="252" type="curve"/>
      <point x="126" y="302" type="line"/>
      <point x="161" y="350"/>
      <point x="218" y="381"/>
      <point x="269" y="381" type="curve" smooth="yes"/>
      <point x="358" y="381"/>
      <point x="427" y="310"/>
    </contour>
  </outline>
</glyph>
<glyph name="seven" format="1">
  <advance width="412"/>
  <unicode hex="0037"/>
  <outline>
    <contour>
      <point x="375" y="609" type="line"/>
      <point x="385" y="595"/>
      <point x="393" y="579"/>
      <point x="397" y="561" type="curve"/>
      <point x="166" y="0" type="line"/>
      <point x="146" y="-3"/>
      <point x="120" y="1"/>
      <point x="105" y="6" type="curve"/>
      <point x="297" y="444" type="line"/>
      <point x="355" y="561" type="line"/>
      <point x="362" y="547" type="line"/>
      <point x="147" y="547" type="line" smooth="yes"/>
      <point x="81" y="547"/>
      <point x="62" y="536"/>
      <point x="52" y="478" type="curve"/>
      <point x="47" y="478"/>
      <point x="39" y="479"/>
      <point x="32" y="483" type="curve"/>
      <point x="32" y="523"/>
      <point x="35" y="572"/>
      <point x="42" y="609" type="curve"/>
    </contour>
  </outline>
</glyph>
<glyph name="eight" format="1">
  <advance width="524"/>
  <unicode hex="0038"/>
  <outline>
    <contour>
      <point x="449" y="477" type="curve" smooth="yes"/>
      <point x="449" y="556"/>
      <point x="382" y="623"/>
      <point x="280" y="623" type="curve" smooth="yes"/>
      <point x="183" y="623"/>
      <point x="77" y="562"/>
      <point x="77" y="465" type="curve" smooth="yes"/>
      <point x="77" y="389"/>
      <point x="163" y="330"/>
      <point x="234" y="300" type="curve" smooth="yes"/>
      <point x="305" y="271"/>
      <point x="396" y="236"/>
      <point x="396" y="147" type="curve" smooth="yes"/>
      <point x="396" y="78"/>
      <point x="348" y="32"/>
      <point x="255" y="32" type="curve" smooth="yes"/>
      <point x="201" y="32"/>
      <point x="136" y="62"/>
      <point x="136" y="139" type="curve" smooth="yes"/>
      <point x="136" y="201"/>
      <point x="179" y="242"/>
      <point x="275" y="300" type="curve" smooth="yes"/>
      <point x="373" y="355"/>
      <point x="449" y="397"/>
    </contour>
    <contour>
      <point x="146" y="476" type="curve" smooth="yes"/>
      <point x="146" y="543"/>
      <point x="193" y="579"/>
      <point x="265" y="579" type="curve" smooth="yes"/>
      <point x="350" y="579"/>
      <point x="382" y="526"/>
      <point x="382" y="472" type="curve" smooth="yes"/>
      <point x="382" y="415"/>
      <point x="338" y="375"/>
      <point x="248" y="325" type="curve" smooth="yes"/>
      <point x="145" y="268"/>
      <point x="68" y="218"/>
      <point x="68" y="137" type="curve" smooth="yes"/>
      <point x="68" y="53"/>
      <point x="153" y="-11"/>
      <point x="249" y="-11" type="curve" smooth="yes"/>
      <point x="373" y="-11"/>
      <point x="461" y="71"/>
      <point x="461" y="153" type="curve" smooth="yes"/>
      <point x="461" y="253"/>
      <point x="367" y="306"/>
      <point x="293" y="336" type="curve" smooth="yes"/>
      <point x="227" y="363"/>
      <point x="146" y="407"/>
    </contour>
  </outline>
</glyph>
<glyph name="nine" format="1">
  <advance width="468"/>
  <unicode hex="0039"/>
  <outline>
    <contour>
      <point x="347" y="311" type="curve"/>
      <point x="360" y="360" type="line"/>
      <point x="309" y="294"/>
      <point x="264" y="283"/>
      <point x="217" y="283" type="curve" smooth="yes"/>
      <point x="150" y="283"/>
      <point x="116" y="346"/>
      <point x="115" y="416" type="curve" smooth="yes"/>
      <point x="113" y="523"/>
      <point x="164" y="577"/>
      <point x="235" y="577" type="curve" smooth="yes"/>
      <point x="300" y="577"/>
      <point x="339" y="501"/>
      <point x="341" y="405" type="curve" smooth="yes"/>
      <point x="345" y="253"/>
      <point x="276" y="104"/>
      <point x="114" y="21" type="curve"/>
      <point x="115" y="12"/>
      <point x="119" y="2"/>
      <point x="137" y="-10" type="curve"/>
      <point x="331" y="78"/>
      <point x="420" y="239"/>
      <point x="415" y="393" type="curve" smooth="yes"/>
      <point x="412" y="539"/>
      <point x="339" y="624"/>
      <point x="236" y="624" type="curve" smooth="yes"/>
      <point x="143" y="624"/>
      <point x="41" y="534"/>
      <point x="44" y="407" type="curve" smooth="yes"/>
      <point x="46" y="313"/>
      <point x="104" y="231"/>
      <point x="188" y="231" type="curve" smooth="yes"/>
      <point x="237" y="231"/>
      <point x="294" y="237"/>
    </contour>
  </outline>
</glyph>
<glyph name="colon" format="1">
  <advance width="268"/>
  <unicode hex="003A"/>
  <outline>
    <contour>
      <point x="183" y="99" type="curve" smooth="yes"/>
      <point x="183" y="72"/>
      <point x="161" y="51"/>
      <point x="133" y="51" type="curve" smooth="yes"/>
      <point x="106" y="51"/>
      <point x="85" y="72"/>
      <point x="85" y="99" type="curve" smooth="yes"/>
      <point x="85" y="126"/>
      <point x="106" y="148"/>
      <point x="133" y="148" type="curve" smooth="yes"/>
      <point x="161" y="148"/>
      <point x="183" y="126"/>
    </contour>
    <contour>
      <point x="183" y="458" type="curve" smooth="yes"/>
      <point x="183" y="430"/>
      <point x="161" y="409"/>
      <point x="133" y="409" type="curve" smooth="yes"/>
      <point x="106" y="409"/>
      <point x="85" y="430"/>
      <point x="85" y="458" type="curve" smooth="yes"/>
      <point x="85" y="485"/>
      <point x="106" y="507"/>
      <point x="133" y="507" type="curve" smooth="yes"/>
      <point x="161" y="507"/>
      <point x="183" y="485"/>
    </contour>
  </outline>
</glyph>
<glyph name="less" format="1">
  <advance width="450"/>
  <unicode hex="003C"/>
  <outline>
    <contour>
      <point x="30" y="296" type="line"/>
      <point x="408" y="93" type="line"/>
      <point x="408" y="152" type="line"/>
      <point x="86" y="322" type="line"/>
      <point x="408" y="492" type="line"/>
      <point x="408" y="550" type="line"/>
      <point x="30" y="348" type="line"/>
    </contour>
  </outline>
</glyph>
<glyph name="equal" format="1">
  <advance width="563"/>
  <unicode hex="003D"/>
  <outline>
    <contour>
      <point x="505" y="424" type="line"/>
      <point x="505" y="371" type="line"/>
      <point x="58" y="371" type="line"/>
      <point x="58" y="424" type="line"/>
    </contour>
    <contour>
      <point x="505" y="253" type="line"/>
      <point x="505" y="200" type="line"/>
      <point x="58" y="200" type="line"/>
      <point x="58" y="253" type="line"/>
    </contour>
  </outline>
</glyph>
<glyph name="greater" format="1">
  <advance width="450"/>
  <unicode hex="003E"/>
  <outline>
    <contour>
      <point x="42" y="550" type="line"/>
      <point x="42" y="492" type="line"/>
      <point x="365" y="322" type="line"/>
      <point x="42" y="152" type="line"/>
      <point x="42" y="93" type="line"/>
      <point x="420" y="296" type="line"/>
      <point x="420" y="348" type="line"/>
    </contour>
  </outline>
</glyph>
<glyph name="question" format="1">
  <advance width="468"/>
  <unicode hex="003F"/>
  <outline>
    <contour>
      <point x="56" y="619" type="curve"/>
      <point x="75" y="600" type="line"/>
      <point x="117" y="630"/>
      <point x="161" y="647"/>
      <point x="212" y="647" type="curve" smooth="yes"/>
      <point x="287" y="647"/>
      <point x="341" y="596"/>
      <point x="341" y="525" type="curve" smooth="yes"/>
      <point x="341" y="468"/>
      <point x="318" y="431"/>
      <point x="266" y="386" type="curve" smooth="yes"/>
      <point x="206" y="334" type="line" smooth="yes"/>
      <point x="162" y="297"/>
      <point x="158" y="276"/>
      <point x="166" y="218" type="curve" smooth="yes"/>
      <point x="177" y="127" type="line"/>
      <point x="205" y="127" type="line"/>
      <point x="205" y="222" type="line" smooth="yes"/>
      <point x="205" y="265"/>
      <point x="212" y="279"/>
      <point x="245" y="303" type="curve" smooth="yes"/>
      <point x="315" y="352" type="line" smooth="yes"/>
      <point x="383" y="399"/>
      <point x="417" y="450"/>
      <point x="417" y="528" type="curve" smooth="yes"/>
      <point x="417" y="631"/>
      <point x="335" y="705"/>
      <point x="238" y="705" type="curve" smooth="yes"/>
      <point x="165" y="705"/>
      <point x="110" y="676"/>
    </contour>
    <contour>
      <point x="146" y="33" type="curve" smooth="yes"/>
      <point x="146" y="7"/>
      <point x="166" y="-14"/>
      <point x="193" y="-14" type="curve" smooth="yes"/>
      <point x="220" y="-14"/>
      <point x="241" y="7"/>
      <point x="241" y="33" type="curve" smooth="yes"/>
      <point x="241" y="60"/>
      <point x="220" y="81"/>
      <point x="193" y="81" type="curve" smooth="yes"/>
      <point x="166" y="81"/>
      <point x="146" y="60"/>
    </contour>
  </outline>
</glyph>
<glyph name="at" format="1">
  <advance width="911"/>
  <unicode hex="0040"/>
  <outline>
    <contour>
      <point x="860" y="277" type="curve" smooth="yes"/>
      <point x="853" y="102"/>
      <point x="712" y="-12"/>
      <point x="598" y="-12" type="curve" smooth="yes"/>
      <point x="545" y="-12"/>
      <point x="517" y="19"/>
      <point x="524" y="78" type="curve" smooth="yes"/>
      <point x="546" y="279" type="line" smooth="yes"/>
      <point x="552" y="333"/>
      <point x="535" y="369"/>
      <point x="484" y="369" type="curve" smooth="yes"/>
      <point x="418" y="369"/>
      <point x="357" y="306"/>
      <point x="339" y="193" type="curve" smooth="yes"/>
      <point x="321" y="80"/>
      <point x="362" y="36"/>
      <point x="409" y="36" type="curve" smooth="yes"/>
      <point x="465" y="36"/>
      <point x="512" y="94"/>
      <point x="545" y="173" type="curve"/>
      <point x="551" y="129" type="line"/>
      <point x="528" y="50"/>
      <point x="462" y="-12"/>
      <point x="389" y="-12" type="curve" smooth="yes"/>
      <point x="302" y="-12"/>
      <point x="243" y="66"/>
      <point x="264" y="189" type="curve" smooth="yes"/>
      <point x="285" y="316"/>
      <point x="382" y="414"/>
      <point x="493" y="414" type="curve" smooth="yes"/>
      <point x="583" y="414"/>
      <point x="629" y="358"/>
      <point x="619" y="273" type="curve" smooth="yes"/>
      <point x="597" y="74" type="line" smooth="yes"/>
      <point x="593" y="46"/>
      <point x="596" y="31"/>
      <point x="620" y="31" type="curve" smooth="yes"/>
      <point x="683" y="31"/>
      <point x="783" y="109"/>
      <point x="790" y="262" type="curve" smooth="yes"/>
      <point x="797" y="425"/>
      <point x="694" y="540"/>
      <point x="522" y="540" type="curve" smooth="yes"/>
      <point x="283" y="540"/>
      <point x="131" y="355"/>
      <point x="122" y="139" type="curve" smooth="yes"/>
      <point x="113" y="-53"/>
      <point x="229" y="-131"/>
      <point x="361" y="-131" type="curve" smooth="yes"/>
      <point x="430" y="-131"/>
      <point x="488" y="-122"/>
      <point x="551" y="-103" type="curve"/>
      <point x="557" y="-111"/>
      <point x="561" y="-123"/>
      <point x="560" y="-136" type="curve"/>
      <point x="494" y="-164"/>
      <point x="430" y="-180"/>
      <point x="347" y="-180" type="curve" smooth="yes"/>
      <point x="186" y="-180"/>
      <point x="42" y="-82"/>
      <point x="51" y="129" type="curve" smooth="yes"/>
      <point x="61" y="383"/>
      <point x="269" y="588"/>
      <point x="533" y="588" type="curve" smooth="yes"/>
      <point x="725" y="588"/>
      <point x="868" y="461"/>
    </contour>
  </outline>
</glyph>
<glyph name="A" format="1">
  <advance width="574"/>
  <unicode hex="0041"/>
  <outline>
    <contour>
      <point x="286" y="611" type="move" name="top"/>
    </contour>
    <contour>
      <point x="572" y="0" type="move" name="ogonek"/>
    </contour>
    <contour>
      <point x="495" y="85" type="line"/>
      <point x="507" y="45"/>
      <point x="532" y="32"/>
      <point x="577" y="29" type="curve"/>
      <point x="576" y="19"/>
      <point x="575" y="9"/>
      <point x="572" y="0" type="curve"/>
      <point x="358" y="0" type="line"/>
      <point x="358" y="10"/>
      <point x="359" y="20"/>
      <point x="362" y="29" type="curve"/>
      <point x="398" y="35"/>
      <point x="430" y="43"/>
      <point x="452" y="67" type="curve"/>
      <point x="438" y="33" type="line"/>
      <point x="256" y="592" type="line"/>
      <point x="279" y="586" type="line"/>
      <point x="260" y="506" type="line"/>
      <point x="102" y="19" type="line"/>
      <point x="86" y="60" type="line"/>
      <point x="115" y="37"/>
      <point x="150" y="30"/>
      <point x="185" y="29" type="curve"/>
      <point x="185" y="19"/>
      <point x="183" y="9"/>
      <point x="181" y="0" type="curve"/>
      <point x="-3" y="0" type="line"/>
      <point x="-3" y="10"/>
      <point x="-1" y="21"/>
      <point x="1" y="29" type="curve"/>
      <point x="48" y="36"/>
      <point x="66" y="56"/>
      <point x="76" y="84" type="curve" smooth="yes"/>
      <point x="254" y="615" type="line"/>
      <point x="270" y="621"/>
      <point x="297" y="624"/>
      <point x="319" y="624" type="curve"/>
    </contour>
    <contour>
      <point x="392" y="206" type="line"/>
      <point x="159" y="206" type="line"/>
      <point x="159" y="242" type="line"/>
      <point x="392" y="242" type="line"/>
    </contour>
  </outline>
</glyph>
<glyph name="B" format="1">
  <advance width="557"/>
  <unicode hex="0042"/>
  <outline>
    <contour>
      <point x="471" y="453" type="curve" smooth="yes"/>
      <point x="471" y="376"/>
      <point x="416" y="326"/>
      <point x="346" y="310" type="curve"/>
      <point x="338" y="324" type="line"/>
      <point x="444" y="320"/>
      <point x="499" y="245"/>
      <point x="499" y="165" type="curve" smooth="yes"/>
      <point x="499" y="80"/>
      <point x="434" y="0"/>
      <point x="281" y="0" type="curve" smooth="yes"/>
      <point x="34" y="0" type="line"/>
      <point x="34" y="9"/>
      <point x="34" y="21"/>
      <point x="37" y="29" type="curve"/>
      <point x="82" y="35"/>
      <point x="100" y="44"/>
      <point x="100" y="77" type="curve" smooth="yes"/>
      <point x="100" y="579" type="line"/>
      <point x="106" y="566" type="line"/>
      <point x="81" y="578"/>
      <point x="57" y="582"/>
      <point x="32" y="583" type="curve"/>
      <point x="32" y="592"/>
      <point x="33" y="605"/>
      <point x="35" y="611" type="curve"/>
      <point x="255" y="611" type="line" smooth="yes"/>
      <point x="417" y="611"/>
      <point x="471" y="535"/>
    </contour>
    <contour>
      <point x="161" y="578" type="line"/>
      <point x="171" y="589" type="line"/>
      <point x="171" y="24" type="line"/>
      <point x="158" y="35" type="line"/>
      <point x="279" y="35" type="line" smooth="yes"/>
      <point x="380" y="35"/>
      <point x="420" y="93"/>
      <point x="420" y="165" type="curve" smooth="yes"/>
      <point x="420" y="237"/>
      <point x="380" y="296"/>
      <point x="279" y="296" type="curve" smooth="yes"/>
      <point x="148" y="296" type="line"/>
      <point x="148" y="331" type="line"/>
      <point x="302" y="330" type="line"/>
      <point x="359" y="349"/>
      <point x="393" y="389"/>
      <point x="393" y="453" type="curve" smooth="yes"/>
      <point x="393" y="523"/>
      <point x="355" y="578"/>
      <point x="255" y="578" type="curve" smooth="yes"/>
    </contour>
  </outline>
</glyph>
<glyph name="D" format="1">
  <advance width="590"/>
  <unicode hex="0044"/>
  <outline>
    <contour>
      <point x="292" y="610" type="move" name="top"/>
    </contour>
    <contour>
      <point x="258" y="611" type="line"/>
      <point x="439" y="611"/>
      <point x="567" y="503"/>
      <point x="567" y="307" type="curve" smooth="yes"/>
      <point x="567" y="109"/>
      <point x="441" y="0"/>
      <point x="262" y="0" type="curve" smooth="yes"/>
      <point x="35" y="0" type="line"/>
      <point x="34" y="9"/>
      <point x="35" y="21"/>
      <point x="38" y="29" type="curve"/>
      <point x="83" y="35"/>
      <point x="101" y="44"/>
      <point x="101" y="77" type="curve" smooth="yes"/>
      <point x="101" y="576" type="line"/>
      <point x="105" y="567" type="line"/>
      <point x="81" y="578"/>
      <point x="57" y="582"/>
      <point x="32" y="583" type="curve"/>
      <point x="32" y="592"/>
      <point x="33" y="605"/>
      <point x="35" y="611" type="curve"/>
    </contour>
    <contour>
      <point x="172" y="578" type="line"/>
      <point x="172" y="35" type="line"/>
      <point x="254" y="35" type="line" smooth="yes"/>
      <point x="408" y="35"/>
      <point x="486" y="143"/>
      <point x="486" y="307" type="curve" smooth="yes"/>
      <point x="486" y="468"/>
      <point x="408" y="578"/>
      <point x="252" y="578" type="curve" smooth="yes"/>
    </contour>
  </outline>
</glyph>
<glyph name="E" format="1">
  <advance width="518"/>
  <unicode hex="0045"/>
  <outline>
    <contour>
      <point x="274" y="611" type="move" name="top"/>
    </contour>
    <contour>
      <point x="468" y="0" type="move" name="ogonek"/>
    </contour>
    <contour>
      <point x="268" y="0" type="move" name="bottom"/>
    </contour>
    <contour>
      <point x="368" y="288" type="line"/>
      <point x="338" y="288" type="line"/>
      <point x="151" y="293" type="line"/>
      <point x="151" y="328" type="line"/>
      <point x="338" y="336" type="line"/>
      <point x="368" y="336" type="line"/>
    </contour>
    <contour>
      <point x="449" y="478" type="curve"/>
      <point x="443" y="476"/>
      <point x="429" y="476"/>
      <point x="421" y="476" type="curve"/>
      <point x="415" y="545"/>
      <point x="402" y="578"/>
      <point x="333" y="578" type="curve" smooth="yes"/>
      <point x="154" y="578" type="line"/>
      <point x="174" y="594" type="line"/>
      <point x="174" y="18" type="line"/>
      <point x="153" y="35" type="line"/>
      <point x="347" y="35" type="line" smooth="yes"/>
      <point x="416" y="35"/>
      <point x="429" y="68"/>
      <point x="436" y="138" type="curve"/>
      <point x="445" y="138"/>
      <point x="459" y="138"/>
      <point x="466" y="136" type="curve"/>
      <point x="469" y="91"/>
      <point x="470" y="46"/>
      <point x="468" y="0" type="curve"/>
      <point x="36" y="0" type="line"/>
      <point x="35" y="9"/>
      <point x="36" y="21"/>
      <point x="39" y="29" type="curve"/>
      <point x="85" y="35"/>
      <point x="102" y="44"/>
      <point x="102" y="77" type="curve" smooth="yes"/>
      <point x="102" y="583" type="line"/>
      <point x="107" y="566" type="line"/>
      <point x="84" y="578"/>
      <point x="58" y="582"/>
      <point x="33" y="583" type="curve"/>
      <point x="33" y="592"/>
      <point x="34" y="605"/>
      <point x="36" y="611" type="curve"/>
      <point x="453" y="611" type="line"/>
      <point x="455" y="567"/>
      <point x="454" y="521"/>
    </contour>
  </outline>
</glyph>
<glyph name="F" format="1">
  <advance width="488"/>
  <unicode hex="0046"/>
  <outline>
    <contour>
      <point x="360" y="268" type="line"/>
      <point x="326" y="268" type="line"/>
      <point x="151" y="273" type="line"/>
      <point x="151" y="308" type="line"/>
      <point x="326" y="316" type="line"/>
      <point x="360" y="316" type="line"/>
    </contour>
    <contour>
      <point x="102" y="583" type="line"/>
      <point x="107" y="566" type="line"/>
      <point x="84" y="578"/>
      <point x="59" y="582"/>
      <point x="33" y="583" type="curve"/>
      <point x="33" y="592"/>
      <point x="34" y="605"/>
      <point x="36" y="611" type="curve"/>
      <point x="453" y="611" type="line"/>
      <point x="455" y="567"/>
      <point x="454" y="521"/>
      <point x="449" y="478" type="curve"/>
      <point x="443" y="476"/>
      <point x="429" y="476"/>
      <point x="421" y="476" type="curve"/>
      <point x="415" y="545"/>
      <point x="402" y="578"/>
      <point x="334" y="578" type="curve" smooth="yes"/>
      <point x="163" y="578" type="line"/>
      <point x="174" y="586" type="line"/>
      <point x="174" y="25" type="line"/>
      <point x="168" y="54" type="line"/>
      <point x="205" y="40"/>
      <point x="238" y="35"/>
      <point x="275" y="30" type="curve"/>
      <point x="275" y="20"/>
      <point x="274" y="8"/>
      <point x="272" y="0" type="curve"/>
      <point x="34" y="0" type="line"/>
      <point x="33" y="9"/>
      <point x="34" y="22"/>
      <point x="36" y="30" type="curve"/>
      <point x="84" y="36"/>
      <point x="102" y="46"/>
      <point x="102" y="80" type="curve" smooth="yes"/>
    </contour>
  </outline>
</glyph>
<glyph name="G" format="1">
  <advance width="622"/>
  <unicode hex="0047"/>
  <outline>
    <contour>
      <point x="339" y="611" type="move" name="top"/>
    </contour>
    <contour>
      <point x="329" y="0" type="move" name="bottom"/>
    </contour>
    <contour>
      <point x="535" y="594" type="curve"/>
      <point x="534" y="559"/>
      <point x="528" y="509"/>
      <point x="519" y="469" type="curve"/>
      <point x="514" y="469"/>
      <point x="503" y="469"/>
      <point x="497" y="470" type="curve"/>
      <point x="493" y="542"/>
      <point x="438" y="578"/>
      <point x="371" y="578" type="curve" smooth="yes"/>
      <point x="221" y="578"/>
      <point x="136" y="471"/>
      <point x="136" y="303" type="curve" smooth="yes"/>
      <point x="136" y="126"/>
      <point x="224" y="37"/>
      <point x="339" y="37" type="curve" smooth="yes"/>
      <point x="389" y="37"/>
      <point x="440" y="53"/>
      <point x="477" y="76" type="curve"/>
      <point x="469" y="59" type="line"/>
      <point x="469" y="275" type="line"/>
      <point x="494" y="246" type="line"/>
      <point x="457" y="264"/>
      <point x="431" y="271"/>
      <point x="397" y="273" type="curve"/>
      <point x="397" y="282"/>
      <point x="398" y="295"/>
      <point x="400" y="304" type="curve"/>
      <point x="602" y="304" type="line"/>
      <point x="603" y="294"/>
      <point x="602" y="281"/>
      <point x="599" y="273" type="curve"/>
      <point x="555" y="266"/>
      <point x="536" y="258"/>
      <point x="536" y="225" type="curve" smooth="yes"/>
      <point x="536" y="0" type="line"/>
      <point x="499" y="0" type="line"/>
      <point x="476" y="43" type="line"/>
      <point x="494" y="47" type="line"/>
      <point x="452" y="13"/>
      <point x="388" y="-12"/>
      <point x="325" y="-12" type="curve" smooth="yes"/>
      <point x="184" y="-12"/>
      <point x="55" y="98"/>
      <point x="55" y="300" type="curve" smooth="yes"/>
      <point x="55" y="493"/>
      <point x="199" y="625"/>
      <point x="370" y="625" type="curve" smooth="yes"/>
      <point x="434" y="625"/>
      <point x="491" y="611"/>
    </contour>
  </outline>
</glyph>
<glyph name="I" format="1">
  <advance width="275"/>
  <unicode hex="0049"/>
  <outline>
    <contour>
      <point x="138" y="611" type="move" name="top"/>
    </contour>
    <contour>
      <point x="238" y="0" type="move" name="ogonek"/>
    </contour>
    <contour>
      <point x="174" y="15" type="line"/>
      <point x="151" y="55" type="line"/>
      <point x="185" y="36"/>
      <point x="211" y="30"/>
      <point x="241" y="29" type="curve"/>
      <point x="242" y="19"/>
      <point x="240" y="8"/>
      <point x="238" y="0" type="curve"/>
      <point x="36" y="0" type="line"/>
      <point x="35" y="9"/>
      <point x="36" y="21"/>
      <point x="39" y="29" type="curve"/>
      <point x="85" y="35"/>
      <point x="102" y="44"/>
      <point x="102" y="77" type="curve" smooth="yes"/>
      <point x="102" y="584" type="line"/>
      <point x="123" y="558" type="line"/>
      <point x="90" y="575"/>
      <point x="64" y="581"/>
      <point x="33" y="583" type="curve"/>
      <point x="33" y="592"/>
      <point x="34" y="605"/>
      <point x="36" y="611" type="curve"/>
      <point x="239" y="611" type="line"/>
      <point x="239" y="604"/>
      <point x="239" y="591"/>
      <point x="236" y="583" type="curve"/>
      <point x="192" y="578"/>
      <point x="174" y="569"/>
      <point x="174" y="536" type="curve" smooth="yes"/>
    </contour>
  </outline>
</glyph>
<glyph name="J" format="1">
  <advance width="265"/>
  <unicode hex="004A"/>
  <outline>
    <contour>
      <point x="174" y="1" type="line"/>
      <point x="174" y="-123"/>
      <point x="115" y="-185"/>
      <point x="7" y="-219" type="curve"/>
      <point x="3" y="-213"/>
      <point x="-3" y="-205"/>
      <point x="-6" y="-199" type="curve"/>
      <point x="91" y="-146"/>
      <point x="102" y="-83"/>
      <point x="102" y="-1" type="curve" smooth="yes"/>
      <point x="102" y="584" type="line"/>
      <point x="123" y="558" type="line"/>
      <point x="90" y="575"/>
      <point x="64" y="581"/>
      <point x="33" y="583" type="curve"/>
      <point x="33" y="592"/>
      <point x="34" y="605"/>
      <point x="36" y="611" type="curve"/>
      <point x="239" y="611" type="line"/>
      <point x="239" y="604"/>
      <point x="239" y="591"/>
      <point x="236" y="583" type="curve"/>
      <point x="192" y="578"/>
      <point x="174" y="569"/>
      <point x="174" y="536" type="curve" smooth="yes"/>
    </contour>
  </outline>
</glyph>
<glyph name="K" format="1">
  <advance width="597"/>
  <unicode hex="004B"/>
  <outline>
    <contour>
      <point x="304" y="611" type="move" name="top"/>
    </contour>
    <contour>
      <point x="304" y="0" type="move" name="bottom"/>
    </contour>
    <contour>
      <point x="236" y="583" type="curve"/>
      <point x="192" y="578"/>
      <point x="174" y="569"/>
      <point x="174" y="536" type="curve" smooth="yes"/>
      <point x="174" y="15" type="line"/>
      <point x="151" y="55" type="line"/>
      <point x="185" y="36"/>
      <point x="211" y="30"/>
      <point x="241" y="29" type="curve"/>
      <point x="242" y="19"/>
      <point x="240" y="8"/>
      <point x="238" y="0" type="curve"/>
      <point x="36" y="0" type="line"/>
      <point x="35" y="9"/>
      <point x="36" y="21"/>
      <point x="39" y="29" type="curve"/>
      <point x="85" y="35"/>
      <point x="102" y="44"/>
      <point x="102" y="77" type="curve" smooth="yes"/>
      <point x="102" y="584" type="line"/>
      <point x="123" y="558" type="line"/>
      <point x="90" y="575"/>
      <point x="64" y="581"/>
      <point x="33" y="583" type="curve"/>
      <point x="33" y="592"/>
      <point x="34" y="605"/>
      <point x="36" y="611" type="curve"/>
      <point x="239" y="611" type="line"/>
      <point x="239" y="604"/>
      <point x="239" y="591"/>
    </contour>
    <contour>
      <point x="550" y="583" type="curve"/>
      <point x="507" y="583"/>
      <point x="480" y="572"/>
      <point x="453" y="544" type="curve" smooth="yes"/>
      <point x="154" y="239" type="line"/>
      <point x="116" y="255" type="line"/>
      <point x="420" y="571" type="line"/>
      <point x="428" y="560" type="line"/>
      <point x="404" y="577"/>
      <point x="378" y="582"/>
      <point x="351" y="583" type="curve"/>
      <point x="350" y="592"/>
      <point x="351" y="604"/>
      <point x="355" y="611" type="curve"/>
      <point x="553" y="611" type="line"/>
      <point x="553" y="601"/>
      <point x="553" y="592"/>
    </contour>
    <contour>
      <point x="555" y="30" type="curve"/>
      <point x="555" y="21"/>
      <point x="554" y="10"/>
      <point x="550" y="0" type="curve"/>
      <point x="430" y="0" type="line"/>
      <point x="233" y="268" type="line" smooth="yes"/>
      <point x="222" y="283"/>
      <point x="213" y="288"/>
      <point x="194" y="288" type="curve"/>
      <point x="237" y="337" type="line"/>
      <point x="268" y="336"/>
      <point x="284" y="324"/>
      <point x="302" y="299" type="curve" smooth="yes"/>
      <point x="455" y="87" type="line" smooth="yes"/>
      <point x="488" y="42"/>
      <point x="510" y="33"/>
    </contour>
  </outline>
</glyph>
<glyph name="M" format="1">
  <advance width="808"/>
  <unicode hex="004D"/>
  <outline>
    <contour>
      <point x="219" y="611" type="line"/>
      <point x="410" y="85" type="line"/>
      <point x="381" y="81" type="line"/>
      <point x="592" y="611" type="line"/>
      <point x="723" y="611" type="line"/>
      <point x="725" y="603"/>
      <point x="727" y="593"/>
      <point x="726" y="582" type="curve"/>
      <point x="695" y="579"/>
      <point x="676" y="567"/>
      <point x="678" y="531" type="curve" smooth="yes"/>
      <point x="716" y="31" type="line"/>
      <point x="692" y="54" type="line"/>
      <point x="728" y="36"/>
      <point x="755" y="30"/>
      <point x="787" y="29" type="curve"/>
      <point x="788" y="20"/>
      <point x="788" y="9"/>
      <point x="786" y="0" type="curve"/>
      <point x="577" y="0" type="line"/>
      <point x="576" y="10"/>
      <point x="576" y="21"/>
      <point x="577" y="29" type="curve"/>
      <point x="622" y="35"/>
      <point x="644" y="43"/>
      <point x="642" y="77" type="curve" smooth="yes"/>
      <point x="607" y="594" type="line"/>
      <point x="624" y="572" type="line"/>
      <point x="579" y="454" type="line"/>
      <point x="399" y="0" type="line"/>
      <point x="375" y="0" type="line"/>
      <point x="206" y="464" type="line"/>
      <point x="166" y="577" type="line"/>
      <point x="178" y="577" type="line"/>
      <point x="135" y="24" type="line"/>
      <point x="114" y="55" type="line"/>
      <point x="143" y="36"/>
      <point x="179" y="30"/>
      <point x="211" y="29" type="curve"/>
      <point x="211" y="20"/>
      <point x="209" y="9"/>
      <point x="207" y="0" type="curve"/>
      <point x="15" y="0" type="line"/>
      <point x="15" y="10"/>
      <point x="17" y="21"/>
      <point x="19" y="29" type="curve"/>
      <point x="64" y="35"/>
      <point x="91" y="50"/>
      <point x="93" y="82" type="curve" smooth="yes"/>
      <point x="131" y="570" type="line"/>
      <point x="113" y="576"/>
      <point x="103" y="579"/>
      <point x="81" y="582" type="curve"/>
      <point x="79" y="592"/>
      <point x="80" y="603"/>
      <point x="82" y="611" type="curve"/>
    </contour>
  </outline>
</glyph>
<glyph name="N" format="1">
  <advance width="659"/>
  <unicode hex="004E"/>
  <outline>
    <contour>
      <point x="344" y="611" type="move" name="top"/>
    </contour>
    <contour>
      <point x="342" y="0" type="move" name="bottom"/>
    </contour>
    <contour>
      <point x="437" y="252" type="line"/>
      <point x="541" y="96" type="line"/>
      <point x="517" y="76" type="line"/>
      <point x="517" y="583" type="line"/>
      <point x="522" y="565" type="line"/>
      <point x="498" y="578"/>
      <point x="467" y="581"/>
      <point x="441" y="583" type="curve"/>
      <point x="440" y="592"/>
      <point x="442" y="605"/>
      <point x="444" y="611" type="curve"/>
      <point x="634" y="611" type="line"/>
      <point x="634" y="604"/>
      <point x="634" y="591"/>
      <point x="631" y="583" type="curve"/>
      <point x="585" y="578"/>
      <point x="562" y="561"/>
      <point x="562" y="529" type="curve" smooth="yes"/>
      <point x="562" y="0" type="line"/>
      <point x="530" y="0" type="line"/>
      <point x="203" y="459" type="line"/>
      <point x="135" y="562" type="line"/>
      <point x="153" y="569" type="line"/>
      <point x="153" y="25" type="line"/>
      <point x="147" y="47" type="line"/>
      <point x="171" y="35"/>
      <point x="203" y="30"/>
      <point x="228" y="29" type="curve"/>
      <point x="229" y="19"/>
      <point x="227" y="8"/>
      <point x="225" y="0" type="curve"/>
      <point x="37" y="0" type="line"/>
      <point x="36" y="9"/>
      <point x="37" y="21"/>
      <point x="39" y="29" type="curve"/>
      <point x="85" y="35"/>
      <point x="108" y="50"/>
      <point x="108" y="82" type="curve" smooth="yes"/>
      <point x="108" y="581" type="line"/>
      <point x="117" y="565" type="line"/>
      <point x="93" y="578"/>
      <point x="68" y="582"/>
      <point x="40" y="583" type="curve"/>
      <point x="40" y="593"/>
      <point x="41" y="604"/>
      <point x="43" y="611" type="curve"/>
      <point x="180" y="611" type="line"/>
    </contour>
  </outline>
</glyph>
<glyph name="O" format="1">
  <advance width="660"/>
  <unicode hex="004F"/>
  <outline>
    <contour>
      <point x="330" y="611" type="move" name="top"/>
    </contour>
    <contour>
      <point x="330" y="-13" type="curve" smooth="yes"/>
      <point x="160" y="-13"/>
      <point x="56" y="119"/>
      <point x="56" y="304" type="curve" smooth="yes"/>
      <point x="56" y="489"/>
      <point x="159" y="625"/>
      <point x="329" y="625" type="curve" smooth="yes"/>
      <point x="498" y="625"/>
      <point x="605" y="489"/>
      <point x="605" y="304" type="curve" smooth="yes"/>
      <point x="605" y="119"/>
      <point x="498" y="-13"/>
    </contour>
    <contour>
      <point x="522" y="305" type="curve" smooth="yes"/>
      <point x="518" y="496"/>
      <point x="437" y="584"/>
      <point x="322" y="584" type="curve" smooth="yes"/>
      <point x="205" y="584"/>
      <point x="133" y="473"/>
      <point x="138" y="304" type="curve" smooth="yes"/>
      <point x="141" y="105"/>
      <point x="221" y="27"/>
      <point x="337" y="27" type="curve" smooth="yes"/>
      <point x="454" y="27"/>
      <point x="526" y="127"/>
    </contour>
  </outline>
</glyph>
<glyph name="P" format="1">
  <advance width="519"/>
  <unicode hex="0050"/>
  <outline>
    <contour>
      <point x="495" y="435" type="curve" smooth="yes"/>
      <point x="495" y="343"/>
      <point x="413" y="260"/>
      <point x="280" y="260" type="curve" smooth="yes"/>
      <point x="156" y="260" type="line"/>
      <point x="152" y="269"/>
      <point x="151" y="283"/>
      <point x="151" y="295" type="curve"/>
      <point x="263" y="295" type="line" smooth="yes"/>
      <point x="366" y="295"/>
      <point x="413" y="358"/>
      <point x="413" y="435" type="curve" smooth="yes"/>
      <point x="413" y="515"/>
      <point x="367" y="578"/>
      <point x="263" y="578" type="curve" smooth="yes"/>
      <point x="161" y="578" type="line"/>
      <point x="172" y="585" type="line"/>
      <point x="172" y="30" type="line"/>
      <point x="165" y="52" type="line"/>
      <point x="198" y="38"/>
      <point x="234" y="31"/>
      <point x="270" y="29" type="curve"/>
      <point x="271" y="19"/>
      <point x="269" y="8"/>
      <point x="267" y="0" type="curve"/>
      <point x="35" y="0" type="line"/>
      <point x="34" y="9"/>
      <point x="35" y="21"/>
      <point x="38" y="29" type="curve"/>
      <point x="83" y="35"/>
      <point x="101" y="44"/>
      <point x="101" y="77" type="curve" smooth="yes"/>
      <point x="101" y="582" type="line"/>
      <point x="122" y="558" type="line"/>
      <point x="89" y="574"/>
      <point x="62" y="582"/>
      <point x="32" y="583" type="curve"/>
      <point x="32" y="592"/>
      <point x="33" y="605"/>
      <point x="35" y="611" type="curve"/>
      <point x="279" y="611" type="line" smooth="yes"/>
      <point x="413" y="611"/>
      <point x="495" y="529"/>
    </contour>
  </outline>
</glyph>
<glyph name="Q" format="1">
  <advance width="660"/>
  <unicode hex="0051"/>
  <outline>
    <contour>
      <point x="367" y="-3" type="line"/>
      <point x="378" y="-56"/>
      <point x="403" y="-105"/>
      <point x="445" y="-105" type="curve" smooth="yes"/>
      <point x="470" y="-105"/>
      <point x="509" y="-97"/>
      <point x="540" y="-86" type="curve"/>
      <point x="552" y="-107" type="line"/>
      <point x="516" y="-133"/>
      <point x="472" y="-152"/>
      <point x="426" y="-152" type="curve" smooth="yes"/>
      <point x="363" y="-152"/>
      <point x="310" y="-80"/>
      <point x="295" y="-6" type="curve"/>
    </contour>
    <component base="O"/>
  </outline>
</glyph>
<glyph name="R" format="1">
  <advance width="566"/>
  <unicode hex="0052"/>
  <outline>
    <contour>
      <point x="296" y="610" type="move" name="top"/>
    </contour>
    <contour>
      <point x="304" y="0" type="move" name="bottom"/>
    </contour>
    <contour>
      <point x="470" y="448" type="curve" smooth="yes"/>
      <point x="470" y="353"/>
      <point x="405" y="285"/>
      <point x="272" y="285" type="curve" smooth="yes"/>
      <point x="150" y="285" type="line"/>
      <point x="147" y="294"/>
      <point x="145" y="308"/>
      <point x="145" y="320" type="curve"/>
      <point x="255" y="320" type="line" smooth="yes"/>
      <point x="354" y="320"/>
      <point x="391" y="372"/>
      <point x="391" y="448" type="curve" smooth="yes"/>
      <point x="391" y="524"/>
      <point x="354" y="578"/>
      <point x="255" y="578" type="curve" smooth="yes"/>
      <point x="160" y="578" type="line"/>
      <point x="174" y="585" type="line"/>
      <point x="174" y="25" type="line"/>
      <point x="166" y="52" type="line"/>
      <point x="195" y="39"/>
      <point x="222" y="31"/>
      <point x="255" y="29" type="curve"/>
      <point x="256" y="19"/>
      <point x="255" y="8"/>
      <point x="253" y="0" type="curve"/>
      <point x="36" y="0" type="line"/>
      <point x="35" y="9"/>
      <point x="36" y="21"/>
      <point x="39" y="29" type="curve"/>
      <point x="85" y="35"/>
      <point x="102" y="44"/>
      <point x="102" y="77" type="curve" smooth="yes"/>
      <point x="102" y="579" type="line"/>
      <point x="122" y="558" type="line"/>
      <point x="90" y="574"/>
      <point x="64" y="582"/>
      <point x="33" y="583" type="curve"/>
      <point x="33" y="592"/>
      <point x="34" y="605"/>
      <point x="36" y="611" type="curve"/>
      <point x="272" y="611" type="line" smooth="yes"/>
      <point x="405" y="611"/>
      <point x="470" y="543"/>
    </contour>
    <contour>
      <point x="318" y="235" type="line"/>
      <point x="302" y="266"/>
      <point x="289" y="285"/>
      <point x="239" y="285" type="curve"/>
      <point x="309" y="303" type="line"/>
      <point x="356" y="300"/>
      <point x="376" y="276"/>
      <point x="396" y="238" type="curve" smooth="yes"/>
      <point x="477" y="84" type="line" smooth="yes"/>
      <point x="500" y="41"/>
      <point x="517" y="29"/>
      <point x="556" y="29" type="curve"/>
      <point x="556" y="20"/>
      <point x="555" y="10"/>
      <point x="553" y="0" type="curve"/>
      <point x="437" y="0" type="line"/>
    </contour>
  </outline>
</glyph>
<glyph name="S" format="1">
  <advance width="472"/>
  <unicode hex="0053"/>
  <outline>
    <contour>
      <point x="257" y="611" type="move" name="top"/>
    </contour>
    <contour>
      <point x="242" y="0" type="move" name="bottom"/>
    </contour>
    <contour>
      <point x="407" y="591" type="curve"/>
      <point x="406" y="549"/>
      <point x="403" y="509"/>
      <point x="396" y="473" type="curve"/>
      <point x="389" y="473"/>
      <point x="380" y="473"/>
      <point x="374" y="475" type="curve"/>
      <point x="360" y="551"/>
      <point x="313" y="582"/>
      <point x="244" y="582" type="curve" smooth="yes"/>
      <point x="173" y="582"/>
      <point x="130" y="545"/>
      <point x="130" y="484" type="curve" smooth="yes"/>
      <point x="130" y="331"/>
      <point x="428" y="360"/>
      <point x="428" y="162" type="curve" smooth="yes"/>
      <point x="428" y="58"/>
      <point x="341" y="-8"/>
      <point x="223" y="-8" type="curve" smooth="yes"/>
      <point x="163" y="-8"/>
      <point x="111" y="6"/>
      <point x="55" y="33" type="curve"/>
      <point x="53" y="85"/>
      <point x="57" y="140"/>
      <point x="63" y="180" type="curve"/>
      <point x="72" y="180"/>
      <point x="79" y="180"/>
      <point x="89" y="177" type="curve"/>
      <point x="87" y="64"/>
      <point x="148" y="30"/>
      <point x="231" y="30" type="curve" smooth="yes"/>
      <point x="306" y="30"/>
      <point x="359" y="77"/>
      <point x="359" y="142" type="curve" smooth="yes"/>
      <point x="359" y="304"/>
      <point x="65" y="276"/>
      <point x="65" y="469" type="curve" smooth="yes"/>
      <point x="65" y="564"/>
      <point x="146" y="621"/>
      <point x="250" y="621" type="curve" smooth="yes"/>
      <point x="312" y="621"/>
      <point x="363" y="608"/>
    </contour>
  </outline>
</glyph>
<glyph name="T" format="1">
  <advance width="514"/>
  <unicode hex="0054"/>
  <outline>
    <contour>
      <point x="257" y="611" type="move" name="top"/>
    </contour>
    <contour>
      <point x="257" y="0" type="move" name="bottom"/>
    </contour>
    <contour>
      <point x="293" y="25" type="line"/>
      <point x="285" y="49" type="line"/>
      <point x="317" y="36"/>
      <point x="352" y="30"/>
      <point x="386" y="29" type="curve"/>
      <point x="387" y="19"/>
      <point x="386" y="8"/>
      <point x="384" y="0" type="curve"/>
      <point x="127" y="0" type="line"/>
      <point x="126" y="9"/>
      <point x="127" y="21"/>
      <point x="130" y="29" type="curve"/>
      <point x="201" y="35"/>
      <point x="221" y="44"/>
      <point x="221" y="77" type="curve" smooth="yes"/>
      <point x="221" y="596" type="line"/>
      <point x="293" y="596" type="line"/>
    </contour>
    <contour>
      <point x="493" y="611" type="line"/>
      <point x="497" y="570"/>
      <point x="496" y="521"/>
      <point x="493" y="482" type="curve"/>
      <point x="486" y="479"/>
      <point x="474" y="478"/>
      <point x="468" y="479" type="curve"/>
      <point x="461" y="552"/>
      <point x="441" y="578"/>
      <point x="378" y="578" type="curve" smooth="yes"/>
      <point x="136" y="578" type="line" smooth="yes"/>
      <point x="73" y="578"/>
      <point x="52" y="552"/>
      <point x="46" y="479" type="curve"/>
      <point x="41" y="478"/>
      <point x="28" y="479"/>
      <point x="21" y="482" type="curve"/>
      <point x="17" y="521"/>
      <point x="16" y="570"/>
      <point x="21" y="611" type="curve"/>
    </contour>
  </outline>
</glyph>
<glyph name="U" format="1">
  <advance width="653"/>
  <unicode hex="0055"/>
  <outline>
    <contour>
      <point x="329" y="611" type="move" name="top"/>
    </contour>
    <contour>
      <point x="415" y="0" type="move" name="ogonek"/>
    </contour>
    <contour>
      <point x="551" y="207" type="line"/>
      <point x="551" y="49"/>
      <point x="454" y="-12"/>
      <point x="329" y="-12" type="curve" smooth="yes"/>
      <point x="204" y="-12"/>
      <point x="107" y="49"/>
      <point x="107" y="207" type="curve" smooth="yes"/>
      <point x="107" y="584" type="line"/>
      <point x="128" y="558" type="line"/>
      <point x="94" y="575"/>
      <point x="68" y="581"/>
      <point x="38" y="583" type="curve"/>
      <point x="37" y="592"/>
      <point x="39" y="605"/>
      <point x="41" y="611" type="curve"/>
      <point x="243" y="611" type="line"/>
      <point x="243" y="604"/>
      <point x="243" y="591"/>
      <point x="241" y="583" type="curve"/>
      <point x="196" y="578"/>
      <point x="178" y="569"/>
      <point x="178" y="536" type="curve"/>
      <point x="178" y="200" type="line" smooth="yes"/>
      <point x="178" y="81"/>
      <point x="241" y="30"/>
      <point x="329" y="30" type="curve" smooth="yes"/>
      <point x="417" y="30"/>
      <point x="478" y="82"/>
      <point x="478" y="200" type="curve" smooth="yes"/>
      <point x="478" y="584" type="line"/>
      <point x="501" y="558" type="line"/>
      <point x="467" y="575"/>
      <point x="440" y="581"/>
      <point x="410" y="583" type="curve"/>
      <point x="410" y="592"/>
      <point x="411" y="605"/>
      <point x="414" y="611" type="curve"/>
      <point x="616" y="611" type="line"/>
      <point x="617" y="604"/>
      <point x="616" y="591"/>
      <point x="614" y="583" type="curve"/>
      <point x="567" y="578"/>
      <point x="551" y="569"/>
      <point x="551" y="536" type="curve"/>
    </contour>
  </outline>
</glyph>
<glyph name="V" format="1">
  <advance width="587"/>
  <unicode hex="0056"/>
  <outline>
    <contour>
      <point x="200" y="582" type="curve"/>
      <point x="147" y="577"/>
      <point x="136" y="569"/>
      <point x="150" y="533" type="curve" smooth="yes"/>
      <point x="289" y="163" type="line" smooth="yes"/>
      <point x="296" y="144"/>
      <point x="303" y="123"/>
      <point x="308" y="101" type="curve"/>
      <point x="311" y="101" type="line"/>
      <point x="491" y="593" type="line"/>
      <point x="487" y="565" type="line"/>
      <point x="463" y="575"/>
      <point x="442" y="581"/>
      <point x="414" y="582" type="curve"/>
      <point x="414" y="593"/>
      <point x="415" y="603"/>
      <point x="417" y="611" type="curve"/>
      <point x="584" y="611" type="line"/>
      <point x="583" y="602"/>
      <point x="582" y="593"/>
      <point x="579" y="582" type="curve"/>
      <point x="546" y="577"/>
      <point x="523" y="569"/>
      <point x="509" y="532" type="curve" smooth="yes"/>
      <point x="308" y="-6" type="line"/>
      <point x="281" y="-6" type="line"/>
      <point x="51" y="595" type="line"/>
      <point x="89" y="559" type="line"/>
      <point x="64" y="571"/>
      <point x="32" y="580"/>
      <point x="6" y="582" type="curve"/>
      <point x="4" y="593"/>
      <point x="2" y="602"/>
      <point x="4" y="611" type="curve"/>
      <point x="197" y="611" type="line"/>
      <point x="199" y="602"/>
      <point x="200" y="593"/>
    </contour>
  </outline>
</glyph>
<glyph name="W" format="1">
  <advance width="873"/>
  <unicode hex="0057"/>
  <outline>
    <contour>
      <point x="208" y="582" type="curve"/>
      <point x="150" y="577"/>
      <point x="140" y="568"/>
      <point x="151" y="533" type="curve" smooth="yes"/>
      <point x="256" y="179" type="line" smooth="yes"/>
      <point x="262" y="160"/>
      <point x="268" y="137"/>
      <point x="271" y="113" type="curve"/>
      <point x="274" y="113" type="line"/>
      <point x="452" y="580" type="line"/>
      <point x="477" y="580" type="line"/>
      <point x="622" y="169" type="line" smooth="yes"/>
      <point x="628" y="151"/>
      <point x="633" y="131"/>
      <point x="635" y="109" type="curve"/>
      <point x="637" y="109" type="line"/>
      <point x="781" y="593" type="line"/>
      <point x="787" y="558" type="line"/>
      <point x="765" y="570"/>
      <point x="744" y="579"/>
      <point x="717" y="582" type="curve"/>
      <point x="718" y="593"/>
      <point x="720" y="603"/>
      <point x="723" y="611" type="curve"/>
      <point x="868" y="611" type="line"/>
      <point x="869" y="602"/>
      <point x="867" y="593"/>
      <point x="865" y="582" type="curve"/>
      <point x="828" y="575"/>
      <point x="812" y="567"/>
      <point x="800" y="527" type="curve" smooth="yes"/>
      <point x="635" y="-6" type="line"/>
      <point x="609" y="-6" type="line"/>
      <point x="437" y="480" type="line"/>
      <point x="453" y="482" type="line"/>
      <point x="262" y="-6" type="line"/>
      <point x="237" y="-6" type="line"/>
      <point x="55" y="594" type="line"/>
      <point x="92" y="556" type="line"/>
      <point x="65" y="571"/>
      <point x="33" y="580"/>
      <point x="7" y="582" type="curve"/>
      <point x="5" y="593"/>
      <point x="4" y="602"/>
      <point x="5" y="611" type="curve"/>
      <point x="203" y="611" type="line"/>
      <point x="207" y="601"/>
      <point x="208" y="593"/>
    </contour>
  </outline>
</glyph>
<glyph name="X" format="1">
  <advance width="599"/>
  <unicode hex="0058"/>
  <outline>
    <contour>
      <point x="302" y="339" type="line"/>
      <point x="492" y="597" type="line"/>
      <point x="490" y="561" type="line"/>
      <point x="463" y="573"/>
      <point x="437" y="581"/>
      <point x="406" y="583" type="curve"/>
      <point x="405" y="592"/>
      <point x="406" y="603"/>
      <point x="408" y="611" type="curve"/>
      <point x="570" y="611" type="line"/>
      <point x="570" y="601"/>
      <point x="569" y="592"/>
      <point x="566" y="583" type="curve"/>
      <point x="533" y="579"/>
      <point x="517" y="568"/>
      <point x="493" y="536" type="curve" smooth="yes"/>
      <point x="326" y="309" type="line"/>
    </contour>
    <contour>
      <point x="295" y="277" type="line"/>
      <point x="112" y="20" type="line"/>
      <point x="111" y="52" type="line"/>
      <point x="137" y="38"/>
      <point x="164" y="30"/>
      <point x="194" y="29" type="curve"/>
      <point x="195" y="19"/>
      <point x="194" y="9"/>
      <point x="192" y="0" type="curve"/>
      <point x="30" y="0" type="line"/>
      <point x="29" y="10"/>
      <point x="31" y="20"/>
      <point x="34" y="29" type="curve"/>
      <point x="67" y="33"/>
      <point x="82" y="45"/>
      <point x="108" y="77" type="curve"/>
      <point x="268" y="307" type="line"/>
    </contour>
    <contour>
      <point x="220" y="583" type="curve"/>
      <point x="165" y="577"/>
      <point x="158" y="566"/>
      <point x="176" y="542" type="curve" smooth="yes"/>
      <point x="540" y="22" type="line"/>
      <point x="491" y="51" type="line"/>
      <point x="513" y="41"/>
      <point x="544" y="33"/>
      <point x="567" y="29" type="curve"/>
      <point x="569" y="21"/>
      <point x="571" y="9"/>
      <point x="570" y="0" type="curve"/>
      <point x="384" y="0" type="line"/>
      <point x="379" y="9"/>
      <point x="380" y="20"/>
      <point x="380" y="29" type="curve"/>
      <point x="434" y="35"/>
      <point x="441" y="44"/>
      <point x="423" y="70" type="curve" smooth="yes"/>
      <point x="55" y="594" type="line"/>
      <point x="107" y="560" type="line"/>
      <point x="85" y="571"/>
      <point x="54" y="580"/>
      <point x="31" y="582" type="curve"/>
      <point x="28" y="592"/>
      <point x="26" y="603"/>
      <point x="29" y="611" type="curve"/>
      <point x="216" y="611" type="line"/>
      <point x="219" y="602"/>
      <point x="220" y="592"/>
    </contour>
  </outline>
</glyph>
<glyph name="Y" format="1">
  <advance width="565"/>
  <unicode hex="0059"/>
  <outline>
    <contour>
      <point x="288" y="611" type="move" name="top"/>
    </contour>
    <contour>
      <point x="203" y="582" type="curve"/>
      <point x="147" y="577"/>
      <point x="137" y="564"/>
      <point x="155" y="530" type="curve" smooth="yes"/>
      <point x="293" y="281" type="line"/>
      <point x="295" y="281" type="line"/>
      <point x="300" y="298"/>
      <point x="310" y="318"/>
      <point x="319" y="332" type="curve" smooth="yes"/>
      <point x="480" y="590" type="line"/>
      <point x="485" y="563" type="line"/>
      <point x="458" y="574"/>
      <point x="441" y="581"/>
      <point x="407" y="582" type="curve"/>
      <point x="407" y="593"/>
      <point x="408" y="603"/>
      <point x="410" y="611" type="curve"/>
      <point x="568" y="611" type="line"/>
      <point x="568" y="602"/>
      <point x="567" y="593"/>
      <point x="565" y="582" type="curve"/>
      <point x="527" y="577"/>
      <point x="514" y="566"/>
      <point x="492" y="532" type="curve" smooth="yes"/>
      <point x="317" y="252" type="line"/>
      <point x="317" y="43" type="line"/>
      <point x="341" y="34"/>
      <point x="362" y="30"/>
      <point x="387" y="29" type="curve"/>
      <point x="387" y="20"/>
      <point x="386" y="9"/>
      <point x="384" y="0" type="curve"/>
      <point x="175" y="0" type="line"/>
      <point x="174" y="10"/>
      <point x="175" y="21"/>
      <point x="177" y="29" type="curve"/>
      <point x="221" y="35"/>
      <point x="241" y="43"/>
      <point x="241" y="77" type="curve" smooth="yes"/>
      <point x="241" y="242" type="line"/>
      <point x="36" y="600" type="line"/>
      <point x="86" y="558" type="line"/>
      <point x="59" y="571"/>
      <point x="26" y="580"/>
      <point x="0" y="582" type="curve"/>
      <point x="-2" y="593"/>
      <point x="-4" y="603"/>
      <point x="-4" y="611" type="curve"/>
      <point x="198" y="611" type="line"/>
      <point x="201" y="602"/>
      <point x="203" y="593"/>
    </contour>
  </outline>
</glyph>
<glyph name="Z" format="1">
  <advance width="538"/>
  <unicode hex="005A"/>
  <outline>
    <contour>
      <point x="303" y="611" type="move" name="top"/>
    </contour>
    <contour>
      <point x="476" y="611" type="line"/>
      <point x="480" y="602"/>
      <point x="481" y="590"/>
      <point x="481" y="577" type="curve"/>
      <point x="122" y="19" type="line"/>
      <point x="117" y="40" type="line"/>
      <point x="366" y="40" type="line" smooth="yes"/>
      <point x="429" y="40"/>
      <point x="450" y="63"/>
      <point x="460" y="131" type="curve"/>
      <point x="467" y="131"/>
      <point x="475" y="130"/>
      <point x="480" y="127" type="curve"/>
      <point x="480" y="87"/>
      <point x="478" y="43"/>
      <point x="471" y="0" type="curve"/>
      <point x="59" y="0" type="line"/>
      <point x="54" y="9"/>
      <point x="51" y="21"/>
      <point x="51" y="35" type="curve"/>
      <point x="410" y="591" type="line"/>
      <point x="423" y="573" type="line"/>
      <point x="184" y="573" type="line" smooth="yes"/>
      <point x="122" y="573"/>
      <point x="101" y="548"/>
      <point x="90" y="480" type="curve"/>
      <point x="84" y="480"/>
      <point x="76" y="482"/>
      <point x="69" y="485" type="curve"/>
      <point x="69" y="525"/>
      <point x="72" y="570"/>
      <point x="79" y="611" type="curve"/>
    </contour>
  </outline>
</glyph>
<glyph name="bracketleft" format="1">
  <advance width="320"/>
  <unicode hex="005B"/>
  <outline>
    <contour>
      <point x="172" y="737" type="line"/>
      <point x="290" y="737" type="line"/>
      <point x="290" y="774" type="line"/>
      <point x="100" y="774" type="line"/>
      <point x="100" y="-131" type="line"/>
      <point x="290" y="-131" type="line"/>
      <point x="290" y="-93" type="line"/>
      <point x="172" y="-93" type="line"/>
    </contour>
  </outline>
</glyph>
<glyph name="backslash" format="1">
  <advance width="461"/>
  <unicode hex="005C"/>
  <outline>
    <contour>
      <point x="170" y="693" type="line"/>
      <point x="351" y="-26" type="line"/>
      <point x="290" y="-26" type="line"/>
      <point x="108" y="693" type="line"/>
    </contour>
  </outline>
</glyph>
<glyph name="bracketright" format="1">
  <advance width="320"/>
  <unicode hex="005D"/>
  <outline>
    <contour>
      <point x="30" y="-93" type="line"/>
      <point x="30" y="-131" type="line"/>
      <point x="220" y="-131" type="line"/>
      <point x="220" y="774" type="line"/>
      <point x="30" y="774" type="line"/>
      <point x="30" y="737" type="line"/>
      <point x="148" y="737" type="line"/>
      <point x="148" y="-93" type="line"/>
    </contour>
  </outline>
</glyph>
<glyph name="asciicircum" format="1">
  <advance width="465"/>
  <unicode hex="005E"/>
  <outline>
    <contour>
      <point x="32" y="217" type="line"/>
      <point x="91" y="217" type="line"/>
      <point x="233" y="539" type="line"/>
      <point x="375" y="217" type="line"/>
      <point x="433" y="217" type="line"/>
      <point x="259" y="595" type="line"/>
      <point x="206" y="595" type="line"/>
    </contour>
  </outline>
</glyph>
<glyph name="grave" format="1">
  <advance width="194"/>
  <unicode hex="0060"/>
  <outline>
    <contour>
      <point x="154" y="455" type="move" name="_top"/>
    </contour>
    <contour>
      <point x="184" y="511" type="line"/>
      <point x="163" y="498" type="line"/>
      <point x="10" y="634" type="line"/>
      <point x="10" y="645" type="line"/>
      <point x="23" y="658"/>
      <point x="52" y="673"/>
      <point x="74" y="677" type="curve"/>
    </contour>
  </outline>
</glyph>
<glyph name="a" format="1">
  <advance width="465"/>
  <unicode hex="0061"/>
  <outline>
    <contour>
      <point x="228" y="455" type="move" name="top"/>
    </contour>
    <contour>
      <point x="403" y="0" type="move" name="ogonek"/>
    </contour>
    <contour>
      <point x="300" y="246" type="line"/>
      <point x="221" y="226" type="line" smooth="yes"/>
      <point x="150" y="207"/>
      <point x="121" y="170"/>
      <point x="121" y="119" type="curve" smooth="yes"/>
      <point x="121" y="69"/>
      <point x="152" y="42"/>
      <point x="200" y="42" type="curve" smooth="yes"/>
      <point x="243" y="42"/>
      <point x="278" y="57"/>
      <point x="310" y="103" type="curve"/>
      <point x="313" y="68" type="line"/>
      <point x="286" y="26"/>
      <point x="238" y="-12"/>
      <point x="178" y="-12" type="curve" smooth="yes"/>
      <point x="97" y="-12"/>
      <point x="45" y="43"/>
      <point x="45" y="111" type="curve" smooth="yes"/>
      <point x="45" y="191"/>
      <point x="94" y="235"/>
      <point x="197" y="258" type="curve" smooth="yes"/>
      <point x="300" y="281" type="line"/>
    </contour>
    <contour>
      <point x="365" y="331" type="curve" smooth="yes"/>
      <point x="365" y="94" type="line" smooth="yes"/>
      <point x="365" y="54"/>
      <point x="374" y="40"/>
      <point x="396" y="40" type="curve" smooth="yes"/>
      <point x="407" y="40"/>
      <point x="419" y="43"/>
      <point x="433" y="46" type="curve"/>
      <point x="439" y="33" type="line"/>
      <point x="421" y="9"/>
      <point x="395" y="-12"/>
      <point x="364" y="-12" type="curve" smooth="yes"/>
      <point x="325" y="-12"/>
      <point x="292" y="14"/>
      <point x="292" y="65" type="curve" smooth="yes"/>
      <point x="292" y="323" type="line" smooth="yes"/>
      <point x="292" y="381"/>
      <point x="271" y="410"/>
      <point x="212" y="410" type="curve" smooth="yes"/>
      <point x="170" y="410"/>
      <point x="127" y="401"/>
      <point x="84" y="386" type="curve"/>
      <point x="71" y="406" type="line"/>
      <point x="118" y="445"/>
      <point x="177" y="467"/>
      <point x="237" y="467" type="curve" smooth="yes"/>
      <point x="318" y="467"/>
      <point x="365" y="416"/>
    </contour>
  </outline>
</glyph>
<glyph name="b" format="1">
  <advance width="513"/>
  <unicode hex="0062"/>
  <outline>
    <contour>
      <point x="130" y="47" type="line"/>
      <point x="117" y="20"/>
      <point x="95" y="1"/>
      <point x="66" y="-11" type="curve"/>
      <point x="54" y="0" type="line"/>
      <point x="69" y="34"/>
      <point x="76" y="73"/>
      <point x="76" y="111" type="curve"/>
      <point x="76" y="665" type="line"/>
      <point x="84" y="649" type="line"/>
      <point x="59" y="652"/>
      <point x="34" y="651"/>
      <point x="6" y="650" type="curve"/>
      <point x="6" y="660"/>
      <point x="7" y="670"/>
      <point x="11" y="678" type="curve"/>
      <point x="55" y="696"/>
      <point x="97" y="708"/>
      <point x="148" y="715" type="curve"/>
      <point x="148" y="44" type="line"/>
    </contour>
    <contour>
      <point x="470" y="236" type="curve" smooth="yes"/>
      <point x="470" y="77"/>
      <point x="361" y="-12"/>
      <point x="240" y="-12" type="curve" smooth="yes"/>
      <point x="193" y="-12"/>
      <point x="147" y="4"/>
      <point x="106" y="33" type="curve"/>
      <point x="131" y="68" type="line"/>
      <point x="168" y="43"/>
      <point x="206" y="33"/>
      <point x="249" y="33" type="curve" smooth="yes"/>
      <point x="326" y="33"/>
      <point x="389" y="98"/>
      <point x="389" y="236" type="curve" smooth="yes"/>
      <point x="389" y="373"/>
      <point x="328" y="419"/>
      <point x="270" y="419" type="curve" smooth="yes"/>
      <point x="215" y="419"/>
      <point x="159" y="379"/>
      <point x="148" y="283" type="curve"/>
      <point x="138" y="320" type="line"/>
      <point x="154" y="414"/>
      <point x="214" y="467"/>
      <point x="284" y="467" type="curve" smooth="yes"/>
      <point x="374" y="467"/>
      <point x="470" y="394"/>
    </contour>
  </outline>
</glyph>
<glyph name="c" format="1">
  <advance width="452"/>
  <unicode hex="0063"/>
  <outline>
    <contour>
      <point x="267" y="463" type="move" name="top"/>
    </contour>
    <contour>
      <point x="235" y="0" type="move" name="bottom"/>
    </contour>
    <contour>
      <point x="408" y="428" type="curve"/>
      <point x="408" y="399"/>
      <point x="404" y="351"/>
      <point x="399" y="320" type="curve"/>
      <point x="392" y="321"/>
      <point x="384" y="322"/>
      <point x="378" y="323" type="curve"/>
      <point x="378" y="388"/>
      <point x="330" y="426"/>
      <point x="267" y="426" type="curve" smooth="yes"/>
      <point x="179" y="426"/>
      <point x="119" y="352"/>
      <point x="119" y="224" type="curve" smooth="yes"/>
      <point x="119" y="110"/>
      <point x="177" y="35"/>
      <point x="262" y="35" type="curve" smooth="yes"/>
      <point x="317" y="35"/>
      <point x="358" y="50"/>
      <point x="404" y="77" type="curve"/>
      <point x="417" y="61" type="line"/>
      <point x="368" y="15"/>
      <point x="319" y="-12"/>
      <point x="246" y="-12" type="curve" smooth="yes"/>
      <point x="135" y="-12"/>
      <point x="41" y="76"/>
      <point x="41" y="219" type="curve" smooth="yes"/>
      <point x="41" y="369"/>
      <point x="138" y="467"/>
      <point x="273" y="467" type="curve" smooth="yes"/>
      <point x="323" y="467"/>
      <point x="373" y="453"/>
    </contour>
  </outline>
</glyph>
<glyph name="d" format="1">
  <advance width="532"/>
  <unicode hex="0064"/>
  <outline>
    <contour>
      <point x="472" y="690" type="move" name="commaaccent"/>
    </contour>
    <contour>
      <point x="386" y="402" type="line"/>
      <point x="351" y="414"/>
      <point x="325" y="419"/>
      <point x="285" y="419" type="curve" smooth="yes"/>
      <point x="182" y="419"/>
      <point x="118" y="367"/>
      <point x="118" y="231" type="curve" smooth="yes"/>
      <point x="118" y="96"/>
      <point x="171" y="40"/>
      <point x="252" y="40" type="curve" smooth="yes"/>
      <point x="303" y="40"/>
      <point x="339" y="58"/>
      <point x="373" y="97" type="curve"/>
      <point x="376" y="64" type="line"/>
      <point x="346" y="23"/>
      <point x="298" y="-12"/>
      <point x="228" y="-12" type="curve" smooth="yes"/>
      <point x="130" y="-12"/>
      <point x="42" y="65"/>
      <point x="42" y="217" type="curve" smooth="yes"/>
      <point x="42" y="381"/>
      <point x="165" y="467"/>
      <point x="307" y="467" type="curve" smooth="yes"/>
      <point x="332" y="467"/>
      <point x="357" y="464"/>
      <point x="379" y="459" type="curve"/>
    </contour>
    <contour>
      <point x="424" y="94" type="line"/>
      <point x="424" y="54"/>
      <point x="434" y="40"/>
      <point x="455" y="40" type="curve" smooth="yes"/>
      <point x="466" y="40"/>
      <point x="478" y="43"/>
      <point x="492" y="45" type="curve"/>
      <point x="499" y="33" type="line"/>
      <point x="480" y="9"/>
      <point x="455" y="-12"/>
      <point x="424" y="-12" type="curve" smooth="yes"/>
      <point x="386" y="-12"/>
      <point x="357" y="14"/>
      <point x="352" y="56" type="curve" smooth="yes"/>
      <point x="352" y="665" type="line"/>
      <point x="360" y="649" type="line"/>
      <point x="336" y="652"/>
      <point x="310" y="651"/>
      <point x="282" y="650" type="curve"/>
      <point x="282" y="660"/>
      <point x="284" y="670"/>
      <point x="286" y="678" type="curve"/>
      <point x="331" y="696"/>
      <point x="374" y="708"/>
      <point x="424" y="715" type="curve"/>
    </contour>
  </outline>
</glyph>
<glyph name="e" format="1">
  <advance width="473"/>
  <unicode hex="0065"/>
  <outline>
    <contour>
      <point x="259" y="455" type="move" name="top"/>
    </contour>
    <contour>
      <point x="319" y="0" type="move" name="ogonek"/>
    </contour>
    <contour>
      <point x="241" y="0" type="move" name="bottom"/>
    </contour>
    <contour>
      <point x="431" y="276" type="curve"/>
      <point x="428" y="270"/>
      <point x="424" y="263"/>
      <point x="420" y="258" type="curve"/>
      <point x="107" y="258" type="line"/>
      <point x="107" y="290" type="line"/>
      <point x="240" y="299" type="line"/>
      <point x="389" y="300" type="line"/>
      <point x="354" y="291" type="line"/>
      <point x="356" y="391"/>
      <point x="305" y="427"/>
      <point x="251" y="427" type="curve" smooth="yes"/>
      <point x="193" y="427"/>
      <point x="119" y="375"/>
      <point x="119" y="235" type="curve" smooth="yes"/>
      <point x="119" y="110"/>
      <point x="173" y="41"/>
      <point x="267" y="41" type="curve" smooth="yes"/>
      <point x="319" y="41"/>
      <point x="368" y="57"/>
      <point x="416" y="89" type="curve"/>
      <point x="425" y="71" type="line"/>
      <point x="382" y="22"/>
      <point x="323" y="-12"/>
      <point x="246" y="-12" type="curve" smooth="yes"/>
      <point x="152" y="-12"/>
      <point x="42" y="60"/>
      <point x="42" y="219" type="curve" smooth="yes"/>
      <point x="42" y="388"/>
      <point x="164" y="467"/>
      <point x="260" y="467" type="curve" smooth="yes"/>
      <point x="354" y="467"/>
      <point x="431" y="404"/>
    </contour>
  </outline>
</glyph>
<glyph name="f" format="1">
  <advance width="302"/>
  <unicode hex="0066"/>
  <outline>
    <contour>
      <point x="168" y="25" type="line"/>
      <point x="161" y="54" type="line"/>
      <point x="197" y="39"/>
      <point x="234" y="32"/>
      <point x="272" y="30" type="curve"/>
      <point x="273" y="20"/>
      <point x="272" y="8"/>
      <point x="270" y="0" type="curve"/>
      <point x="27" y="0" type="line"/>
      <point x="26" y="9"/>
      <point x="27" y="22"/>
      <point x="30" y="30" type="curve"/>
      <point x="78" y="36"/>
      <point x="96" y="46"/>
      <point x="96" y="80" type="curve" smooth="yes"/>
      <point x="96" y="427" type="line"/>
      <point x="120" y="403" type="line"/>
      <point x="92" y="410"/>
      <point x="61" y="412"/>
      <point x="31" y="412" type="curve"/>
      <point x="31" y="420"/>
      <point x="32" y="428"/>
      <point x="33" y="433" type="curve"/>
      <point x="53" y="440"/>
      <point x="74" y="446"/>
      <point x="96" y="448" type="curve"/>
      <point x="96" y="516" type="line"/>
      <point x="96" y="655"/>
      <point x="177" y="710"/>
      <point x="251" y="710" type="curve" smooth="yes"/>
      <point x="290" y="710"/>
      <point x="331" y="690"/>
      <point x="356" y="665" type="curve"/>
      <point x="355" y="634"/>
      <point x="351" y="606"/>
      <point x="343" y="575" type="curve"/>
      <point x="336" y="575"/>
      <point x="322" y="577"/>
      <point x="315" y="578" type="curve"/>
      <point x="318" y="639"/>
      <point x="294" y="668"/>
      <point x="251" y="668" type="curve" smooth="yes"/>
      <point x="199" y="668"/>
      <point x="168" y="638"/>
      <point x="168" y="553" type="curve"/>
    </contour>
    <contour>
      <point x="151" y="450" type="line"/>
      <point x="204" y="450"/>
      <point x="256" y="451"/>
      <point x="309" y="456" type="curve"/>
      <point x="309" y="435"/>
      <point x="308" y="424"/>
      <point x="301" y="410" type="curve"/>
      <point x="151" y="410" type="line"/>
    </contour>
  </outline>
</glyph>
<glyph name="g" format="1">
  <advance width="503"/>
  <unicode hex="0067"/>
  <outline>
    <contour>
      <point x="251" y="455" type="move" name="top"/>
    </contour>
    <contour>
      <point x="244" y="177" type="curve" smooth="yes"/>
      <point x="303" y="177"/>
      <point x="351" y="220"/>
      <point x="346" y="308" type="curve" smooth="yes"/>
      <point x="341" y="394"/>
      <point x="294" y="437"/>
      <point x="235" y="437" type="curve" smooth="yes"/>
      <point x="175" y="437"/>
      <point x="129" y="393"/>
      <point x="132" y="308" type="curve" smooth="yes"/>
      <point x="135" y="221"/>
      <point x="184" y="177"/>
    </contour>
    <contour>
      <point x="422" y="308" type="curve" smooth="yes"/>
      <point x="422" y="208"/>
      <point x="341" y="147"/>
      <point x="239" y="147" type="curve" smooth="yes"/>
      <point x="138" y="147"/>
      <point x="55" y="208"/>
      <point x="55" y="308" type="curve" smooth="yes"/>
      <point x="55" y="408"/>
      <point x="138" y="467"/>
      <point x="239" y="467" type="curve" smooth="yes"/>
      <point x="341" y="467"/>
      <point x="422" y="408"/>
    </contour>
    <contour>
      <point x="347" y="425" type="line"/>
      <point x="388" y="460"/>
      <point x="453" y="475"/>
      <point x="497" y="475" type="curve"/>
      <point x="499" y="462"/>
      <point x="496" y="439"/>
      <point x="493" y="422" type="curve"/>
      <point x="367" y="408" type="line"/>
    </contour>
    <contour>
      <point x="153" y="13" type="line"/>
      <point x="108" y="-9"/>
      <point x="81" y="-46"/>
      <point x="81" y="-87" type="curve" smooth="yes"/>
      <point x="81" y="-143"/>
      <point x="136" y="-182"/>
      <point x="234" y="-182" type="curve" smooth="yes"/>
      <point x="352" y="-182"/>
      <point x="430" y="-113"/>
      <point x="429" y="-58" type="curve" smooth="yes"/>
      <point x="429" y="-26"/>
      <point x="411" y="-4"/>
      <point x="369" y="-4" type="curve" smooth="yes"/>
      <point x="165" y="-5" type="line" smooth="yes"/>
      <point x="91" y="-6"/>
      <point x="53" y="32"/>
      <point x="53" y="83" type="curve" smooth="yes"/>
      <point x="53" y="133"/>
      <point x="102" y="169"/>
      <point x="154" y="185" type="curve"/>
      <point x="171" y="166" type="line"/>
      <point x="128" y="149"/>
      <point x="109" y="129"/>
      <point x="109" y="103" type="curve" smooth="yes"/>
      <point x="109" y="77"/>
      <point x="128" y="54"/>
      <point x="176" y="54" type="curve" smooth="yes"/>
      <point x="370" y="56" type="line" smooth="yes"/>
      <point x="452" y="57"/>
      <point x="491" y="18"/>
      <point x="491" y="-37" type="curve" smooth="yes"/>
      <point x="490" y="-132"/>
      <point x="366" y="-237"/>
      <point x="218" y="-237" type="curve" smooth="yes"/>
      <point x="107" y="-237"/>
      <point x="33" y="-185"/>
      <point x="33" y="-103" type="curve" smooth="yes"/>
      <point x="33" y="-42"/>
      <point x="73" y="1"/>
      <point x="139" y="26" type="curve"/>
    </contour>
  </outline>
</glyph>
<glyph name="h" format="1">
  <advance width="555"/>
  <unicode hex="0068"/>
  <outline>
    <contour>
      <point x="460" y="318" type="curve" smooth="yes"/>
      <point x="460" y="25" type="line"/>
      <point x="453" y="48" type="line"/>
      <point x="484" y="36"/>
      <point x="503" y="32"/>
      <point x="530" y="30" type="curve"/>
      <point x="530" y="20"/>
      <point x="529" y="8"/>
      <point x="528" y="0" type="curve"/>
      <point x="324" y="0" type="line"/>
      <point x="323" y="9"/>
      <point x="324" y="22"/>
      <point x="325" y="30" type="curve"/>
      <point x="372" y="35"/>
      <point x="388" y="45"/>
      <point x="388" y="79" type="curve" smooth="yes"/>
      <point x="388" y="312" type="line" smooth="yes"/>
      <point x="388" y="379"/>
      <point x="354" y="413"/>
      <point x="301" y="413" type="curve" smooth="yes"/>
      <point x="241" y="413"/>
      <point x="197" y="374"/>
      <point x="170" y="307" type="curve"/>
      <point x="157" y="330" type="line"/>
      <point x="185" y="412"/>
      <point x="245" y="467"/>
      <point x="326" y="467" type="curve" smooth="yes"/>
      <point x="400" y="467"/>
      <point x="460" y="419"/>
    </contour>
    <contour>
      <point x="171" y="25" type="line"/>
      <point x="164" y="48" type="line"/>
      <point x="191" y="36"/>
      <point x="213" y="32"/>
      <point x="239" y="30" type="curve"/>
      <point x="239" y="20"/>
      <point x="238" y="8"/>
      <point x="236" y="0" type="curve"/>
      <point x="31" y="0" type="line"/>
      <point x="30" y="9"/>
      <point x="31" y="22"/>
      <point x="33" y="30" type="curve"/>
      <point x="81" y="35"/>
      <point x="99" y="45"/>
      <point x="99" y="79" type="curve" smooth="yes"/>
      <point x="99" y="662" type="line"/>
      <point x="106" y="647" type="line"/>
      <point x="83" y="649"/>
      <point x="57" y="649"/>
      <point x="29" y="648" type="curve"/>
      <point x="29" y="657"/>
      <point x="31" y="667"/>
      <point x="33" y="675" type="curve"/>
      <point x="83" y="694"/>
      <point x="110" y="703"/>
      <point x="171" y="711" type="curve"/>
    </contour>
  </outline>
</glyph>
<glyph name="j" format="1">
  <advance width="258"/>
  <unicode hex="006A"/>
  <outline>
    <contour>
      <point x="134" y="551" type="curve" smooth="yes"/>
      <point x="105" y="551"/>
      <point x="80" y="576"/>
      <point x="80" y="605" type="curve" smooth="yes"/>
      <point x="80" y="635"/>
      <point x="105" y="659"/>
      <point x="134" y="659" type="curve" smooth="yes"/>
      <point x="164" y="659"/>
      <point x="187" y="635"/>
      <point x="187" y="605" type="curve" smooth="yes"/>
      <point x="187" y="576"/>
      <point x="164" y="551"/>
    </contour>
    <contour>
      <point x="171" y="9" type="line"/>
      <point x="171" y="-109"/>
      <point x="116" y="-185"/>
      <point x="-7" y="-223" type="curve"/>
      <point x="-17" y="-201" type="line"/>
      <point x="82" y="-148"/>
      <point x="99" y="-86"/>
      <point x="99" y="2" type="curve" smooth="yes"/>
      <point x="99" y="410" type="line"/>
      <point x="106" y="396" type="line"/>
      <point x="83" y="397"/>
      <point x="57" y="398"/>
      <point x="29" y="397" type="curve"/>
      <point x="29" y="405"/>
      <point x="31" y="415"/>
      <point x="33" y="424" type="curve"/>
      <point x="76" y="440"/>
      <point x="121" y="453"/>
      <point x="171" y="461" type="curve"/>
    </contour>
  </outline>
</glyph>
<glyph name="k" format="1">
  <advance width="532"/>
  <unicode hex="006B"/>
  <outline>
    <contour>
      <point x="292" y="0" type="move" name="bottom"/>
    </contour>
    <contour>
      <point x="171" y="25" type="line"/>
      <point x="164" y="48" type="line"/>
      <point x="191" y="36"/>
      <point x="213" y="32"/>
      <point x="239" y="30" type="curve"/>
      <point x="239" y="20"/>
      <point x="238" y="8"/>
      <point x="236" y="0" type="curve"/>
      <point x="31" y="0" type="line"/>
      <point x="30" y="9"/>
      <point x="31" y="22"/>
      <point x="33" y="30" type="curve"/>
      <point x="81" y="35"/>
      <point x="99" y="45"/>
      <point x="99" y="79" type="curve" smooth="yes"/>
      <point x="99" y="665" type="line"/>
      <point x="106" y="649" type="line"/>
      <point x="83" y="652"/>
      <point x="57" y="651"/>
      <point x="29" y="650" type="curve"/>
      <point x="29" y="660"/>
      <point x="31" y="670"/>
      <point x="33" y="678" type="curve"/>
      <point x="77" y="696"/>
      <point x="121" y="708"/>
      <point x="171" y="715" type="curve"/>
    </contour>
    <contour>
      <point x="501" y="424" type="curve"/>
      <point x="458" y="424"/>
      <point x="429" y="413"/>
      <point x="401" y="386" type="curve" smooth="yes"/>
      <point x="158" y="155" type="line"/>
      <point x="120" y="170" type="line"/>
      <point x="373" y="414" type="line"/>
      <point x="382" y="405" type="line"/>
      <point x="354" y="410"/>
      <point x="326" y="419"/>
      <point x="302" y="431" type="curve"/>
      <point x="302" y="440"/>
      <point x="303" y="449"/>
      <point x="305" y="455" type="curve"/>
      <point x="504" y="455" type="line"/>
      <point x="504" y="445"/>
      <point x="503" y="433"/>
    </contour>
    <contour>
      <point x="524" y="30" type="curve"/>
      <point x="525" y="21"/>
      <point x="523" y="10"/>
      <point x="520" y="0" type="curve"/>
      <point x="402" y="0" type="line"/>
      <point x="247" y="208" type="line" smooth="yes"/>
      <point x="235" y="224"/>
      <point x="228" y="229"/>
      <point x="209" y="228" type="curve"/>
      <point x="249" y="275" type="line"/>
      <point x="278" y="274"/>
      <point x="295" y="261"/>
      <point x="314" y="236" type="curve" smooth="yes"/>
      <point x="424" y="89" type="line" smooth="yes"/>
      <point x="458" y="45"/>
      <point x="480" y="33"/>
    </contour>
  </outline>
</glyph>
<glyph name="l" format="1">
  <advance width="276"/>
  <unicode hex="006C"/>
  <outline>
    <contour>
      <point x="219" y="690" type="move" name="commaaccent"/>
    </contour>
    <contour>
      <point x="141" y="691" type="move" name="top"/>
    </contour>
    <contour>
      <point x="139" y="0" type="move" name="bottom"/>
    </contour>
    <contour>
      <point x="171" y="25" type="line"/>
      <point x="164" y="48" type="line"/>
      <point x="191" y="36"/>
      <point x="213" y="32"/>
      <point x="239" y="30" type="curve"/>
      <point x="239" y="20"/>
      <point x="238" y="8"/>
      <point x="236" y="0" type="curve"/>
      <point x="31" y="0" type="line"/>
      <point x="30" y="9"/>
      <point x="31" y="22"/>
      <point x="33" y="30" type="curve"/>
      <point x="81" y="35"/>
      <point x="99" y="45"/>
      <point x="99" y="79" type="curve" smooth="yes"/>
      <point x="99" y="665" type="line"/>
      <point x="106" y="649" type="line"/>
      <point x="83" y="652"/>
      <point x="57" y="651"/>
      <point x="29" y="650" type="curve"/>
      <point x="29" y="660"/>
      <point x="31" y="670"/>
      <point x="33" y="678" type="curve"/>
      <point x="77" y="696"/>
      <point x="121" y="708"/>
      <point x="171" y="715" type="curve"/>
    </contour>
  </outline>
</glyph>
<glyph name="m" format="1">
  <advance width="844"/>
  <unicode hex="006D"/>
  <outline>
    <contour>
      <point x="171" y="336" type="curve" smooth="yes"/>
      <point x="171" y="25" type="line"/>
      <point x="164" y="48" type="line"/>
      <point x="191" y="36"/>
      <point x="213" y="32"/>
      <point x="239" y="30" type="curve"/>
      <point x="239" y="20"/>
      <point x="238" y="8"/>
      <point x="236" y="0" type="curve"/>
      <point x="31" y="0" type="line"/>
      <point x="30" y="9"/>
      <point x="31" y="22"/>
      <point x="33" y="30" type="curve"/>
      <point x="81" y="35"/>
      <point x="99" y="45"/>
      <point x="99" y="79" type="curve" smooth="yes"/>
      <point x="99" y="412" type="line"/>
      <point x="106" y="397" type="line"/>
      <point x="83" y="398"/>
      <point x="57" y="399"/>
      <point x="29" y="398" type="curve"/>
      <point x="29" y="407"/>
      <point x="31" y="417"/>
      <point x="33" y="424" type="curve"/>
      <point x="76" y="441"/>
      <point x="116" y="453"/>
      <point x="163" y="461" type="curve"/>
      <point x="169" y="423"/>
      <point x="171" y="382"/>
    </contour>
    <contour>
      <point x="460" y="318" type="curve" smooth="yes"/>
      <point x="460" y="25" type="line"/>
      <point x="453" y="48" type="line"/>
      <point x="480" y="36"/>
      <point x="502" y="32"/>
      <point x="528" y="30" type="curve"/>
      <point x="528" y="20"/>
      <point x="527" y="8"/>
      <point x="525" y="0" type="curve"/>
      <point x="324" y="0" type="line"/>
      <point x="323" y="9"/>
      <point x="324" y="22"/>
      <point x="325" y="30" type="curve"/>
      <point x="372" y="35"/>
      <point x="388" y="45"/>
      <point x="388" y="79" type="curve" smooth="yes"/>
      <point x="388" y="312" type="line" smooth="yes"/>
      <point x="388" y="379"/>
      <point x="354" y="413"/>
      <point x="301" y="413" type="curve" smooth="yes"/>
      <point x="241" y="413"/>
      <point x="197" y="374"/>
      <point x="170" y="307" type="curve"/>
      <point x="157" y="330" type="line"/>
      <point x="185" y="412"/>
      <point x="245" y="467"/>
      <point x="326" y="467" type="curve" smooth="yes"/>
      <point x="400" y="467"/>
      <point x="460" y="419"/>
    </contour>
    <contour>
      <point x="750" y="318" type="curve" smooth="yes"/>
      <point x="750" y="25" type="line"/>
      <point x="743" y="48" type="line"/>
      <point x="773" y="36"/>
      <point x="793" y="32"/>
      <point x="820" y="30" type="curve"/>
      <point x="820" y="20"/>
      <point x="819" y="8"/>
      <point x="817" y="0" type="curve"/>
      <point x="613" y="0" type="line"/>
      <point x="612" y="9"/>
      <point x="613" y="22"/>
      <point x="615" y="30" type="curve"/>
      <point x="662" y="35"/>
      <point x="677" y="45"/>
      <point x="677" y="79" type="curve" smooth="yes"/>
      <point x="677" y="312" type="line" smooth="yes"/>
      <point x="677" y="379"/>
      <point x="643" y="413"/>
      <point x="591" y="413" type="curve" smooth="yes"/>
      <point x="530" y="413"/>
      <point x="486" y="374"/>
      <point x="459" y="307" type="curve"/>
      <point x="446" y="330" type="line"/>
      <point x="474" y="412"/>
      <point x="534" y="467"/>
      <point x="615" y="467" type="curve" smooth="yes"/>
      <point x="689" y="467"/>
      <point x="750" y="419"/>
    </contour>
  </outline>
</glyph>
<glyph name="o" format="1">
  <advance width="510"/>
  <unicode hex="006F"/>
  <outline>
    <contour>
      <point x="263" y="455" type="move" name="top"/>
    </contour>
    <contour>
      <point x="467" y="227" type="curve" smooth="yes"/>
      <point x="467" y="85"/>
      <point x="381" y="-12"/>
      <point x="254" y="-12" type="curve" smooth="yes"/>
      <point x="119" y="-12"/>
      <point x="42" y="85"/>
      <point x="42" y="227" type="curve" smooth="yes"/>
      <point x="42" y="371"/>
      <point x="128" y="467"/>
      <point x="255" y="467" type="curve" smooth="yes"/>
      <point x="385" y="467"/>
      <point x="467" y="372"/>
    </contour>
    <contour>
      <point x="119" y="227" type="curve" smooth="yes"/>
      <point x="122" y="106"/>
      <point x="168" y="30"/>
      <point x="259" y="30" type="curve" smooth="yes"/>
      <point x="350" y="30"/>
      <point x="392" y="106"/>
      <point x="389" y="227" type="curve" smooth="yes"/>
      <point x="387" y="349"/>
      <point x="341" y="429"/>
      <point x="250" y="429" type="curve" smooth="yes"/>
      <point x="159" y="429"/>
      <point x="117" y="349"/>
    </contour>
  </outline>
</glyph>
<glyph name="p" format="1">
  <advance width="530"/>
  <unicode hex="0070"/>
  <outline>
    <contour>
      <point x="171" y="336" type="curve" smooth="yes"/>
      <point x="171" y="-201" type="line"/>
      <point x="164" y="-169" type="line"/>
      <point x="200" y="-186"/>
      <point x="230" y="-192"/>
      <point x="265" y="-195" type="curve"/>
      <point x="265" y="-205"/>
      <point x="265" y="-216"/>
      <point x="263" y="-225" type="curve"/>
      <point x="29" y="-225" type="line"/>
      <point x="28" y="-215"/>
      <point x="29" y="-203"/>
      <point x="32" y="-195" type="curve"/>
      <point x="80" y="-189"/>
      <point x="97" y="-179"/>
      <point x="97" y="-145" type="curve" smooth="yes"/>
      <point x="97" y="412" type="line"/>
      <point x="105" y="397" type="line"/>
      <point x="81" y="398"/>
      <point x="55" y="399"/>
      <point x="28" y="398" type="curve"/>
      <point x="29" y="407"/>
      <point x="30" y="417"/>
      <point x="33" y="424" type="curve"/>
      <point x="75" y="441"/>
      <point x="114" y="453"/>
      <point x="160" y="460" type="curve"/>
      <point x="168" y="423"/>
      <point x="171" y="382"/>
    </contour>
    <contour>
      <point x="486" y="236" type="curve" smooth="yes"/>
      <point x="486" y="75"/>
      <point x="366" y="-12"/>
      <point x="242" y="-12" type="curve" smooth="yes"/>
      <point x="198" y="-12"/>
      <point x="160" y="-1"/>
      <point x="116" y="27" type="curve"/>
      <point x="135" y="69" type="line"/>
      <point x="171" y="45"/>
      <point x="210" y="33"/>
      <point x="252" y="33" type="curve" smooth="yes"/>
      <point x="330" y="33"/>
      <point x="406" y="98"/>
      <point x="406" y="236" type="curve" smooth="yes"/>
      <point x="406" y="373"/>
      <point x="345" y="419"/>
      <point x="287" y="419" type="curve" smooth="yes"/>
      <point x="231" y="419"/>
      <point x="176" y="376"/>
      <point x="165" y="280" type="curve"/>
      <point x="155" y="317" type="line"/>
      <point x="169" y="421"/>
      <point x="229" y="467"/>
      <point x="300" y="467" type="curve" smooth="yes"/>
      <point x="390" y="467"/>
      <point x="486" y="394"/>
    </contour>
  </outline>
</glyph>
<glyph name="q" format="1">
  <advance width="511"/>
  <unicode hex="0071"/>
  <outline>
    <contour>
      <point x="380" y="392" type="line"/>
      <point x="355" y="406"/>
      <point x="324" y="419"/>
      <point x="283" y="419" type="curve" smooth="yes"/>
      <point x="187" y="419"/>
      <point x="118" y="367"/>
      <point x="118" y="231" type="curve" smooth="yes"/>
      <point x="118" y="96"/>
      <point x="171" y="40"/>
      <point x="252" y="40" type="curve" smooth="yes"/>
      <point x="303" y="40"/>
      <point x="339" y="58"/>
      <point x="373" y="97" type="curve"/>
      <point x="376" y="64" type="line"/>
      <point x="346" y="23"/>
      <point x="298" y="-12"/>
      <point x="228" y="-12" type="curve" smooth="yes"/>
      <point x="130" y="-12"/>
      <point x="42" y="65"/>
      <point x="42" y="217" type="curve" smooth="yes"/>
      <point x="42" y="381"/>
      <point x="165" y="467"/>
      <point x="303" y="467" type="curve" smooth="yes"/>
      <point x="346" y="467"/>
      <point x="380" y="455"/>
      <point x="412" y="434" type="curve"/>
    </contour>
    <contour>
      <point x="352" y="411" type="line"/>
      <point x="365" y="411" type="line"/>
      <point x="376" y="438"/>
      <point x="396" y="460"/>
      <point x="414" y="473" type="curve"/>
      <point x="424" y="473" type="line"/>
      <point x="424" y="-199" type="line"/>
      <point x="412" y="-174" type="line"/>
      <point x="441" y="-187"/>
      <point x="465" y="-193"/>
      <point x="495" y="-195" type="curve"/>
      <point x="495" y="-205"/>
      <point x="494" y="-217"/>
      <point x="492" y="-225" type="curve"/>
      <point x="258" y="-225" type="line"/>
      <point x="257" y="-216"/>
      <point x="256" y="-204"/>
      <point x="259" y="-195" type="curve"/>
      <point x="332" y="-189"/>
      <point x="352" y="-174"/>
      <point x="352" y="-138" type="curve" smooth="yes"/>
    </contour>
  </outline>
</glyph>
<glyph name="r" format="1">
  <advance width="353"/>
  <unicode hex="0072"/>
  <outline>
    <contour>
      <point x="205" y="463" type="move" name="top"/>
    </contour>
    <contour>
      <point x="135" y="0" type="move" name="bottom"/>
    </contour>
    <contour>
      <point x="344" y="396" type="curve"/>
      <point x="280" y="396"/>
      <point x="186" y="366"/>
      <point x="171" y="259" type="curve"/>
      <point x="154" y="259" type="line"/>
      <point x="167" y="380"/>
      <point x="254" y="467"/>
      <point x="346" y="467" type="curve"/>
      <point x="351" y="452"/>
      <point x="351" y="422"/>
    </contour>
    <contour>
      <point x="99" y="412" type="line"/>
      <point x="106" y="397" type="line"/>
      <point x="83" y="398"/>
      <point x="57" y="399"/>
      <point x="29" y="398" type="curve"/>
      <point x="29" y="407"/>
      <point x="31" y="417"/>
      <point x="33" y="424" type="curve"/>
      <point x="76" y="441"/>
      <point x="116" y="453"/>
      <point x="163" y="460" type="curve"/>
      <point x="169" y="423"/>
      <point x="171" y="382"/>
      <point x="171" y="336" type="curve"/>
      <point x="171" y="25" type="line"/>
      <point x="164" y="54" type="line"/>
      <point x="199" y="39"/>
      <point x="236" y="32"/>
      <point x="276" y="30" type="curve"/>
      <point x="276" y="20"/>
      <point x="275" y="8"/>
      <point x="272" y="0" type="curve"/>
      <point x="31" y="0" type="line"/>
      <point x="30" y="9"/>
      <point x="31" y="22"/>
      <point x="32" y="30" type="curve"/>
      <point x="81" y="36"/>
      <point x="99" y="46"/>
      <point x="99" y="80" type="curve"/>
    </contour>
  </outline>
</glyph>
<glyph name="s" format="1">
  <advance width="417"/>
  <unicode hex="0073"/>
  <outline>
    <contour>
      <point x="232" y="455" type="move" name="top"/>
    </contour>
    <contour>
      <point x="204" y="0" type="move" name="bottom"/>
    </contour>
    <contour>
      <point x="304" y="104" type="curve" smooth="yes"/>
      <point x="304" y="203"/>
      <point x="69" y="196"/>
      <point x="69" y="339" type="curve" smooth="yes"/>
      <point x="69" y="428"/>
      <point x="143" y="467"/>
      <point x="228" y="467" type="curve" smooth="yes"/>
      <point x="279" y="467"/>
      <point x="309" y="459"/>
      <point x="344" y="447" type="curve"/>
      <point x="346" y="405"/>
      <point x="344" y="367"/>
      <point x="339" y="334" type="curve"/>
      <point x="333" y="334"/>
      <point x="321" y="336"/>
      <point x="316" y="337" type="curve"/>
      <point x="325" y="417"/>
      <point x="276" y="431"/>
      <point x="226" y="431" type="curve" smooth="yes"/>
      <point x="173" y="431"/>
      <point x="135" y="401"/>
      <point x="135" y="353" type="curve" smooth="yes"/>
      <point x="135" y="249"/>
      <point x="375" y="260"/>
      <point x="375" y="122" type="curve" smooth="yes"/>
      <point x="375" y="35"/>
      <point x="292" y="-12"/>
      <point x="196" y="-12" type="curve" smooth="yes"/>
      <point x="142" y="-12"/>
      <point x="97" y="-4"/>
      <point x="57" y="9" type="curve"/>
      <point x="53" y="52"/>
      <point x="56" y="100"/>
      <point x="61" y="130" type="curve"/>
      <point x="67" y="130"/>
      <point x="77" y="129"/>
      <point x="84" y="128" type="curve"/>
      <point x="78" y="43"/>
      <point x="143" y="26"/>
      <point x="198" y="26" type="curve" smooth="yes"/>
      <point x="263" y="26"/>
      <point x="304" y="58"/>
    </contour>
  </outline>
</glyph>
<glyph name="t" format="1">
  <advance width="345"/>
  <unicode hex="0074"/>
  <outline>
    <contour>
      <point x="216" y="611" type="move" name="commaaccent"/>
    </contour>
    <contour>
      <point x="193" y="0" type="move" name="bottom"/>
    </contour>
    <contour>
      <point x="166" y="568" type="line"/>
      <point x="165" y="116" type="line"/>
      <point x="165" y="63"/>
      <point x="190" y="45"/>
      <point x="224" y="45" type="curve" smooth="yes"/>
      <point x="259" y="45"/>
      <point x="290" y="59"/>
      <point x="318" y="82" type="curve"/>
      <point x="329" y="69" type="line"/>
      <point x="299" y="22"/>
      <point x="254" y="-12"/>
      <point x="204" y="-12" type="curve" smooth="yes"/>
      <point x="145" y="-12"/>
      <point x="93" y="22"/>
      <point x="93" y="106" type="curve" smooth="yes"/>
      <point x="93" y="426" type="line"/>
      <point x="117" y="403" type="line"/>
      <point x="89" y="410"/>
      <point x="57" y="412"/>
      <point x="28" y="412" type="curve"/>
      <point x="27" y="420"/>
      <point x="28" y="428"/>
      <point x="29" y="433" type="curve"/>
      <point x="49" y="440"/>
      <point x="70" y="446"/>
      <point x="93" y="448" type="curve"/>
      <point x="150" y="573" type="line"/>
    </contour>
    <contour>
      <point x="147" y="450" type="line"/>
      <point x="202" y="450"/>
      <point x="253" y="451"/>
      <point x="306" y="456" type="curve"/>
      <point x="306" y="435"/>
      <point x="304" y="424"/>
      <point x="298" y="410" type="curve"/>
      <point x="147" y="410" type="line"/>
    </contour>
  </outline>
</glyph>
<glyph name="u" format="1">
  <advance width="542"/>
  <unicode hex="0075"/>
  <outline>
    <contour>
      <point x="257" y="455" type="move" name="top"/>
    </contour>
    <contour>
      <point x="457" y="13" type="move" name="ogonek"/>
    </contour>
    <contour>
      <point x="438" y="374" type="curve" smooth="yes"/>
      <point x="438" y="45" type="line"/>
      <point x="431" y="60" type="line"/>
      <point x="455" y="58"/>
      <point x="475" y="57"/>
      <point x="503" y="57" type="curve"/>
      <point x="504" y="49"/>
      <point x="505" y="40"/>
      <point x="504" y="31" type="curve"/>
      <point x="474" y="16"/>
      <point x="422" y="0"/>
      <point x="375" y="-5" type="curve"/>
      <point x="368" y="32"/>
      <point x="366" y="75"/>
      <point x="366" y="119" type="curve"/>
      <point x="366" y="366" type="line" smooth="yes"/>
      <point x="366" y="395"/>
      <point x="358" y="418"/>
      <point x="338" y="431" type="curve"/>
      <point x="339" y="436"/>
      <point x="341" y="443"/>
      <point x="343" y="446" type="curve"/>
      <point x="373" y="459"/>
      <point x="409" y="463"/>
      <point x="442" y="462" type="curve"/>
      <point x="439" y="435"/>
      <point x="438" y="409"/>
    </contour>
    <contour>
      <point x="149" y="149" type="line"/>
      <point x="149" y="82"/>
      <point x="184" y="43"/>
      <point x="236" y="43" type="curve" smooth="yes"/>
      <point x="285" y="43"/>
      <point x="334" y="81"/>
      <point x="368" y="149" type="curve"/>
      <point x="381" y="125" type="line"/>
      <point x="336" y="31"/>
      <point x="281" y="-12"/>
      <point x="212" y="-12" type="curve" smooth="yes"/>
      <point x="140" y="-12"/>
      <point x="77" y="40"/>
      <point x="77" y="143" type="curve" smooth="yes"/>
      <point x="77" y="409" type="line"/>
      <point x="85" y="397" type="line"/>
      <point x="64" y="399"/>
      <point x="46" y="399"/>
      <point x="18" y="398" type="curve"/>
      <point x="18" y="407"/>
      <point x="20" y="417"/>
      <point x="22" y="425" type="curve"/>
      <point x="65" y="443"/>
      <point x="98" y="456"/>
      <point x="149" y="462" type="curve"/>
    </contour>
  </outline>
</glyph>
<glyph name="v" format="1">
  <advance width="499"/>
  <unicode hex="0076"/>
  <outline>
    <contour>
      <point x="204" y="425" type="curve"/>
      <point x="178" y="423"/>
      <point x="152" y="420"/>
      <point x="127" y="406" type="curve"/>
      <point x="128" y="425" type="line"/>
      <point x="270" y="28" type="line"/>
      <point x="261" y="28" type="line"/>
      <point x="262" y="49"/>
      <point x="268" y="72"/>
      <point x="277" y="96" type="curve" smooth="yes"/>
      <point x="377" y="363" type="line" smooth="yes"/>
      <point x="391" y="400"/>
      <point x="389" y="420"/>
      <point x="317" y="425" type="curve"/>
      <point x="313" y="434"/>
      <point x="312" y="445"/>
      <point x="313" y="455" type="curve"/>
      <point x="510" y="455" type="line"/>
      <point x="511" y="445"/>
      <point x="508" y="435"/>
      <point x="505" y="425" type="curve"/>
      <point x="481" y="423"/>
      <point x="459" y="417"/>
      <point x="435" y="407" type="curve"/>
      <point x="450" y="427" type="line"/>
      <point x="279" y="-6" type="line"/>
      <point x="222" y="-6" type="line"/>
      <point x="70" y="370" type="line" smooth="yes"/>
      <point x="54" y="408"/>
      <point x="42" y="420"/>
      <point x="-4" y="425" type="curve"/>
      <point x="-6" y="434"/>
      <point x="-7" y="445"/>
      <point x="-6" y="455" type="curve"/>
      <point x="201" y="455" type="line"/>
      <point x="204" y="446"/>
      <point x="204" y="435"/>
    </contour>
  </outline>
</glyph>
<glyph name="w" format="1">
  <advance width="751"/>
  <unicode hex="0077"/>
  <outline>
    <contour>
      <point x="213" y="424" type="curve"/>
      <point x="158" y="419"/>
      <point x="146" y="402"/>
      <point x="155" y="374" type="curve" smooth="yes"/>
      <point x="234" y="143" type="line" smooth="yes"/>
      <point x="241" y="126"/>
      <point x="244" y="112"/>
      <point x="246" y="98" type="curve"/>
      <point x="248" y="98" type="line"/>
      <point x="377" y="435" type="line"/>
      <point x="406" y="435" type="line"/>
      <point x="509" y="143" type="line" smooth="yes"/>
      <point x="515" y="127"/>
      <point x="519" y="113"/>
      <point x="522" y="99" type="curve"/>
      <point x="524" y="99" type="line"/>
      <point x="622" y="364" type="line" smooth="yes"/>
      <point x="639" y="410"/>
      <point x="623" y="420"/>
      <point x="563" y="424" type="curve"/>
      <point x="562" y="433"/>
      <point x="561" y="445"/>
      <point x="563" y="455" type="curve"/>
      <point x="733" y="455" type="line"/>
      <point x="734" y="445"/>
      <point x="733" y="433"/>
      <point x="730" y="424" type="curve"/>
      <point x="703" y="419"/>
      <point x="686" y="414"/>
      <point x="661" y="401" type="curve"/>
      <point x="695" y="436" type="line"/>
      <point x="521" y="-6" type="line"/>
      <point x="492" y="-6" type="line"/>
      <point x="363" y="353" type="line"/>
      <point x="389" y="357" type="line"/>
      <point x="242" y="-6" type="line"/>
      <point x="213" y="-6" type="line"/>
      <point x="58" y="433" type="line"/>
      <point x="80" y="405" type="line"/>
      <point x="62" y="416"/>
      <point x="44" y="422"/>
      <point x="21" y="424" type="curve"/>
      <point x="20" y="433"/>
      <point x="18" y="444"/>
      <point x="20" y="455" type="curve"/>
      <point x="210" y="455" type="line"/>
      <point x="212" y="445"/>
      <point x="213" y="434"/>
    </contour>
  </outline>
</glyph>
<glyph name="x" format="1">
  <advance width="509"/>
  <unicode hex="0078"/>
  <outline>
    <contour>
      <point x="214" y="425" type="curve"/>
      <point x="187" y="423"/>
      <point x="166" y="423"/>
      <point x="139" y="406" type="curve"/>
      <point x="149" y="426" type="line"/>
      <point x="403" y="92" type="line" smooth="yes"/>
      <point x="437" y="48"/>
      <point x="455" y="35"/>
      <point x="498" y="30" type="curve"/>
      <point x="500" y="21"/>
      <point x="501" y="10"/>
      <point x="500" y="0" type="curve"/>
      <point x="303" y="0" type="line"/>
      <point x="301" y="9"/>
      <point x="300" y="20"/>
      <point x="300" y="30" type="curve"/>
      <point x="332" y="32"/>
      <point x="351" y="35"/>
      <point x="374" y="48" type="curve"/>
      <point x="373" y="22" type="line"/>
      <point x="109" y="366" type="line" smooth="yes"/>
      <point x="84" y="399"/>
      <point x="58" y="419"/>
      <point x="11" y="425" type="curve"/>
      <point x="8" y="434"/>
      <point x="7" y="445"/>
      <point x="8" y="455" type="curve"/>
      <point x="211" y="455" type="line"/>
      <point x="214" y="446"/>
      <point x="214" y="435"/>
    </contour>
    <contour>
      <point x="495" y="425" type="curve"/>
      <point x="454" y="422"/>
      <point x="435" y="406"/>
      <point x="409" y="375" type="curve" smooth="yes"/>
      <point x="288" y="230" type="line"/>
      <point x="265" y="258" type="line"/>
      <point x="400" y="428" type="line"/>
      <point x="399" y="410" type="line"/>
      <point x="383" y="419"/>
      <point x="362" y="423"/>
      <point x="333" y="425" type="curve"/>
      <point x="332" y="435"/>
      <point x="332" y="446"/>
      <point x="334" y="455" type="curve"/>
      <point x="499" y="455" type="line"/>
      <point x="500" y="444"/>
      <point x="499" y="434"/>
    </contour>
    <contour>
      <point x="248" y="204" type="line"/>
      <point x="109" y="28" type="line"/>
      <point x="112" y="43" type="line"/>
      <point x="133" y="34"/>
      <point x="151" y="32"/>
      <point x="175" y="30" type="curve"/>
      <point x="176" y="20"/>
      <point x="176" y="9"/>
      <point x="175" y="0" type="curve"/>
      <point x="8" y="0" type="line"/>
      <point x="9" y="11"/>
      <point x="10" y="21"/>
      <point x="12" y="30" type="curve"/>
      <point x="54" y="33"/>
      <point x="73" y="49"/>
      <point x="100" y="79" type="curve" smooth="yes"/>
      <point x="225" y="230" type="line"/>
    </contour>
  </outline>
</glyph>
<glyph name="y" format="1">
  <advance width="505"/>
  <unicode hex="0079"/>
  <outline>
    <contour>
      <point x="273" y="455" type="move" name="top"/>
    </contour>
    <contour>
      <point x="212" y="425" type="curve"/>
      <point x="183" y="423"/>
      <point x="154" y="418"/>
      <point x="130" y="405" type="curve"/>
      <point x="135" y="429" type="line"/>
      <point x="280" y="32" type="line"/>
      <point x="264" y="33" type="line"/>
      <point x="266" y="54"/>
      <point x="271" y="76"/>
      <point x="280" y="99" type="curve" smooth="yes"/>
      <point x="384" y="363" type="line" smooth="yes"/>
      <point x="400" y="403"/>
      <point x="389" y="420"/>
      <point x="323" y="425" type="curve"/>
      <point x="321" y="434"/>
      <point x="319" y="446"/>
      <point x="321" y="455" type="curve"/>
      <point x="504" y="455" type="line"/>
      <point x="505" y="445"/>
      <point x="503" y="435"/>
      <point x="499" y="425" type="curve"/>
      <point x="475" y="422"/>
      <point x="444" y="413"/>
      <point x="427" y="404" type="curve"/>
      <point x="464" y="439" type="line"/>
      <point x="237" y="-103" type="line" smooth="yes"/>
      <point x="202" y="-187"/>
      <point x="169" y="-225"/>
      <point x="112" y="-225" type="curve" smooth="yes"/>
      <point x="99" y="-225" type="line"/>
      <point x="91" y="-204"/>
      <point x="87" y="-178"/>
      <point x="91" y="-155" type="curve"/>
      <point x="110" y="-155" type="line" smooth="yes"/>
      <point x="152" y="-155"/>
      <point x="172" y="-143"/>
      <point x="197" y="-92" type="curve" smooth="yes"/>
      <point x="245" y="11" type="line"/>
      <point x="241" y="-34" type="line"/>
      <point x="77" y="370" type="line" smooth="yes"/>
      <point x="63" y="408"/>
      <point x="50" y="420"/>
      <point x="4" y="425" type="curve"/>
      <point x="2" y="434"/>
      <point x="1" y="445"/>
      <point x="2" y="455" type="curve"/>
      <point x="208" y="455" type="line"/>
      <point x="211" y="446"/>
      <point x="212" y="435"/>
    </contour>
  </outline>
</glyph>
<glyph name="z" format="1">
  <advance width="450"/>
  <unicode hex="007A"/>
  <outline>
    <contour>
      <point x="236" y="455" type="move" name="top"/>
    </contour>
    <contour>
      <point x="121" y="19" type="line"/>
      <point x="112" y="37" type="line"/>
      <point x="283" y="37" type="line" smooth="yes"/>
      <point x="350" y="37"/>
      <point x="372" y="62"/>
      <point x="384" y="134" type="curve"/>
      <point x="391" y="134"/>
      <point x="398" y="133"/>
      <point x="405" y="130" type="curve"/>
      <point x="406" y="87"/>
      <point x="402" y="45"/>
      <point x="395" y="0" type="curve"/>
      <point x="45" y="0" type="line"/>
      <point x="42" y="12"/>
      <point x="43" y="27"/>
      <point x="47" y="40" type="curve"/>
      <point x="330" y="432" type="line"/>
      <point x="345" y="419" type="line"/>
      <point x="180" y="419" type="line" smooth="yes"/>
      <point x="113" y="419"/>
      <point x="91" y="392"/>
      <point x="79" y="320" type="curve"/>
      <point x="73" y="320"/>
      <point x="65" y="322"/>
      <point x="58" y="326" type="curve"/>
      <point x="58" y="368"/>
      <point x="61" y="411"/>
      <point x="68" y="455" type="curve"/>
      <point x="403" y="455" type="line"/>
      <point x="406" y="444"/>
      <point x="408" y="426"/>
      <point x="402" y="413" type="curve" smooth="yes"/>
    </contour>
  </outline>
</glyph>
<glyph name="braceleft" format="1">
  <advance width="395"/>
  <unicode hex="007B"/>
  <outline>
    <contour>
      <point x="92" y="303" type="line"/>
      <point x="153" y="298"/>
      <point x="168" y="266"/>
      <point x="168" y="221" type="curve" smooth="yes"/>
      <point x="168" y="164"/>
      <point x="131" y="105"/>
      <point x="131" y="27" type="curve" smooth="yes"/>
      <point x="131" y="-74"/>
      <point x="208" y="-136"/>
      <point x="362" y="-133" type="curve"/>
      <point x="362" y="-107" type="line"/>
      <point x="233" y="-104"/>
      <point x="201" y="-42"/>
      <point x="201" y="22" type="curve" smooth="yes"/>
      <point x="201" y="100"/>
      <point x="237" y="148"/>
      <point x="237" y="219" type="curve" smooth="yes"/>
      <point x="237" y="276"/>
      <point x="208" y="313"/>
      <point x="152" y="327" type="curve"/>
      <point x="208" y="340"/>
      <point x="237" y="377"/>
      <point x="237" y="434" type="curve" smooth="yes"/>
      <point x="237" y="505"/>
      <point x="201" y="553"/>
      <point x="201" y="631" type="curve" smooth="yes"/>
      <point x="201" y="695"/>
      <point x="233" y="758"/>
      <point x="362" y="760" type="curve"/>
      <point x="362" y="786" type="line"/>
      <point x="208" y="789"/>
      <point x="131" y="727"/>
      <point x="131" y="626" type="curve" smooth="yes"/>
      <point x="131" y="548"/>
      <point x="168" y="489"/>
      <point x="168" y="432" type="curve" smooth="yes"/>
      <point x="168" y="387"/>
      <point x="153" y="355"/>
      <point x="92" y="350" type="curve"/>
    </contour>
  </outline>
</glyph>
<glyph name="bar" format="1">
  <advance width="323"/>
  <unicode hex="007C"/>
  <outline>
    <contour>
      <point x="132" y="693" type="line"/>
      <point x="132" y="-26" type="line"/>
      <point x="193" y="-26" type="line"/>
      <point x="193" y="693" type="line"/>
    </contour>
  </outline>
</glyph>
<glyph name="braceright" format="1">
  <advance width="395"/>
  <unicode hex="007D"/>
  <outline>
    <contour>
      <point x="226" y="432" type="curve" smooth="yes"/>
      <point x="226" y="489"/>
      <point x="264" y="548"/>
      <point x="264" y="626" type="curve" smooth="yes"/>
      <point x="264" y="727"/>
      <point x="186" y="789"/>
      <point x="32" y="786" type="curve"/>
      <point x="32" y="760" type="line"/>
      <point x="162" y="758"/>
      <point x="194" y="695"/>
      <point x="194" y="631" type="curve" smooth="yes"/>
      <point x="194" y="553"/>
      <point x="158" y="505"/>
      <point x="158" y="434" type="curve" smooth="yes"/>
      <point x="158" y="377"/>
      <point x="187" y="340"/>
      <point x="242" y="327" type="curve"/>
      <point x="187" y="313"/>
      <point x="158" y="276"/>
      <point x="158" y="219" type="curve" smooth="yes"/>
      <point x="158" y="148"/>
      <point x="194" y="100"/>
      <point x="194" y="22" type="curve" smooth="yes"/>
      <point x="194" y="-42"/>
      <point x="162" y="-104"/>
      <point x="32" y="-107" type="curve"/>
      <point x="32" y="-133" type="line"/>
      <point x="186" y="-136"/>
      <point x="264" y="-74"/>
      <point x="264" y="27" type="curve" smooth="yes"/>
      <point x="264" y="105"/>
      <point x="226" y="164"/>
      <point x="226" y="221" type="curve" smooth="yes"/>
      <point x="226" y="266"/>
      <point x="241" y="298"/>
      <point x="303" y="303" type="curve"/>
      <point x="303" y="350" type="line"/>
      <point x="241" y="355"/>
      <point x="226" y="387"/>
    </contour>
  </outline>
</glyph>
<glyph name="asciitilde" format="1">
  <advance width="621"/>
  <unicode hex="007E"/>
  <outline>
    <contour>
      <point x="447" y="312" type="curve" smooth="yes"/>
      <point x="494" y="312"/>
      <point x="528" y="342"/>
      <point x="537" y="391" type="curve"/>
      <point x="571" y="391" type="line"/>
      <point x="560" y="301"/>
      <point x="505" y="249"/>
      <point x="428" y="249" type="curve" smooth="yes"/>
      <point x="329" y="249"/>
      <point x="248" y="333"/>
      <point x="174" y="333" type="curve" smooth="yes"/>
      <point x="127" y="333"/>
      <point x="93" y="303"/>
      <point x="84" y="254" type="curve"/>
      <point x="50" y="254" type="line"/>
      <point x="61" y="344"/>
      <point x="116" y="396"/>
      <point x="192" y="396" type="curve" smooth="yes"/>
      <point x="279" y="396"/>
      <point x="371" y="312"/>
    </contour>
  </outline>
</glyph>
<glyph name="sterling" format="1">
  <advance width="505"/>
  <unicode hex="00A3"/>
  <outline>
    <contour>
      <point x="419" y="578" type="curve"/>
      <point x="418" y="559"/>
      <point x="415" y="489"/>
      <point x="410" y="471" type="curve"/>
      <point x="387" y="471" type="line"/>
      <point x="379" y="527"/>
      <point x="346" y="576"/>
      <point x="279" y="576" type="curve" smooth="yes"/>
      <point x="212" y="576"/>
      <point x="166" y="529"/>
      <point x="166" y="439" type="curve" smooth="yes"/>
      <point x="166" y="372"/>
      <point x="196" y="305"/>
      <point x="196" y="227" type="curve" smooth="yes"/>
      <point x="196" y="155"/>
      <point x="171" y="90"/>
      <point x="128" y="46" type="curve"/>
      <point x="166" y="64"/>
      <point x="202" y="71"/>
      <point x="236" y="71" type="curve" smooth="yes"/>
      <point x="291" y="71"/>
      <point x="329" y="46"/>
      <point x="378" y="46" type="curve" smooth="yes"/>
      <point x="421" y="46"/>
      <point x="442" y="74"/>
      <point x="442" y="122" type="curve"/>
      <point x="450" y="123"/>
      <point x="460" y="121"/>
      <point x="465" y="118" type="curve"/>
      <point x="466" y="115"/>
      <point x="468" y="102"/>
      <point x="468" y="91" type="curve" smooth="yes"/>
      <point x="468" y="33"/>
      <point x="435" y="-12"/>
      <point x="365" y="-12" type="curve" smooth="yes"/>
      <point x="283" y="-12"/>
      <point x="267" y="12"/>
      <point x="206" y="12" type="curve" smooth="yes"/>
      <point x="163" y="12"/>
      <point x="96" y="3"/>
      <point x="63" y="-11" type="curve"/>
      <point x="56" y="-7"/>
      <point x="50" y="1"/>
      <point x="47" y="11" type="curve"/>
      <point x="104" y="57"/>
      <point x="128" y="136"/>
      <point x="128" y="210" type="curve" smooth="yes"/>
      <point x="128" y="288"/>
      <point x="97" y="359"/>
      <point x="97" y="438" type="curve" smooth="yes"/>
      <point x="97" y="554"/>
      <point x="172" y="624"/>
      <point x="279" y="624" type="curve" smooth="yes"/>
      <point x="338" y="624"/>
      <point x="387" y="602"/>
    </contour>
    <contour>
      <point x="364" y="331" type="line"/>
      <point x="349" y="294" type="line"/>
      <point x="50" y="294" type="line"/>
      <point x="65" y="331" type="line"/>
    </contour>
  </outline>
</glyph>
<glyph name="currency" format="1">
  <advance width="454"/>
  <unicode hex="00A4"/>
  <outline>
    <contour>
      <point x="226" y="171" type="curve" smooth="yes"/>
      <point x="302" y="171"/>
      <point x="373" y="224"/>
      <point x="373" y="321" type="curve" smooth="yes"/>
      <point x="373" y="417"/>
      <point x="302" y="473"/>
      <point x="226" y="473" type="curve" smooth="yes"/>
      <point x="150" y="473"/>
      <point x="80" y="417"/>
      <point x="80" y="321" type="curve" smooth="yes"/>
      <point x="80" y="224"/>
      <point x="150" y="171"/>
    </contour>
    <contour>
      <point x="226" y="439" type="curve" smooth="yes"/>
      <point x="270" y="439"/>
      <point x="313" y="408"/>
      <point x="313" y="322" type="curve" smooth="yes"/>
      <point x="313" y="237"/>
      <point x="270" y="204"/>
      <point x="226" y="204" type="curve" smooth="yes"/>
      <point x="183" y="204"/>
      <point x="140" y="237"/>
      <point x="140" y="322" type="curve" smooth="yes"/>
      <point x="140" y="408"/>
      <point x="183" y="439"/>
    </contour>
    <contour>
      <point x="143" y="415" type="line"/>
      <point x="60" y="480" type="line"/>
      <point x="30" y="439" type="line"/>
      <point x="111" y="382" type="line"/>
    </contour>
    <contour>
      <point x="424" y="439" type="line"/>
      <point x="393" y="480" type="line"/>
      <point x="311" y="415" type="line"/>
      <point x="342" y="382" type="line"/>
    </contour>
    <contour>
      <point x="30" y="204" type="line"/>
      <point x="60" y="163" type="line"/>
      <point x="143" y="228" type="line"/>
      <point x="111" y="262" type="line"/>
    </contour>
    <contour>
      <point x="311" y="228" type="line"/>
      <point x="393" y="163" type="line"/>
      <point x="424" y="204" type="line"/>
      <point x="342" y="262" type="line"/>
    </contour>
  </outline>
</glyph>
<glyph name="brokenbar" format="1">
  <advance width="325"/>
  <unicode hex="00A6"/>
  <outline>
    <contour>
      <point x="132" y="260" type="line"/>
      <point x="132" y="-26" type="line"/>
      <point x="193" y="-26" type="line"/>
      <point x="193" y="260" type="line"/>
    </contour>
    <contour>
      <point x="193" y="407" type="line"/>
      <point x="193" y="693" type="line"/>
      <point x="132" y="693" type="line"/>
      <point x="132" y="407" type="line"/>
    </contour>
  </outline>
</glyph>
<glyph name="section" format="1">
  <advance width="471"/>
  <unicode hex="00A7"/>
  <outline>
    <contour>
      <point x="239" y="367" type="line"/>
      <point x="163" y="351"/>
      <point x="110" y="314"/>
      <point x="110" y="245" type="curve" smooth="yes"/>
      <point x="110" y="194"/>
      <point x="138" y="170"/>
      <point x="225" y="112" type="curve" smooth="yes"/>
      <point x="321" y="48"/>
      <point x="364" y="15"/>
      <point x="364" y="-45" type="curve" smooth="yes"/>
      <point x="364" y="-119"/>
      <point x="300" y="-165"/>
      <point x="222" y="-165" type="curve" smooth="yes"/>
      <point x="181" y="-165"/>
      <point x="144" y="-155"/>
      <point x="106" y="-137" type="curve"/>
      <point x="104" y="-107"/>
      <point x="106" y="-69"/>
      <point x="112" y="-41" type="curve"/>
      <point x="120" y="-41"/>
      <point x="126" y="-41"/>
      <point x="136" y="-43" type="curve"/>
      <point x="135" y="-94"/>
      <point x="177" y="-125"/>
      <point x="224" y="-126" type="curve" smooth="yes"/>
      <point x="272" y="-127"/>
      <point x="296" y="-100"/>
      <point x="296" y="-63" type="curve" smooth="yes"/>
      <point x="296" y="-8"/>
      <point x="233" y="20"/>
      <point x="154" y="76" type="curve" smooth="yes"/>
      <point x="91" y="121"/>
      <point x="44" y="156"/>
      <point x="44" y="231" type="curve" smooth="yes"/>
      <point x="44" y="320"/>
      <point x="125" y="368"/>
      <point x="208" y="386" type="curve"/>
    </contour>
    <contour>
      <point x="359" y="595" type="curve"/>
      <point x="361" y="565"/>
      <point x="359" y="527"/>
      <point x="353" y="499" type="curve"/>
      <point x="345" y="499"/>
      <point x="338" y="499"/>
      <point x="329" y="501" type="curve"/>
      <point x="330" y="552"/>
      <point x="290" y="583"/>
      <point x="246" y="584" type="curve" smooth="yes"/>
      <point x="198" y="585"/>
      <point x="175" y="559"/>
      <point x="175" y="522" type="curve" smooth="yes"/>
      <point x="175" y="466"/>
      <point x="238" y="438"/>
      <point x="317" y="382" type="curve" smooth="yes"/>
      <point x="380" y="337"/>
      <point x="426" y="302"/>
      <point x="426" y="227" type="curve" smooth="yes"/>
      <point x="426" y="138"/>
      <point x="345" y="90"/>
      <point x="263" y="72" type="curve"/>
      <point x="231" y="91" type="line"/>
      <point x="308" y="107"/>
      <point x="360" y="145"/>
      <point x="360" y="213" type="curve" smooth="yes"/>
      <point x="360" y="265"/>
      <point x="331" y="289"/>
      <point x="244" y="347" type="curve" smooth="yes"/>
      <point x="149" y="411"/>
      <point x="106" y="444"/>
      <point x="106" y="504" type="curve" smooth="yes"/>
      <point x="106" y="575"/>
      <point x="171" y="624"/>
      <point x="247" y="624" type="curve" smooth="yes"/>
      <point x="289" y="624"/>
      <point x="321" y="613"/>
    </contour>
  </outline>
</glyph>
<glyph name="dieresis" format="1">
  <advance width="237"/>
  <unicode hex="00A8"/>
  <outline>
    <contour>
      <point x="119" y="455" type="move" name="_top"/>
    </contour>
    <contour>
      <point x="95" y="560" type="curve" smooth="yes"/>
      <point x="95" y="536"/>
      <point x="76" y="517"/>
      <point x="52" y="517" type="curve" smooth="yes"/>
      <point x="28" y="517"/>
      <point x="10" y="536"/>
      <point x="10" y="560" type="curve" smooth="yes"/>
      <point x="10" y="585"/>
      <point x="28" y="604"/>
      <point x="52" y="604" type="curve" smooth="yes"/>
      <point x="76" y="604"/>
      <point x="95" y="585"/>
    </contour>
    <contour>
      <point x="227" y="560" type="curve" smooth="yes"/>
      <point x="227" y="536"/>
      <point x="208" y="517"/>
      <point x="184" y="517" type="curve" smooth="yes"/>
      <point x="161" y="517"/>
      <point x="143" y="536"/>
      <point x="143" y="560" type="curve" smooth="yes"/>
      <point x="143" y="585"/>
      <point x="161" y="604"/>
      <point x="184" y="604" type="curve" smooth="yes"/>
      <point x="208" y="604"/>
      <point x="227" y="585"/>
    </contour>
  </outline>
</glyph>
<glyph name="copyright" format="1">
  <advance width="771"/>
  <unicode hex="00A9"/>
  <outline>
    <contour>
      <point x="332" y="599" type="move" name="top"/>
    </contour>
    <contour>
      <point x="286" y="0" type="move" name="bottom"/>
    </contour>
    <contour>
      <point x="96" y="317" type="curve" smooth="yes"/>
      <point x="96" y="126"/>
      <point x="227" y="20"/>
      <point x="386" y="20" type="curve" smooth="yes"/>
      <point x="545" y="20"/>
      <point x="675" y="126"/>
      <point x="675" y="317" type="curve" smooth="yes"/>
      <point x="675" y="507"/>
      <point x="545" y="613"/>
      <point x="386" y="613" type="curve" smooth="yes"/>
      <point x="227" y="613"/>
      <point x="96" y="507"/>
    </contour>
    <contour>
      <point x="719" y="317" type="curve" smooth="yes"/>
      <point x="719" y="111"/>
      <point x="574" y="-15"/>
      <point x="386" y="-15" type="curve" smooth="yes"/>
      <point x="197" y="-15"/>
      <point x="52" y="111"/>
      <point x="52" y="317" type="curve" smooth="yes"/>
      <point x="52" y="522"/>
      <point x="197" y="649"/>
      <point x="386" y="649" type="curve" smooth="yes"/>
      <point x="574" y="649"/>
      <point x="719" y="522"/>
    </contour>
    <contour>
      <point x="512" y="511" type="curve"/>
      <point x="512" y="485"/>
      <point x="506" y="449"/>
      <point x="499" y="424" type="curve"/>
      <point x="492" y="422"/>
      <point x="485" y="422"/>
      <point x="477" y="423" type="curve"/>
      <point x="477" y="470"/>
      <point x="449" y="493"/>
      <point x="406" y="493" type="curve" smooth="yes"/>
      <point x="319" y="493"/>
      <point x="270" y="424"/>
      <point x="270" y="320" type="curve" smooth="yes"/>
      <point x="270" y="214"/>
      <point x="322" y="154"/>
      <point x="400" y="154" type="curve" smooth="yes"/>
      <point x="439" y="154"/>
      <point x="469" y="164"/>
      <point x="505" y="188" type="curve"/>
      <point x="524" y="170" type="line"/>
      <point x="490" y="135"/>
      <point x="447" y="110"/>
      <point x="388" y="110" type="curve" smooth="yes"/>
      <point x="287" y="110"/>
      <point x="206" y="188"/>
      <point x="206" y="317" type="curve" smooth="yes"/>
      <point x="206" y="445"/>
      <point x="291" y="533"/>
      <point x="407" y="533" type="curve" smooth="yes"/>
      <point x="447" y="533"/>
      <point x="487" y="522"/>
    </contour>
  </outline>
</glyph>
<glyph name="ordfeminine" format="1">
  <advance width="333"/>
  <unicode hex="00AA"/>
  <outline>
    <contour>
      <point x="217" y="439" type="line"/>
      <point x="148" y="443"/>
      <point x="85" y="426"/>
      <point x="85" y="367" type="curve" smooth="yes"/>
      <point x="85" y="342"/>
      <point x="101" y="320"/>
      <point x="137" y="320" type="curve" smooth="yes"/>
      <point x="170" y="320"/>
      <point x="197" y="331"/>
      <point x="224" y="362" type="curve"/>
      <point x="226" y="338" type="line"/>
      <point x="198" y="306"/>
      <point x="166" y="282"/>
      <point x="119" y="282" type="curve" smooth="yes"/>
      <point x="71" y="282"/>
      <point x="31" y="312"/>
      <point x="31" y="364" type="curve" smooth="yes"/>
      <point x="31" y="447"/>
      <point x="130" y="471"/>
      <point x="217" y="461" type="curve"/>
    </contour>
    <contour>
      <point x="262" y="522" type="curve" smooth="yes"/>
      <point x="262" y="357" type="line" smooth="yes"/>
      <point x="262" y="329"/>
      <point x="269" y="318"/>
      <point x="285" y="318" type="curve" smooth="yes"/>
      <point x="292" y="318"/>
      <point x="301" y="320"/>
      <point x="311" y="323" type="curve"/>
      <point x="315" y="314" type="line"/>
      <point x="302" y="297"/>
      <point x="284" y="282"/>
      <point x="262" y="282" type="curve" smooth="yes"/>
      <point x="234" y="282"/>
      <point x="212" y="301"/>
      <point x="212" y="336" type="curve"/>
      <point x="212" y="516" type="line" smooth="yes"/>
      <point x="212" y="556"/>
      <point x="196" y="577"/>
      <point x="150" y="577" type="curve" smooth="yes"/>
      <point x="120" y="577"/>
      <point x="90" y="571"/>
      <point x="61" y="555" type="curve"/>
      <point x="53" y="570" type="line"/>
      <point x="85" y="603"/>
      <point x="124" y="618"/>
      <point x="167" y="618" type="curve" smooth="yes"/>
      <point x="229" y="618"/>
      <point x="262" y="582"/>
    </contour>
  </outline>
</glyph>
<glyph name="guillemotleft" format="1">
  <advance width="604"/>
  <unicode hex="00AB"/>
  <outline>
    <contour>
      <point x="122" y="326" type="line"/>
      <point x="282" y="143" type="line"/>
      <point x="316" y="161" type="line"/>
      <point x="191" y="326" type="line"/>
      <point x="316" y="491" type="line"/>
      <point x="282" y="508" type="line"/>
    </contour>
    <contour>
      <point x="283" y="326" type="line"/>
      <point x="443" y="143" type="line"/>
      <point x="476" y="161" type="line"/>
      <point x="352" y="326" type="line"/>
      <point x="476" y="491" type="line"/>
      <point x="443" y="508" type="line"/>
    </contour>
  </outline>
</glyph>
<glyph name="logicalnot" format="1">
  <advance width="593"/>
  <unicode hex="00AC"/>
  <outline>
    <contour>
      <point x="511" y="228" type="line"/>
      <point x="466" y="228" type="line"/>
      <point x="466" y="346" type="line"/>
      <point x="74" y="346" type="line"/>
      <point x="74" y="405" type="line"/>
      <point x="511" y="405" type="line"/>
    </contour>
  </outline>
</glyph>
<glyph name="registered" format="1">
  <advance width="762"/>
  <unicode hex="00AE"/>
  <outline>
    <contour>
      <point x="387" y="514" type="move" name="top"/>
    </contour>
    <contour>
      <point x="391" y="127" type="move" name="bottom"/>
    </contour>
    <contour>
      <point x="103" y="317" type="curve" smooth="yes"/>
      <point x="103" y="126"/>
      <point x="228" y="20"/>
      <point x="381" y="20" type="curve" smooth="yes"/>
      <point x="534" y="20"/>
      <point x="659" y="126"/>
      <point x="659" y="317" type="curve" smooth="yes"/>
      <point x="659" y="507"/>
      <point x="534" y="613"/>
      <point x="381" y="613" type="curve" smooth="yes"/>
      <point x="228" y="613"/>
      <point x="103" y="507"/>
    </contour>
    <contour>
      <point x="702" y="317" type="curve" smooth="yes"/>
      <point x="702" y="111"/>
      <point x="563" y="-15"/>
      <point x="381" y="-15" type="curve" smooth="yes"/>
      <point x="199" y="-15"/>
      <point x="60" y="111"/>
      <point x="60" y="317" type="curve" smooth="yes"/>
      <point x="60" y="522"/>
      <point x="199" y="649"/>
      <point x="381" y="649" type="curve" smooth="yes"/>
      <point x="563" y="649"/>
      <point x="702" y="522"/>
    </contour>
    <contour>
      <point x="515" y="410" type="curve" smooth="yes"/>
      <point x="515" y="351"/>
      <point x="466" y="297"/>
      <point x="381" y="297" type="curve" smooth="yes"/>
      <point x="305" y="297" type="line"/>
      <point x="302" y="303"/>
      <point x="302" y="320"/>
      <point x="302" y="328" type="curve"/>
      <point x="371" y="328" type="line" smooth="yes"/>
      <point x="435" y="328"/>
      <point x="465" y="360"/>
      <point x="465" y="410" type="curve" smooth="yes"/>
      <point x="465" y="462"/>
      <point x="438" y="493"/>
      <point x="371" y="493" type="curve" smooth="yes"/>
      <point x="310" y="493" type="line"/>
      <point x="320" y="507" type="line"/>
      <point x="320" y="150" type="line"/>
      <point x="314" y="167" type="line"/>
      <point x="336" y="158"/>
      <point x="359" y="153"/>
      <point x="382" y="152" type="curve"/>
      <point x="383" y="146"/>
      <point x="382" y="134"/>
      <point x="381" y="129" type="curve"/>
      <point x="233" y="129" type="line"/>
      <point x="232" y="135"/>
      <point x="233" y="148"/>
      <point x="236" y="152" type="curve"/>
      <point x="265" y="156"/>
      <point x="276" y="162"/>
      <point x="276" y="183" type="curve" smooth="yes"/>
      <point x="276" y="500" type="line"/>
      <point x="289" y="487" type="line"/>
      <point x="268" y="498"/>
      <point x="251" y="503"/>
      <point x="231" y="504" type="curve"/>
      <point x="231" y="509"/>
      <point x="232" y="519"/>
      <point x="234" y="524" type="curve"/>
      <point x="381" y="524" type="line" smooth="yes"/>
      <point x="466" y="524"/>
      <point x="515" y="470"/>
    </contour>
    <contour>
      <point x="390" y="272" type="line"/>
      <point x="383" y="285"/>
      <point x="375" y="297"/>
      <point x="353" y="297" type="curve"/>
      <point x="386" y="308" type="line"/>
      <point x="417" y="306"/>
      <point x="425" y="291"/>
      <point x="438" y="272" type="curve" smooth="yes"/>
      <point x="494" y="188" type="line" smooth="yes"/>
      <point x="514" y="158"/>
      <point x="530" y="152"/>
      <point x="555" y="152" type="curve"/>
      <point x="555" y="146"/>
      <point x="555" y="135"/>
      <point x="553" y="129" type="curve"/>
      <point x="480" y="129" type="line"/>
    </contour>
  </outline>
</glyph>
<glyph name="macron" format="1">
  <advance width="247"/>
  <unicode hex="00AF"/>
  <outline>
    <contour>
      <point x="124" y="455" type="move" name="_top"/>
    </contour>
    <contour>
      <point x="10" y="522" type="line"/>
      <point x="237" y="522" type="line"/>
      <point x="237" y="557" type="line"/>
      <point x="10" y="557" type="line"/>
    </contour>
  </outline>
</glyph>
<glyph name="degree" format="1">
  <advance width="308"/>
  <unicode hex="00B0"/>
  <outline>
    <contour>
      <point x="153" y="396" type="curve" smooth="yes"/>
      <point x="222" y="396"/>
      <point x="278" y="439"/>
      <point x="278" y="521" type="curve" smooth="yes"/>
      <point x="278" y="603"/>
      <point x="222" y="647"/>
      <point x="153" y="647" type="curve" smooth="yes"/>
      <point x="85" y="647"/>
      <point x="30" y="603"/>
      <point x="30" y="521" type="curve" smooth="yes"/>
      <point x="30" y="439"/>
      <point x="85" y="396"/>
    </contour>
    <contour>
      <point x="153" y="614" type="curve" smooth="yes"/>
      <point x="188" y="614"/>
      <point x="219" y="589"/>
      <point x="219" y="522" type="curve" smooth="yes"/>
      <point x="219" y="456"/>
      <point x="188" y="430"/>
      <point x="153" y="430" type="curve" smooth="yes"/>
      <point x="118" y="430"/>
      <point x="89" y="456"/>
      <point x="89" y="522" type="curve" smooth="yes"/>
      <point x="89" y="589"/>
      <point x="118" y="614"/>
    </contour>
  </outline>
</glyph>
<glyph name="plusminus" format="1">
  <advance width="576"/>
  <unicode hex="00B1"/>
  <outline>
    <contour>
      <point x="494" y="133" type="line"/>
      <point x="494" y="82" type="line"/>
      <point x="47" y="82" type="line"/>
      <point x="47" y="133" type="line"/>
    </contour>
    <contour>
      <point x="494" y="404" type="line"/>
      <point x="296" y="404" type="line"/>
      <point x="296" y="561" type="line"/>
      <point x="245" y="561" type="line"/>
      <point x="245" y="404" type="line"/>
      <point x="47" y="404" type="line"/>
      <point x="47" y="352" type="line"/>
      <point x="245" y="352" type="line"/>
      <point x="245" y="194" type="line"/>
      <point x="296" y="194" type="line"/>
      <point x="296" y="352" type="line"/>
      <point x="494" y="352" type="line"/>
    </contour>
  </outline>
</glyph>
<glyph name="twosuperior" format="1">
  <advance width="274"/>
  <unicode hex="00B2"/>
  <outline>
    <contour>
      <point x="55" y="587" type="curve"/>
      <point x="52" y="570"/>
      <point x="51" y="545"/>
      <point x="51" y="527" type="curve"/>
      <point x="56" y="526"/>
      <point x="63" y="526"/>
      <point x="67" y="526" type="curve"/>
      <point x="77" y="561"/>
      <point x="103" y="576"/>
      <point x="130" y="576" type="curve" smooth="yes"/>
      <point x="161" y="576"/>
      <point x="183" y="553"/>
      <point x="183" y="518" type="curve" smooth="yes"/>
      <point x="183" y="475"/>
      <point x="162" y="444"/>
      <point x="40" y="318" type="curve"/>
      <point x="40" y="311"/>
      <point x="42" y="294"/>
      <point x="44" y="285" type="curve"/>
      <point x="224" y="285" type="line"/>
      <point x="229" y="310"/>
      <point x="231" y="348"/>
      <point x="231" y="372" type="curve"/>
      <point x="226" y="374"/>
      <point x="219" y="374"/>
      <point x="215" y="374" type="curve"/>
      <point x="209" y="337"/>
      <point x="198" y="323"/>
      <point x="163" y="323" type="curve" smooth="yes"/>
      <point x="60" y="323" type="line"/>
      <point x="70" y="314" type="line"/>
      <point x="199" y="435"/>
      <point x="232" y="467"/>
      <point x="232" y="523" type="curve" smooth="yes"/>
      <point x="232" y="578"/>
      <point x="189" y="613"/>
      <point x="135" y="613" type="curve" smooth="yes"/>
      <point x="107" y="613"/>
      <point x="78" y="604"/>
    </contour>
  </outline>
</glyph>
<glyph name="threesuperior" format="1">
  <advance width="243"/>
  <unicode hex="00B3"/>
  <outline>
    <contour>
      <point x="209" y="537" type="curve" smooth="yes"/>
      <point x="209" y="496"/>
      <point x="170" y="460"/>
      <point x="125" y="449" type="curve"/>
      <point x="125" y="456" type="line"/>
      <point x="189" y="446"/>
      <point x="218" y="413"/>
      <point x="218" y="367" type="curve" smooth="yes"/>
      <point x="218" y="315"/>
      <point x="163" y="281"/>
      <point x="112" y="281" type="curve" smooth="yes"/>
      <point x="75" y="281"/>
      <point x="47" y="290"/>
      <point x="21" y="311" type="curve"/>
      <point x="23" y="320"/>
      <point x="28" y="331"/>
      <point x="33" y="337" type="curve"/>
      <point x="51" y="322"/>
      <point x="75" y="313"/>
      <point x="103" y="313" type="curve" smooth="yes"/>
      <point x="142" y="313"/>
      <point x="171" y="333"/>
      <point x="171" y="369" type="curve" smooth="yes"/>
      <point x="171" y="410"/>
      <point x="140" y="431"/>
      <point x="82" y="435" type="curve"/>
      <point x="82" y="462" type="line"/>
      <point x="126" y="464"/>
      <point x="159" y="492"/>
      <point x="159" y="527" type="curve" smooth="yes"/>
      <point x="159" y="561"/>
      <point x="136" y="579"/>
      <point x="110" y="579" type="curve" smooth="yes"/>
      <point x="81" y="579"/>
      <point x="58" y="563"/>
      <point x="50" y="531" type="curve"/>
      <point x="46" y="531"/>
      <point x="37" y="531"/>
      <point x="34" y="532" type="curve"/>
      <point x="34" y="551"/>
      <point x="35" y="572"/>
      <point x="36" y="590" type="curve"/>
      <point x="62" y="604"/>
      <point x="90" y="613"/>
      <point x="122" y="613" type="curve" smooth="yes"/>
      <point x="166" y="613"/>
      <point x="209" y="584"/>
    </contour>
  </outline>
</glyph>
<glyph name="acute" format="1">
  <advance width="193"/>
  <unicode hex="00B4"/>
  <outline>
    <contour>
      <point x="21" y="456" type="move" name="_top"/>
    </contour>
    <contour>
      <point x="183" y="642" type="curve"/>
      <point x="183" y="632" type="line"/>
      <point x="31" y="495" type="line"/>
      <point x="10" y="508" type="line"/>
      <point x="119" y="674" type="line"/>
      <point x="141" y="671"/>
      <point x="169" y="656"/>
    </contour>
  </outline>
</glyph>
<glyph name="paragraph" format="1">
  <advance width="496"/>
  <unicode hex="00B6"/>
  <outline>
    <contour>
      <point x="464" y="611" type="line"/>
      <point x="464" y="603"/>
      <point x="464" y="591"/>
      <point x="462" y="583" type="curve"/>
      <point x="413" y="578"/>
      <point x="392" y="559"/>
      <point x="392" y="512" type="curve" smooth="yes"/>
      <point x="392" y="13" type="line" smooth="yes"/>
      <point x="392" y="-111"/>
      <point x="326" y="-177"/>
      <point x="215" y="-225" type="curve"/>
      <point x="194" y="-205" type="line"/>
      <point x="248" y="-145"/>
      <point x="254" y="-83"/>
      <point x="254" y="13" type="curve" smooth="yes"/>
      <point x="254" y="220" type="line"/>
      <point x="229" y="220" type="line" smooth="yes"/>
      <point x="109" y="220"/>
      <point x="23" y="289"/>
      <point x="23" y="415" type="curve" smooth="yes"/>
      <point x="23" y="541"/>
      <point x="109" y="611"/>
      <point x="230" y="611" type="curve" smooth="yes"/>
    </contour>
    <contour>
      <point x="306" y="13" type="line"/>
      <point x="306" y="-66"/>
      <point x="295" y="-114"/>
      <point x="267" y="-160" type="curve"/>
      <point x="321" y="-112"/>
      <point x="340" y="-69"/>
      <point x="340" y="13" type="curve" smooth="yes"/>
      <point x="340" y="502" type="line" smooth="yes"/>
      <point x="340" y="534"/>
      <point x="350" y="556"/>
      <point x="366" y="572" type="curve"/>
      <point x="306" y="572" type="line"/>
    </contour>
  </outline>
</glyph>
<glyph name="cedilla" format="1">
  <advance width="257"/>
  <unicode hex="00B8"/>
  <outline>
    <contour>
      <point x="148" y="0" type="move" name="_bottom"/>
    </contour>
    <contour>
      <point x="174" y="12" type="line"/>
      <point x="155" y="-81" type="line"/>
      <point x="146" y="-70" type="line"/>
      <point x="164" y="-70" type="line" smooth="yes"/>
      <point x="222" y="-70"/>
      <point x="247" y="-98"/>
      <point x="247" y="-131" type="curve" smooth="yes"/>
      <point x="247" y="-176"/>
      <point x="202" y="-216"/>
      <point x="126" y="-216" type="curve" smooth="yes"/>
      <point x="77" y="-216"/>
      <point x="49" y="-206"/>
      <point x="10" y="-186" type="curve"/>
      <point x="25" y="-167" type="line"/>
      <point x="58" y="-182"/>
      <point x="85" y="-189"/>
      <point x="117" y="-189" type="curve" smooth="yes"/>
      <point x="164" y="-189"/>
      <point x="190" y="-170"/>
      <point x="190" y="-137" type="curve" smooth="yes"/>
      <point x="190" y="-111"/>
      <point x="169" y="-97"/>
      <point x="132" y="-97" type="curve" smooth="yes"/>
      <point x="121" y="-97"/>
      <point x="108" y="-99"/>
      <point x="94" y="-101" type="curve"/>
      <point x="117" y="12" type="line"/>
    </contour>
  </outline>
</glyph>
<glyph name="onesuperior" format="1">
  <advance width="213"/>
  <unicode hex="00B9"/>
  <outline>
    <contour>
      <point x="132" y="307" type="line"/>
      <point x="112" y="326" type="line"/>
      <point x="138" y="317"/>
      <point x="153" y="310"/>
      <point x="178" y="309" type="curve"/>
      <point x="178" y="303"/>
      <point x="177" y="289"/>
      <point x="175" y="285" type="curve"/>
      <point x="38" y="285" type="line"/>
      <point x="38" y="290"/>
      <point x="38" y="304"/>
      <point x="40" y="309" type="curve"/>
      <point x="72" y="312"/>
      <point x="86" y="316"/>
      <point x="86" y="333" type="curve" smooth="yes"/>
      <point x="86" y="582" type="line"/>
      <point x="104" y="563" type="line"/>
      <point x="40" y="554" type="line"/>
      <point x="39" y="559"/>
      <point x="39" y="570"/>
      <point x="40" y="574" type="curve"/>
      <point x="66" y="589"/>
      <point x="93" y="603"/>
      <point x="118" y="614" type="curve"/>
      <point x="132" y="610" type="line"/>
    </contour>
  </outline>
</glyph>
<glyph name="ordmasculine" format="1">
  <advance width="368"/>
  <unicode hex="00BA"/>
  <outline>
    <contour>
      <point x="338" y="449" type="curve" smooth="yes"/>
      <point x="338" y="350"/>
      <point x="272" y="282"/>
      <point x="183" y="282" type="curve" smooth="yes"/>
      <point x="89" y="282"/>
      <point x="30" y="350"/>
      <point x="30" y="449" type="curve" smooth="yes"/>
      <point x="30" y="550"/>
      <point x="95" y="618"/>
      <point x="184" y="618" type="curve" smooth="yes"/>
      <point x="275" y="618"/>
      <point x="338" y="551"/>
    </contour>
    <contour>
      <point x="83" y="449" type="curve" smooth="yes"/>
      <point x="85" y="365"/>
      <point x="120" y="311"/>
      <point x="187" y="311" type="curve" smooth="yes"/>
      <point x="253" y="311"/>
      <point x="286" y="365"/>
      <point x="284" y="449" type="curve" smooth="yes"/>
      <point x="282" y="535"/>
      <point x="247" y="590"/>
      <point x="180" y="590" type="curve" smooth="yes"/>
      <point x="115" y="591"/>
      <point x="82" y="535"/>
    </contour>
  </outline>
</glyph>
<glyph name="guillemotright" format="1">
  <advance width="609"/>
  <unicode hex="00BB"/>
  <outline>
    <contour>
      <point x="128" y="491" type="line"/>
      <point x="253" y="326" type="line"/>
      <point x="128" y="161" type="line"/>
      <point x="161" y="143" type="line"/>
      <point x="322" y="326" type="line"/>
      <point x="161" y="508" type="line"/>
    </contour>
    <contour>
      <point x="293" y="491" type="line"/>
      <point x="417" y="326" type="line"/>
      <point x="293" y="161" type="line"/>
      <point x="326" y="143" type="line"/>
      <point x="486" y="326" type="line"/>
      <point x="326" y="508" type="line"/>
    </contour>
  </outline>
</glyph>
<glyph name="onequarter" format="1">
  <advance width="701"/>
  <unicode hex="00BC"/>
  <outline>
    <contour>
      <point x="179" y="246" type="line"/>
      <point x="163" y="270" type="line"/>
      <point x="186" y="258"/>
      <point x="204" y="250"/>
      <point x="235" y="249" type="curve"/>
      <point x="235" y="242"/>
      <point x="234" y="231"/>
      <point x="232" y="224" type="curve"/>
      <point x="64" y="224" type="line"/>
      <point x="63" y="232"/>
      <point x="64" y="243"/>
      <point x="67" y="249" type="curve"/>
      <point x="106" y="253"/>
      <point x="123" y="258"/>
      <point x="123" y="279" type="curve" smooth="yes"/>
      <point x="123" y="593" type="line"/>
      <point x="146" y="575" type="line"/>
      <point x="67" y="563" type="line"/>
      <point x="66" y="569"/>
      <point x="66" y="577"/>
      <point x="67" y="582" type="curve"/>
      <point x="99" y="600"/>
      <point x="133" y="618"/>
      <point x="165" y="633" type="curve"/>
      <point x="179" y="628" type="line"/>
    </contour>
    <contour>
      <point x="494" y="652" type="line"/>
      <point x="162" y="-38" type="line"/>
      <point x="199" y="-38" type="line"/>
      <point x="531" y="652" type="line"/>
    </contour>
    <contour>
      <point x="564" y="341" type="line"/>
      <point x="411" y="126" type="line"/>
      <point x="395" y="137" type="line"/>
      <point x="541" y="137" type="line"/>
      <point x="541" y="343" type="line"/>
    </contour>
    <contour>
      <point x="594" y="137" type="line"/>
      <point x="652" y="137" type="line"/>
      <point x="654" y="125"/>
      <point x="656" y="114"/>
      <point x="654" y="102" type="curve"/>
      <point x="594" y="102" type="line"/>
      <point x="594" y="15" type="line"/>
      <point x="579" y="43" type="line"/>
      <point x="600" y="31"/>
      <point x="616" y="27"/>
      <point x="637" y="26" type="curve"/>
      <point x="637" y="20"/>
      <point x="636" y="5"/>
      <point x="635" y="0" type="curve"/>
      <point x="498" y="0" type="line"/>
      <point x="497" y="6"/>
      <point x="498" y="21"/>
      <point x="500" y="26" type="curve"/>
      <point x="529" y="30"/>
      <point x="541" y="34"/>
      <point x="541" y="56" type="curve"/>
      <point x="541" y="102" type="line"/>
      <point x="386" y="102" type="line"/>
      <point x="380" y="109"/>
      <point x="375" y="120"/>
      <point x="372" y="131" type="curve"/>
      <point x="559" y="401" type="line"/>
      <point x="594" y="401" type="line"/>
    </contour>
  </outline>
</glyph>
<glyph name="onehalf" format="1">
  <advance width="761"/>
  <unicode hex="00BD"/>
  <outline>
    <contour>
      <point x="179" y="246" type="line"/>
      <point x="163" y="270" type="line"/>
      <point x="186" y="258"/>
      <point x="204" y="250"/>
      <point x="235" y="249" type="curve"/>
      <point x="235" y="242"/>
      <point x="234" y="231"/>
      <point x="232" y="224" type="curve"/>
      <point x="64" y="224" type="line"/>
      <point x="63" y="232"/>
      <point x="64" y="243"/>
      <point x="67" y="249" type="curve"/>
      <point x="106" y="253"/>
      <point x="123" y="258"/>
      <point x="123" y="279" type="curve" smooth="yes"/>
      <point x="123" y="593" type="line"/>
      <point x="146" y="575" type="line"/>
      <point x="67" y="563" type="line"/>
      <point x="66" y="569"/>
      <point x="66" y="577"/>
      <point x="67" y="582" type="curve"/>
      <point x="99" y="600"/>
      <point x="133" y="618"/>
      <point x="165" y="633" type="curve"/>
      <point x="179" y="628" type="line"/>
    </contour>
    <contour>
      <point x="494" y="652" type="line"/>
      <point x="162" y="-38" type="line"/>
      <point x="199" y="-38" type="line"/>
      <point x="531" y="652" type="line"/>
    </contour>
    <contour>
      <point x="463" y="375" type="curve"/>
      <point x="459" y="354"/>
      <point x="457" y="323"/>
      <point x="457" y="301" type="curve"/>
      <point x="463" y="300"/>
      <point x="471" y="299"/>
      <point x="476" y="299" type="curve"/>
      <point x="488" y="342"/>
      <point x="521" y="361"/>
      <point x="555" y="361" type="curve" smooth="yes"/>
      <point x="592" y="361"/>
      <point x="620" y="332"/>
      <point x="620" y="289" type="curve" smooth="yes"/>
      <point x="620" y="235"/>
      <point x="593" y="198"/>
      <point x="443" y="41" type="curve"/>
      <point x="443" y="32"/>
      <point x="445" y="11"/>
      <point x="448" y="-1" type="curve"/>
      <point x="670" y="-1" type="line"/>
      <point x="677" y="31"/>
      <point x="679" y="78"/>
      <point x="679" y="108" type="curve"/>
      <point x="674" y="111"/>
      <point x="665" y="111"/>
      <point x="661" y="111" type="curve"/>
      <point x="653" y="64"/>
      <point x="640" y="47"/>
      <point x="596" y="47" type="curve" smooth="yes"/>
      <point x="467" y="47" type="line"/>
      <point x="478" y="36" type="line"/>
      <point x="637" y="187"/>
      <point x="680" y="226"/>
      <point x="680" y="295" type="curve" smooth="yes"/>
      <point x="680" y="363"/>
      <point x="628" y="407"/>
      <point x="561" y="407" type="curve" smooth="yes"/>
      <point x="526" y="407"/>
      <point x="491" y="396"/>
    </contour>
  </outline>
</glyph>
<glyph name="threequarters" format="1">
  <advance width="743"/>
  <unicode hex="00BE"/>
  <outline>
    <contour>
      <point x="533" y="652" type="line"/>
      <point x="210" y="-38" type="line"/>
      <point x="246" y="-38" type="line"/>
      <point x="571" y="652" type="line"/>
    </contour>
    <contour>
      <point x="633" y="137" type="line"/>
      <point x="691" y="137" type="line"/>
      <point x="694" y="125"/>
      <point x="695" y="114"/>
      <point x="693" y="102" type="curve"/>
      <point x="633" y="102" type="line"/>
      <point x="633" y="15" type="line"/>
      <point x="619" y="43" type="line"/>
      <point x="640" y="31"/>
      <point x="655" y="27"/>
      <point x="676" y="26" type="curve"/>
      <point x="676" y="20"/>
      <point x="675" y="5"/>
      <point x="674" y="0" type="curve"/>
      <point x="538" y="0" type="line"/>
      <point x="537" y="6"/>
      <point x="538" y="21"/>
      <point x="539" y="26" type="curve"/>
      <point x="569" y="30"/>
      <point x="580" y="34"/>
      <point x="580" y="56" type="curve"/>
      <point x="580" y="102" type="line"/>
      <point x="425" y="102" type="line"/>
      <point x="420" y="109"/>
      <point x="414" y="120"/>
      <point x="411" y="131" type="curve"/>
      <point x="599" y="401" type="line"/>
      <point x="633" y="401" type="line"/>
    </contour>
    <contour>
      <point x="604" y="341" type="line"/>
      <point x="450" y="126" type="line"/>
      <point x="434" y="137" type="line"/>
      <point x="580" y="137" type="line"/>
      <point x="580" y="343" type="line"/>
    </contour>
    <contour>
      <point x="297" y="544" type="curve" smooth="yes"/>
      <point x="297" y="492"/>
      <point x="247" y="447"/>
      <point x="191" y="435" type="curve"/>
      <point x="191" y="442" type="line"/>
      <point x="270" y="430"/>
      <point x="309" y="387"/>
      <point x="309" y="331" type="curve" smooth="yes"/>
      <point x="309" y="267"/>
      <point x="240" y="224"/>
      <point x="179" y="224" type="curve" smooth="yes"/>
      <point x="134" y="224"/>
      <point x="100" y="235"/>
      <point x="67" y="262" type="curve"/>
      <point x="70" y="273"/>
      <point x="75" y="286"/>
      <point x="82" y="293" type="curve"/>
      <point x="104" y="275"/>
      <point x="132" y="263"/>
      <point x="167" y="263" type="curve" smooth="yes"/>
      <point x="214" y="263"/>
      <point x="250" y="290"/>
      <point x="250" y="333" type="curve" smooth="yes"/>
      <point x="250" y="389"/>
      <point x="212" y="411"/>
      <point x="142" y="417" type="curve"/>
      <point x="142" y="449" type="line"/>
      <point x="196" y="451"/>
      <point x="236" y="487"/>
      <point x="236" y="532" type="curve" smooth="yes"/>
      <point x="236" y="573"/>
      <point x="208" y="596"/>
      <point x="175" y="596" type="curve" smooth="yes"/>
      <point x="140" y="596"/>
      <point x="112" y="576"/>
      <point x="101" y="536" type="curve"/>
      <point x="96" y="536"/>
      <point x="87" y="536"/>
      <point x="83" y="538" type="curve"/>
      <point x="83" y="560"/>
      <point x="84" y="587"/>
      <point x="86" y="609" type="curve"/>
      <point x="117" y="627"/>
      <point x="151" y="638"/>
      <point x="191" y="638" type="curve" smooth="yes"/>
      <point x="245" y="638"/>
      <point x="297" y="602"/>
    </contour>
  </outline>
</glyph>
<glyph name="AE" format="1">
  <advance width="817"/>
  <unicode hex="00C6"/>
  <outline>
    <contour>
      <point x="421" y="556" type="line"/>
      <point x="372" y="466" type="line"/>
      <point x="101" y="22" type="line"/>
      <point x="103" y="60" type="line"/>
      <point x="130" y="41"/>
      <point x="151" y="33"/>
      <point x="181" y="30" type="curve"/>
      <point x="181" y="20"/>
      <point x="180" y="9"/>
      <point x="177" y="0" type="curve"/>
      <point x="5" y="0" type="line"/>
      <point x="5" y="10"/>
      <point x="7" y="22"/>
      <point x="9" y="30" type="curve"/>
      <point x="58" y="36"/>
      <point x="75" y="57"/>
      <point x="92" y="85" type="curve" smooth="yes"/>
      <point x="404" y="595" type="line"/>
    </contour>
    <contour>
      <point x="426" y="206" type="line"/>
      <point x="185" y="206" type="line"/>
      <point x="207" y="242" type="line"/>
      <point x="432" y="242" type="line"/>
    </contour>
    <contour>
      <point x="643" y="288" type="line"/>
      <point x="614" y="288" type="line"/>
      <point x="450" y="293" type="line"/>
      <point x="450" y="328" type="line"/>
      <point x="614" y="336" type="line"/>
      <point x="643" y="336" type="line"/>
    </contour>
    <contour>
      <point x="748" y="478" type="curve"/>
      <point x="742" y="476"/>
      <point x="728" y="476"/>
      <point x="720" y="476" type="curve"/>
      <point x="714" y="545"/>
      <point x="701" y="578"/>
      <point x="633" y="578" type="curve" smooth="yes"/>
      <point x="454" y="578" type="line"/>
      <point x="473" y="594" type="line"/>
      <point x="473" y="18" type="line"/>
      <point x="452" y="35" type="line"/>
      <point x="646" y="35" type="line" smooth="yes"/>
      <point x="715" y="35"/>
      <point x="728" y="68"/>
      <point x="735" y="138" type="curve"/>
      <point x="744" y="138"/>
      <point x="758" y="138"/>
      <point x="765" y="136" type="curve"/>
      <point x="768" y="91"/>
      <point x="769" y="46"/>
      <point x="767" y="0" type="curve"/>
      <point x="335" y="0" type="line"/>
      <point x="334" y="9"/>
      <point x="335" y="21"/>
      <point x="338" y="29" type="curve"/>
      <point x="384" y="35"/>
      <point x="401" y="44"/>
      <point x="401" y="77" type="curve" smooth="yes"/>
      <point x="401" y="583" type="line"/>
      <point x="406" y="566" type="line"/>
      <point x="383" y="578"/>
      <point x="358" y="582"/>
      <point x="332" y="583" type="curve"/>
      <point x="332" y="592"/>
      <point x="333" y="605"/>
      <point x="335" y="611" type="curve"/>
      <point x="752" y="611" type="line"/>
      <point x="754" y="567"/>
      <point x="753" y="521"/>
    </contour>
  </outline>
</glyph>
<glyph name="Eth" format="1">
  <advance width="590"/>
  <unicode hex="00D0"/>
  <outline>
    <contour>
      <point x="299" y="327" type="line"/>
      <point x="302" y="315"/>
      <point x="302" y="302"/>
      <point x="299" y="289" type="curve"/>
      <point x="25" y="289" type="line"/>
      <point x="22" y="302"/>
      <point x="22" y="315"/>
      <point x="25" y="327" type="curve"/>
    </contour>
    <component base="D"/>
  </outline>
</glyph>
<glyph name="multiply" format="1">
  <advance width="524"/>
  <unicode hex="00D7"/>
  <outline>
    <contour>
      <point x="442" y="569" type="line"/>
      <point x="479" y="532" type="line"/>
      <point x="91" y="109" type="line"/>
      <point x="52" y="146" type="line"/>
    </contour>
    <contour>
      <point x="442" y="109" type="line"/>
      <point x="49" y="532" type="line"/>
      <point x="86" y="568" type="line"/>
      <point x="479" y="143" type="line"/>
    </contour>
  </outline>
</glyph>
<glyph name="Oslash" format="1">
  <advance width="659"/>
  <unicode hex="00D8"/>
  <outline>
    <contour>
      <point x="330" y="611" type="move" name="top"/>
    </contour>
    <contour>
      <point x="330" y="-13" type="curve" smooth="yes"/>
      <point x="153" y="-13"/>
      <point x="56" y="119"/>
      <point x="56" y="304" type="curve" smooth="yes"/>
      <point x="56" y="489"/>
      <point x="159" y="625"/>
      <point x="329" y="625" type="curve" smooth="yes"/>
      <point x="498" y="625"/>
      <point x="605" y="489"/>
      <point x="605" y="304" type="curve" smooth="yes"/>
      <point x="605" y="119"/>
      <point x="498" y="-13"/>
    </contour>
    <contour>
      <point x="522" y="305" type="curve" smooth="yes"/>
      <point x="512" y="486"/>
      <point x="434" y="583"/>
      <point x="314" y="583" type="curve" smooth="yes"/>
      <point x="193" y="583"/>
      <point x="129" y="463"/>
      <point x="138" y="304" type="curve" smooth="yes"/>
      <point x="147" y="117"/>
      <point x="223" y="29"/>
      <point x="345" y="29" type="curve" smooth="yes"/>
      <point x="465" y="29"/>
      <point x="531" y="138"/>
    </contour>
    <contour>
      <point x="108" y="-13" type="line"/>
      <point x="55" y="-13" type="line"/>
      <point x="562" y="624" type="line"/>
      <point x="616" y="624" type="line"/>
    </contour>
  </outline>
</glyph>
<glyph name="Thorn" format="1">
  <advance width="526"/>
  <unicode hex="00DE"/>
  <outline>
    <contour>
      <point x="174" y="23" type="line"/>
      <point x="151" y="55" type="line"/>
      <point x="185" y="36"/>
      <point x="211" y="30"/>
      <point x="241" y="29" type="curve"/>
      <point x="242" y="19"/>
      <point x="240" y="8"/>
      <point x="238" y="0" type="curve"/>
      <point x="36" y="0" type="line"/>
      <point x="35" y="9"/>
      <point x="36" y="21"/>
      <point x="39" y="29" type="curve"/>
      <point x="85" y="35"/>
      <point x="102" y="44"/>
      <point x="102" y="77" type="curve" smooth="yes"/>
      <point x="102" y="584" type="line"/>
      <point x="123" y="558" type="line"/>
      <point x="90" y="575"/>
      <point x="64" y="581"/>
      <point x="33" y="583" type="curve"/>
      <point x="33" y="592"/>
      <point x="34" y="605"/>
      <point x="36" y="611" type="curve"/>
      <point x="239" y="611" type="line"/>
      <point x="239" y="604"/>
      <point x="239" y="591"/>
      <point x="236" y="583" type="curve"/>
      <point x="192" y="578"/>
      <point x="174" y="569"/>
      <point x="174" y="536" type="curve" smooth="yes"/>
    </contour>
    <contour>
      <point x="288" y="468" type="line"/>
      <point x="413" y="468"/>
      <point x="485" y="404"/>
      <point x="485" y="311" type="curve" smooth="yes"/>
      <point x="485" y="220"/>
      <point x="413" y="156"/>
      <point x="288" y="156" type="curve" smooth="yes"/>
      <point x="147" y="156" type="line"/>
      <point x="147" y="191" type="line"/>
      <point x="271" y="191" type="line" smooth="yes"/>
      <point x="355" y="191"/>
      <point x="404" y="235"/>
      <point x="404" y="311" type="curve" smooth="yes"/>
      <point x="404" y="388"/>
      <point x="359" y="433"/>
      <point x="271" y="433" type="curve" smooth="yes"/>
      <point x="147" y="433" type="line"/>
      <point x="147" y="468" type="line"/>
    </contour>
  </outline>
</glyph>
<glyph name="germandbls" format="1">
  <advance width="561"/>
  <unicode hex="00DF"/>
  <outline>
    <contour>
      <point x="460" y="679" type="move" name="top"/>
    </contour>
    <contour>
      <point x="482" y="453" type="curve" smooth="yes"/>
      <point x="482" y="376"/>
      <point x="426" y="326"/>
      <point x="356" y="312" type="curve"/>
      <point x="348" y="324" type="line"/>
      <point x="454" y="320"/>
      <point x="511" y="245"/>
      <point x="511" y="165" type="curve" smooth="yes"/>
      <point x="511" y="84"/>
      <point x="452" y="0"/>
      <point x="320" y="0" type="curve" smooth="yes"/>
      <point x="291" y="0"/>
      <point x="263" y="6"/>
      <point x="239" y="13" type="curve"/>
      <point x="235" y="25"/>
      <point x="235" y="37"/>
      <point x="238" y="48" type="curve"/>
      <point x="261" y="41"/>
      <point x="287" y="35"/>
      <point x="310" y="35" type="curve" smooth="yes"/>
      <point x="392" y="35"/>
      <point x="430" y="93"/>
      <point x="430" y="165" type="curve" smooth="yes"/>
      <point x="430" y="237"/>
      <point x="392" y="296"/>
      <point x="295" y="296" type="curve" smooth="yes"/>
      <point x="256" y="296" type="line"/>
      <point x="252" y="307"/>
      <point x="251" y="319"/>
      <point x="252" y="330" type="curve"/>
      <point x="315" y="330" type="line"/>
      <point x="370" y="350"/>
      <point x="402" y="389"/>
      <point x="402" y="453" type="curve" smooth="yes"/>
      <point x="402" y="531"/>
      <point x="359" y="578"/>
      <point x="284" y="578" type="curve" smooth="yes"/>
      <point x="208" y="578"/>
      <point x="173" y="518"/>
      <point x="173" y="438" type="curve" smooth="yes"/>
      <point x="173" y="0" type="line"/>
      <point x="32" y="0" type="line"/>
      <point x="31" y="9"/>
      <point x="32" y="22"/>
      <point x="34" y="30" type="curve"/>
      <point x="81" y="35"/>
      <point x="100" y="45"/>
      <point x="100" y="79" type="curve" smooth="yes"/>
      <point x="100" y="428" type="line" smooth="yes"/>
      <point x="100" y="538"/>
      <point x="174" y="611"/>
      <point x="299" y="611" type="curve" smooth="yes"/>
      <point x="415" y="611"/>
      <point x="482" y="536"/>
    </contour>
  </outline>
</glyph>
<glyph name="ae" format="1">
  <advance width="721"/>
  <unicode hex="00E6"/>
  <outline>
    <contour>
      <point x="300" y="246" type="line"/>
      <point x="221" y="226" type="line" smooth="yes"/>
      <point x="150" y="207"/>
      <point x="121" y="170"/>
      <point x="121" y="119" type="curve" smooth="yes"/>
      <point x="121" y="69"/>
      <point x="152" y="42"/>
      <point x="200" y="42" type="curve" smooth="yes"/>
      <point x="253" y="42"/>
      <point x="291" y="69"/>
      <point x="323" y="119" type="curve"/>
      <point x="338" y="90" type="line"/>
      <point x="303" y="35"/>
      <point x="247" y="-12"/>
      <point x="179" y="-12" type="curve" smooth="yes"/>
      <point x="97" y="-12"/>
      <point x="45" y="43"/>
      <point x="45" y="111" type="curve" smooth="yes"/>
      <point x="45" y="191"/>
      <point x="94" y="235"/>
      <point x="197" y="258" type="curve" smooth="yes"/>
      <point x="300" y="281" type="line"/>
    </contour>
    <contour>
      <point x="352" y="389" type="curve"/>
      <point x="395" y="442"/>
      <point x="458" y="467"/>
      <point x="510" y="467" type="curve" smooth="yes"/>
      <point x="604" y="467"/>
      <point x="680" y="404"/>
      <point x="680" y="276" type="curve"/>
      <point x="678" y="270"/>
      <point x="674" y="263"/>
      <point x="670" y="258" type="curve"/>
      <point x="357" y="258" type="line"/>
      <point x="357" y="290" type="line"/>
      <point x="490" y="299" type="line"/>
      <point x="604" y="299" type="line"/>
      <point x="603" y="392"/>
      <point x="554" y="427"/>
      <point x="501" y="427" type="curve" smooth="yes"/>
      <point x="443" y="427"/>
      <point x="369" y="375"/>
      <point x="369" y="235" type="curve" smooth="yes"/>
      <point x="369" y="110"/>
      <point x="423" y="41"/>
      <point x="517" y="41" type="curve" smooth="yes"/>
      <point x="569" y="41"/>
      <point x="618" y="57"/>
      <point x="666" y="89" type="curve"/>
      <point x="675" y="71" type="line"/>
      <point x="632" y="22"/>
      <point x="573" y="-12"/>
      <point x="496" y="-12" type="curve" smooth="yes"/>
      <point x="403" y="-12"/>
      <point x="292" y="60"/>
      <point x="292" y="219" type="curve" smooth="yes"/>
      <point x="292" y="323" type="line" smooth="yes"/>
      <point x="292" y="381"/>
      <point x="271" y="410"/>
      <point x="212" y="410" type="curve" smooth="yes"/>
      <point x="170" y="410"/>
      <point x="127" y="401"/>
      <point x="84" y="386" type="curve"/>
      <point x="71" y="406" type="line"/>
      <point x="118" y="445"/>
      <point x="177" y="467"/>
      <point x="237" y="467" type="curve" smooth="yes"/>
      <point x="296" y="467"/>
      <point x="336" y="438"/>
    </contour>
  </outline>
</glyph>
<glyph name="eth" format="1">
  <advance width="499"/>
  <unicode hex="00F0"/>
  <outline>
    <contour>
      <point x="446" y="272" type="curve" smooth="yes"/>
      <point x="446" y="117"/>
      <point x="363" y="-12"/>
      <point x="239" y="-12" type="curve" smooth="yes"/>
      <point x="127" y="-12"/>
      <point x="42" y="75"/>
      <point x="42" y="217" type="curve" smooth="yes"/>
      <point x="42" y="359"/>
      <point x="152" y="467"/>
      <point x="297" y="467" type="curve" smooth="yes"/>
      <point x="328" y="467"/>
      <point x="351" y="465"/>
      <point x="373" y="461" type="curve"/>
      <point x="375" y="405" type="line"/>
      <point x="348" y="415"/>
      <point x="320" y="421"/>
      <point x="287" y="421" type="curve" smooth="yes"/>
      <point x="183" y="421"/>
      <point x="118" y="355"/>
      <point x="119" y="217" type="curve" smooth="yes"/>
      <point x="120" y="110"/>
      <point x="167" y="30"/>
      <point x="243" y="30" type="curve" smooth="yes"/>
      <point x="336" y="30"/>
      <point x="369" y="144"/>
      <point x="369" y="269" type="curve" smooth="yes"/>
      <point x="369" y="415"/>
      <point x="332" y="546"/>
      <point x="192" y="691" type="curve"/>
      <point x="219" y="715" type="line"/>
      <point x="355" y="587"/>
      <point x="446" y="447"/>
    </contour>
    <contour>
      <point x="436" y="642" type="curve"/>
      <point x="177" y="520" type="line"/>
      <point x="167" y="528"/>
      <point x="160" y="541"/>
      <point x="157" y="554" type="curve"/>
      <point x="416" y="675" type="line"/>
      <point x="427" y="667"/>
      <point x="433" y="656"/>
    </contour>
  </outline>
</glyph>
<glyph name="divide" format="1">
  <advance width="594"/>
  <unicode hex="00F7"/>
  <outline>
    <contour>
      <point x="552" y="352" type="line"/>
      <point x="552" y="299" type="line"/>
      <point x="42" y="299" type="line"/>
      <point x="42" y="352" type="line"/>
    </contour>
    <contour>
      <point x="346" y="149" type="curve" smooth="yes"/>
      <point x="346" y="122"/>
      <point x="324" y="100"/>
      <point x="297" y="100" type="curve" smooth="yes"/>
      <point x="270" y="100"/>
      <point x="249" y="122"/>
      <point x="249" y="149" type="curve" smooth="yes"/>
      <point x="249" y="177"/>
      <point x="270" y="198"/>
      <point x="297" y="198" type="curve" smooth="yes"/>
      <point x="324" y="198"/>
      <point x="346" y="177"/>
    </contour>
    <contour>
      <point x="346" y="502" type="curve" smooth="yes"/>
      <point x="346" y="475"/>
      <point x="324" y="453"/>
      <point x="297" y="453" type="curve" smooth="yes"/>
      <point x="270" y="453"/>
      <point x="249" y="475"/>
      <point x="249" y="502" type="curve" smooth="yes"/>
      <point x="249" y="529"/>
      <point x="270" y="551"/>
      <point x="297" y="551" type="curve" smooth="yes"/>
      <point x="324" y="551"/>
      <point x="346" y="529"/>
    </contour>
  </outline>
</glyph>
<glyph name="oslash" format="1">
  <advance width="525"/>
  <unicode hex="00F8"/>
  <outline>
    <contour>
      <point x="263" y="455" type="move" name="top"/>
    </contour>
    <contour>
      <point x="483" y="227" type="curve" smooth="yes"/>
      <point x="483" y="85"/>
      <point x="389" y="-12"/>
      <point x="262" y="-12" type="curve" smooth="yes"/>
      <point x="127" y="-12"/>
      <point x="42" y="85"/>
      <point x="42" y="227" type="curve" smooth="yes"/>
      <point x="42" y="371"/>
      <point x="136" y="467"/>
      <point x="263" y="467" type="curve" smooth="yes"/>
      <point x="393" y="467"/>
      <point x="483" y="372"/>
    </contour>
    <contour>
      <point x="119" y="227" type="curve" smooth="yes"/>
      <point x="122" y="106"/>
      <point x="171" y="30"/>
      <point x="267" y="30" type="curve" smooth="yes"/>
      <point x="361" y="30"/>
      <point x="408" y="106"/>
      <point x="405" y="227" type="curve" smooth="yes"/>
      <point x="403" y="349"/>
      <point x="352" y="428"/>
      <point x="258" y="428" type="curve" smooth="yes"/>
      <point x="164" y="428"/>
      <point x="117" y="349"/>
    </contour>
    <contour>
      <point x="89" y="-12" type="line"/>
      <point x="42" y="-12" type="line"/>
      <point x="435" y="467" type="line"/>
      <point x="483" y="467" type="line"/>
    </contour>
  </outline>
</glyph>
<glyph name="thorn" format="1">
  <advance width="530"/>
  <unicode hex="00FE"/>
  <outline>
    <contour>
      <point x="164" y="-174" type="line"/>
      <point x="193" y="-188"/>
      <point x="218" y="-193"/>
      <point x="246" y="-195" type="curve"/>
      <point x="247" y="-205"/>
      <point x="245" y="-216"/>
      <point x="243" y="-225" type="curve"/>
      <point x="31" y="-225" type="line"/>
      <point x="30" y="-215"/>
      <point x="31" y="-203"/>
      <point x="33" y="-195" type="curve"/>
      <point x="81" y="-189"/>
      <point x="99" y="-179"/>
      <point x="99" y="-146" type="curve" smooth="yes"/>
      <point x="99" y="665" type="line"/>
      <point x="106" y="649" type="line"/>
      <point x="83" y="652"/>
      <point x="57" y="651"/>
      <point x="29" y="650" type="curve"/>
      <point x="29" y="660"/>
      <point x="31" y="670"/>
      <point x="33" y="678" type="curve"/>
      <point x="77" y="696"/>
      <point x="121" y="708"/>
      <point x="171" y="715" type="curve"/>
      <point x="171" y="-195" type="line"/>
    </contour>
    <contour>
      <point x="300" y="-13" type="curve" smooth="yes"/>
      <point x="229" y="-13"/>
      <point x="169" y="34"/>
      <point x="155" y="137" type="curve"/>
      <point x="165" y="175" type="line"/>
      <point x="176" y="78"/>
      <point x="231" y="36"/>
      <point x="287" y="36" type="curve" smooth="yes"/>
      <point x="345" y="36"/>
      <point x="406" y="78"/>
      <point x="406" y="227" type="curve" smooth="yes"/>
      <point x="406" y="376"/>
      <point x="345" y="419"/>
      <point x="287" y="419" type="curve" smooth="yes"/>
      <point x="231" y="419"/>
      <point x="176" y="376"/>
      <point x="165" y="280" type="curve"/>
      <point x="155" y="317" type="line"/>
      <point x="169" y="421"/>
      <point x="229" y="467"/>
      <point x="300" y="467" type="curve" smooth="yes"/>
      <point x="390" y="467"/>
      <point x="486" y="397"/>
      <point x="486" y="227" type="curve" smooth="yes"/>
      <point x="486" y="57"/>
      <point x="390" y="-12"/>
    </contour>
  </outline>
</glyph>
<glyph name="dcroat" format="1">
  <advance width="534"/>
  <unicode hex="0111"/>
  <outline>
    <contour>
      <point x="494" y="625" type="line"/>
      <point x="500" y="615"/>
      <point x="504" y="602"/>
      <point x="504" y="589" type="curve"/>
      <point x="256" y="517" type="line"/>
      <point x="249" y="527"/>
      <point x="245" y="538"/>
      <point x="246" y="553" type="curve"/>
    </contour>
    <component base="d"/>
  </outline>
</glyph>
<glyph name="dotlessi" format="1">
  <advance width="277"/>
  <unicode hex="0131"/>
  <outline>
    <contour>
      <point x="136" y="455" type="move" name="top"/>
    </contour>
    <contour>
      <point x="265" y="10" type="move" name="ogonek"/>
    </contour>
    <contour>
      <point x="171" y="25" type="line"/>
      <point x="164" y="48" type="line"/>
      <point x="191" y="36"/>
      <point x="213" y="32"/>
      <point x="239" y="30" type="curve"/>
      <point x="239" y="20"/>
      <point x="238" y="8"/>
      <point x="236" y="0" type="curve"/>
      <point x="31" y="0" type="line"/>
      <point x="30" y="9"/>
      <point x="31" y="22"/>
      <point x="33" y="30" type="curve"/>
      <point x="81" y="35"/>
      <point x="99" y="45"/>
      <point x="99" y="79" type="curve" smooth="yes"/>
      <point x="99" y="410" type="line"/>
      <point x="106" y="396" type="line"/>
      <point x="83" y="397"/>
      <point x="57" y="398"/>
      <point x="29" y="397" type="curve"/>
      <point x="29" y="405"/>
      <point x="31" y="415"/>
      <point x="33" y="424" type="curve"/>
      <point x="77" y="441"/>
      <point x="121" y="453"/>
      <point x="171" y="461" type="curve"/>
    </contour>
  </outline>
</glyph>
<glyph name="Lslash" format="1">
  <advance width="498"/>
  <unicode hex="0141"/>
  <outline>
    <contour>
      <point x="279" y="335" type="curve"/>
      <point x="26" y="251" type="line"/>
      <point x="18" y="260"/>
      <point x="15" y="271"/>
      <point x="13" y="286" type="curve"/>
      <point x="265" y="373" type="line"/>
      <point x="274" y="362"/>
      <point x="276" y="349"/>
    </contour>
    <component base="L"/>
  </outline>
</glyph>
<glyph name="lslash" format="1">
  <advance width="301"/>
  <unicode hex="0142"/>
  <outline>
    <contour>
      <point x="283" y="388" type="curve"/>
      <point x="30" y="302" type="line"/>
      <point x="22" y="312"/>
      <point x="17" y="324"/>
      <point x="17" y="340" type="curve"/>
      <point x="269" y="427" type="line"/>
      <point x="277" y="416"/>
      <point x="282" y="401"/>
    </contour>
    <component base="l" xOffset="9"/>
  </outline>
</glyph>
<glyph name="OE" format="1">
  <advance width="863"/>
  <unicode hex="0152"/>
  <outline>
    <contour>
      <point x="685" y="288" type="line"/>
      <point x="655" y="288" type="line"/>
      <point x="492" y="293" type="line"/>
      <point x="492" y="328" type="line"/>
      <point x="655" y="336" type="line"/>
      <point x="685" y="336" type="line"/>
    </contour>
    <contour>
      <point x="466" y="1" type="line"/>
      <point x="425" y="-6"/>
      <point x="384" y="-13"/>
      <point x="330" y="-13" type="curve" smooth="yes"/>
      <point x="160" y="-13"/>
      <point x="56" y="119"/>
      <point x="56" y="304" type="curve" smooth="yes"/>
      <point x="56" y="489"/>
      <point x="163" y="625"/>
      <point x="333" y="625" type="curve" smooth="yes"/>
      <point x="387" y="625"/>
      <point x="428" y="618"/>
      <point x="480" y="607" type="curve"/>
      <point x="463" y="548" type="line"/>
      <point x="414" y="572"/>
      <point x="375" y="583"/>
      <point x="320" y="583" type="curve" smooth="yes"/>
      <point x="196" y="583"/>
      <point x="129" y="463"/>
      <point x="138" y="304" type="curve" smooth="yes"/>
      <point x="147" y="117"/>
      <point x="223" y="29"/>
      <point x="345" y="29" type="curve" smooth="yes"/>
      <point x="391" y="29"/>
      <point x="416" y="37"/>
      <point x="454" y="62" type="curve"/>
    </contour>
    <contour>
      <point x="794" y="611" type="line"/>
      <point x="797" y="567"/>
      <point x="796" y="521"/>
      <point x="790" y="478" type="curve"/>
      <point x="784" y="476"/>
      <point x="770" y="476"/>
      <point x="762" y="476" type="curve"/>
      <point x="756" y="545"/>
      <point x="743" y="578"/>
      <point x="675" y="578" type="curve" smooth="yes"/>
      <point x="495" y="578" type="line"/>
      <point x="515" y="594" type="line"/>
      <point x="515" y="18" type="line"/>
      <point x="494" y="35" type="line"/>
      <point x="688" y="35" type="line" smooth="yes"/>
      <point x="757" y="35"/>
      <point x="770" y="68"/>
      <point x="777" y="138" type="curve"/>
      <point x="786" y="138"/>
      <point x="799" y="138"/>
      <point x="807" y="136" type="curve"/>
      <point x="810" y="91"/>
      <point x="811" y="46"/>
      <point x="809" y="0" type="curve"/>
      <point x="443" y="0" type="line"/>
      <point x="443" y="611" type="line"/>
    </contour>
  </outline>
</glyph>
<glyph name="oe" format="1">
  <advance width="822"/>
  <unicode hex="0153"/>
  <outline>
    <contour>
      <point x="368" y="455" type="move" name="top"/>
    </contour>
    <contour>
      <point x="432" y="358" type="curve"/>
      <point x="474" y="433"/>
      <point x="549" y="467"/>
      <point x="609" y="467" type="curve" smooth="yes"/>
      <point x="704" y="467"/>
      <point x="779" y="404"/>
      <point x="779" y="276" type="curve"/>
      <point x="777" y="270"/>
      <point x="774" y="263"/>
      <point x="769" y="258" type="curve"/>
      <point x="456" y="258" type="line"/>
      <point x="456" y="290" type="line"/>
      <point x="589" y="299" type="line"/>
      <point x="703" y="299" type="line"/>
      <point x="702" y="392"/>
      <point x="653" y="427"/>
      <point x="601" y="427" type="curve" smooth="yes"/>
      <point x="543" y="427"/>
      <point x="468" y="375"/>
      <point x="468" y="235" type="curve" smooth="yes"/>
      <point x="468" y="110"/>
      <point x="523" y="41"/>
      <point x="617" y="41" type="curve" smooth="yes"/>
      <point x="668" y="41"/>
      <point x="716" y="58"/>
      <point x="764" y="90" type="curve"/>
      <point x="773" y="70" type="line"/>
      <point x="731" y="23"/>
      <point x="672" y="-12"/>
      <point x="595" y="-12" type="curve" smooth="yes"/>
      <point x="533" y="-12"/>
      <point x="464" y="20"/>
      <point x="427" y="91" type="curve"/>
      <point x="391" y="21"/>
      <point x="329" y="-12"/>
      <point x="254" y="-12" type="curve" smooth="yes"/>
      <point x="119" y="-12"/>
      <point x="42" y="85"/>
      <point x="42" y="227" type="curve" smooth="yes"/>
      <point x="42" y="371"/>
      <point x="128" y="467"/>
      <point x="255" y="467" type="curve" smooth="yes"/>
      <point x="333" y="467"/>
      <point x="396" y="432"/>
    </contour>
    <contour>
      <point x="119" y="227" type="curve" smooth="yes"/>
      <point x="122" y="106"/>
      <point x="168" y="30"/>
      <point x="259" y="30" type="curve" smooth="yes"/>
      <point x="350" y="30"/>
      <point x="392" y="106"/>
      <point x="389" y="227" type="curve" smooth="yes"/>
      <point x="387" y="349"/>
      <point x="341" y="429"/>
      <point x="250" y="429" type="curve" smooth="yes"/>
      <point x="159" y="429"/>
      <point x="117" y="349"/>
    </contour>
  </outline>
</glyph>
